<?xml version="1.0" encoding="UTF-8"?>
<svg version="1.1" xmlns="http://www.w3.org/2000/svg" width="300" height="201">
<path d="M0 0 C99 0 198 0 300 0 C300 66.33 300 132.66 300 201 C201 201 102 201 0 201 C0 134.67 0 68.34 0 0 Z " fill="#FDFDFD" transform="translate(0,0)"/>
<path d="M0 0 C1.67542976 0.28604898 3.34385343 0.61781233 5 1 C5 1.99 5 2.98 5 4 C4.34 4 3.68 4 3 4 C3.32097656 4.56847656 3.64195313 5.13695313 3.97265625 5.72265625 C5.65540768 9.4528619 5.68088015 12.99355784 5 17 C1.72451788 21.70850554 -2.55122385 23.71310312 -8 25 C-10.92920595 25.3324199 -13.83250258 25.55773395 -16.77734375 25.69140625 C-17.51082031 25.79324219 -18.24429688 25.89507812 -19 26 C-19.33 26.66 -19.66 27.32 -20 28 C-19.35973877 27.97905273 -18.71947754 27.95810547 -18.05981445 27.93652344 C-15.14420425 27.85310716 -12.22884548 27.80126031 -9.3125 27.75 C-7.80139648 27.69972656 -7.80139648 27.69972656 -6.25976562 27.6484375 C1.2054523 27.54988677 1.2054523 27.54988677 5.171875 29.796875 C7 32 7 32 7.5625 35.5 C7 39 7 39 5.375 41.3125 C-0.22800837 45.2935849 -5.95371534 45.31133443 -12.5625 45.25 C-13.81836914 45.26160156 -13.81836914 45.26160156 -15.09960938 45.2734375 C-19.5088024 45.25947331 -22.99157452 45.06569166 -27 43 C-26.67 41.68 -26.34 40.36 -26 39 C-22.92643736 38.09601099 -21.32464082 37.88932699 -18.25 38.9375 C-13.49587004 40.49173479 -8.39041453 41.06788278 -3.7265625 38.984375 C-3.15679687 38.65953125 -2.58703125 38.3346875 -2 38 C-2 36.68 -2 35.36 -2 34 C-2.65597168 33.98018066 -3.31194336 33.96036133 -3.98779297 33.93994141 C-6.95061069 33.84487493 -9.91270532 33.73512248 -12.875 33.625 C-13.90753906 33.5940625 -14.94007812 33.563125 -16.00390625 33.53125 C-16.99003906 33.49257812 -17.97617187 33.45390625 -18.9921875 33.4140625 C-19.90339355 33.3826416 -20.81459961 33.3512207 -21.75341797 33.31884766 C-24 33 -24 33 -26 31 C-26.125 28.375 -26.125 28.375 -26 26 C-24.68 25.34 -23.36 24.68 -22 24 C-22 23.34 -22 22.68 -22 22 C-22.66 22 -23.32 22 -24 22 C-27.36154268 19.03393293 -28.39506554 16.42030645 -28.75 12.0625 C-28.52950146 8.28010192 -27.92355524 6.04757368 -25.1875 3.375 C-19.24622786 -0.48142574 -11.75992517 0.59526978 -4.97265625 0.88671875 C-3.66167969 0.92410156 -2.35070312 0.96148437 -1 1 C-0.67 0.67 -0.34 0.34 0 0 Z " fill="#2B2724" transform="translate(81,60)"/>
<path d="M0 0 C0 0.99 0 1.98 0 3 C0.66 2.484375 1.32 1.96875 2 1.4375 C6.1977075 -0.57390151 8.48533791 0.02182321 13 1 C13.33 1.66 13.66 2.32 14 3 C17.29075996 2.62095792 17.29075996 2.62095792 20 1 C23.97849258 0.32553452 27.56604753 0.16396867 31.1171875 2.234375 C34.08440361 4.72141921 35.7564018 6.26920541 37 10 C37.22635971 13.10017698 37.18515463 16.20489136 37.1875 19.3125 C37.19974609 20.15490234 37.21199219 20.99730469 37.22460938 21.86523438 C37.23583755 26.6521811 36.856112 30.50278001 35 35 C32.36 35 29.72 35 27 35 C27.33 26.75 27.66 18.5 28 10 C25.36 10 22.72 10 20 10 C18.28556781 11.71443219 18.76947033 14.00445241 18.68359375 16.34765625 C18.64169922 17.42724609 18.59980469 18.50683594 18.55664062 19.61914062 C18.51732422 20.75544922 18.47800781 21.89175781 18.4375 23.0625 C18.39431641 24.20267578 18.35113281 25.34285156 18.30664062 26.51757812 C18.20017161 29.34492195 18.09815793 32.17235738 18 35 C15.36 35 12.72 35 10 35 C9.97494385 34.2479126 9.9498877 33.4958252 9.92407227 32.72094727 C9.80849486 29.33460804 9.68559655 25.94857387 9.5625 22.5625 C9.52318359 21.37849609 9.48386719 20.19449219 9.44335938 18.97460938 C9.40146484 17.84990234 9.35957031 16.72519531 9.31640625 15.56640625 C9.27974854 14.52427979 9.24309082 13.48215332 9.20532227 12.40844727 C9.26484659 10.0500174 9.26484659 10.0500174 8 9 C5.69 9.33 3.38 9.66 1 10 C0.67 17.92 0.34 25.84 0 34 C-2.64 34.33 -5.28 34.66 -8 35 C-8 24.44 -8 13.88 -8 3 C-2 0 -2 0 0 0 Z " fill="#3256A4" transform="translate(206,143)"/>
<path d="M0 0 C3.25659368 2.36262679 4.82031412 3.55273882 6.1875 7.3125 C6.1875 9.9525 6.1875 12.5925 6.1875 15.3125 C-3.7125 15.3125 -13.6125 15.3125 -23.8125 15.3125 C-22.30188172 20.83274433 -22.30188172 20.83274433 -18.8125 24.3125 C-11.51991804 26.53603778 -5.53843081 25.54094679 1.1875 22.3125 C2.1775 22.3125 3.1675 22.3125 4.1875 22.3125 C4.9375 24.0625 4.9375 24.0625 5.1875 26.3125 C2.7943033 29.41479202 0.96706657 30.58862213 -2.8125 31.3125 C-5.59854211 31.4843388 -8.33788283 31.58886624 -11.125 31.625 C-11.85912109 31.65400391 -12.59324219 31.68300781 -13.34960938 31.71289062 C-20.06290634 31.79032883 -24.08522465 29.68092333 -29.1875 25.25 C-32.48432794 21.31916669 -32.14285834 16.93380329 -32.09765625 12.0390625 C-31.522397 6.53863845 -27.84180759 2.82189694 -23.8125 -0.6875 C-16.9779724 -2.96567587 -6.56116695 -3.04713372 0 0 Z " fill="#1D1816" transform="translate(159.8125,62.6875)"/>
<path d="M0 0 C0.72960937 -0.02449219 1.45921875 -0.04898438 2.2109375 -0.07421875 C7.78837815 -0.1040979 11.03910614 1.18738902 15.625 4.375 C16.79457358 6.71414715 16.77885342 8.19819676 16.8359375 10.8046875 C16.86429688 11.68253906 16.89265625 12.56039062 16.921875 13.46484375 C16.97373366 15.31360482 17.01807115 17.16259299 17.0546875 19.01171875 C17.085625 19.89214844 17.1165625 20.77257812 17.1484375 21.6796875 C17.1781665 22.8860083 17.1781665 22.8860083 17.20849609 24.11669922 C17.71419266 26.85860618 18.93541318 28.1983453 20.625 30.375 C20.625 31.365 20.625 32.355 20.625 33.375 C17.8125 33.5625 17.8125 33.5625 14.625 33.375 C13.625 32.375 12.625 31.375 11.625 30.375 C8.98802467 30.57784426 7.1300291 31.08499421 4.8359375 32.40234375 C0.38876016 34.35878749 -4.6275403 33.91404125 -9.375 33.375 C-12.89621839 31.33269333 -14.12717677 29.74673484 -16.375 26.375 C-16.70227273 21.02954545 -16.70227273 21.02954545 -15.375 18.375 C-14.715 18.375 -14.055 18.375 -13.375 18.375 C-13.375 17.715 -13.375 17.055 -13.375 16.375 C-8.58350196 11.93842774 -3.31756574 12.25404144 2.9375 12.3125 C4.19175781 12.32152344 5.44601563 12.33054687 6.73828125 12.33984375 C7.69089844 12.35144531 8.64351562 12.36304687 9.625 12.375 C8.84369929 9.87947516 8.84369929 9.87947516 7.625 7.375 C1.38047107 5.29349036 -6.00724179 5.99818741 -12.375 7.375 C-12.705 5.725 -13.035 4.075 -13.375 2.375 C-8.9734852 0.20033854 -4.8182404 0.0084235 0 0 Z " fill="#1F1B17" transform="translate(30.375,60.625)"/>
<path d="M0 0 C0 2.31 0 4.62 0 7 C-0.75925781 7.06058594 -1.51851562 7.12117187 -2.30078125 7.18359375 C-3.79158203 7.30927734 -3.79158203 7.30927734 -5.3125 7.4375 C-6.29863281 7.51871094 -7.28476563 7.59992188 -8.30078125 7.68359375 C-11.09375599 7.91812559 -11.09375599 7.91812559 -14 9 C-14.12096374 11.90312978 -14.10988387 13.36402581 -13 16 C-10.62644295 18.32269512 -8.12763839 20.24807697 -5.4453125 22.203125 C-3.40577327 23.70182795 -1.63393326 25.07390649 0 27 C0 27.66 0 28.32 0 29 C0.66 29 1.32 29 2 29 C2 32.63 2 36.26 2 40 C1.34 40 0.68 40 0 40 C-0.20625 40.598125 -0.4125 41.19625 -0.625 41.8125 C-2.67582223 45.07517173 -4.33464951 45.73608604 -8 47 C-12.01628081 47.29020868 -15.98496294 47.32469973 -20 47 C-21 46 -21 46 -21.09765625 44.15234375 C-21.06510417 42.1015625 -21.03255208 40.05078125 -21 38 C-20.01 38.33 -19.02 38.66 -18 39 C-16.04413253 39.19459037 -16.04413253 39.19459037 -14 39.1875 C-12.9790625 39.20876953 -12.9790625 39.20876953 -11.9375 39.23046875 C-9.67385868 39.10940411 -9.67385868 39.10940411 -7 37 C-6.31138171 34.60302248 -6.31138171 34.60302248 -7 32 C-9.27821802 29.66967869 -9.27821802 29.66967869 -12.25 27.625 C-16.90158305 24.0090976 -19.8590729 21.50524112 -22 16 C-22.63850079 10.80077929 -21.98183486 7.32846996 -19 3 C-13.65887684 -1.14209551 -6.42363182 -3.21181591 0 0 Z " fill="#1E449B" transform="translate(107,131)"/>
<path d="M0 0 C-0.01571045 0.97610229 -0.01571045 0.97610229 -0.03173828 1.97192383 C-0.07329835 4.9187433 -0.09932608 7.86550111 -0.125 10.8125 C-0.14175781 11.83666016 -0.15851563 12.86082031 -0.17578125 13.91601562 C-0.18544922 15.39038086 -0.18544922 15.39038086 -0.1953125 16.89453125 C-0.21102295 18.25348511 -0.21102295 18.25348511 -0.22705078 19.63989258 C-0.16165391 22.26936448 -0.16165391 22.26936448 2 25 C5.465 24.505 5.465 24.505 9 24 C9.33 16.41 9.66 8.82 10 1 C12.64 0.67 15.28 0.34 18 0 C18 10.56 18 21.12 18 32 C14.6175 32.0825 11.235 32.165 7.75 32.25 C6.69006836 32.28641602 5.63013672 32.32283203 4.53808594 32.36035156 C-2.38365573 32.44240663 -2.38365573 32.44240663 -5.546875 30.171875 C-8.22585615 26.1678064 -9.24645807 24.29028743 -9.1953125 19.45703125 C-9.18886719 18.38388672 -9.18242187 17.31074219 -9.17578125 16.20507812 C-9.15064453 14.52575195 -9.15064453 14.52575195 -9.125 12.8125 C-9.11597656 11.68134766 -9.10695312 10.55019531 -9.09765625 9.38476562 C-9.07406862 6.58963172 -9.041153 3.79492155 -9 1 C-5.8035914 -0.06546953 -3.34252724 -0.07427838 0 0 Z " fill="#274B9F" transform="translate(174,145)"/>
<path d="M0 0 C1.09570312 0.00902344 2.19140625 0.01804688 3.3203125 0.02734375 C4.16335937 0.03894531 5.00640625 0.05054688 5.875 0.0625 C5.875 2.3725 5.875 4.6825 5.875 7.0625 C4.71871094 7.20945313 4.71871094 7.20945313 3.5390625 7.359375 C2.53617188 7.50890625 1.53328125 7.6584375 0.5 7.8125 C-0.49773437 7.95171875 -1.49546875 8.0909375 -2.5234375 8.234375 C-5.20132679 8.81119348 -5.20132679 8.81119348 -6.45703125 10.82421875 C-7.21049064 13.34896862 -7.42557784 15.49020249 -7.4375 18.125 C-7.45425781 18.98222656 -7.47101563 19.83945313 -7.48828125 20.72265625 C-7.28482602 23.0838885 -7.28482602 23.0838885 -5.9609375 24.859375 C-3.38464439 26.54766921 -1.4864584 26.3576103 1.5625 26.25 C3.05330078 26.20939453 3.05330078 26.20939453 4.57421875 26.16796875 C5.33347656 26.13316406 6.09273437 26.09835938 6.875 26.0625 C7 28.9375 7 28.9375 6.875 32.0625 C4.22675491 34.71074509 2.81796725 34.42191487 -0.875 34.5 C-4.95590107 34.44604578 -7.6644747 34.30376941 -10.875 31.6875 C-13.125 29.0625 -13.125 29.0625 -13.125 27.0625 C-13.785 27.0625 -14.445 27.0625 -15.125 27.0625 C-16.58843456 24.13563088 -16.2954426 21.50796387 -16.3125 18.25 C-16.32667969 17.02667969 -16.34085937 15.80335938 -16.35546875 14.54296875 C-16.08603446 10.47405434 -15.50350275 7.54588882 -12.6875 4.515625 C-7.96099152 0.87621347 -5.93840487 -0.06317452 0 0 Z " fill="#3154A4" transform="translate(129.125,143.9375)"/>
<path d="M0 0 C0 12.54 0 25.08 0 38 C2.31 38.66 4.62 39.32 7 40 C7 41.98 7 43.96 7 46 C5.43645794 45.93927992 3.87400262 45.8503009 2.3125 45.75 C1.44238281 45.70359375 0.57226562 45.6571875 -0.32421875 45.609375 C-3.92115373 44.790219 -5.45845886 43.69487378 -8 41 C-8.44541608 37.90641768 -8.58638004 35.37807655 -8.48828125 32.296875 C-8.48120651 31.45908508 -8.47413177 30.62129517 -8.46684265 29.75811768 C-8.43890066 27.08782853 -8.37616613 24.41965292 -8.3125 21.75 C-8.28741671 19.93753033 -8.26460359 18.12502772 -8.24414062 16.3125 C-8.18907504 11.87418829 -8.10280667 7.43745219 -8 3 C-2.25 0 -2.25 0 0 0 Z " fill="#2B2825" transform="translate(119,48)"/>
<path d="M0 0 C1 1 1 1 1.125 4.5 C1 8 1 8 0 9 C-1.51469448 9.23192865 -3.03754562 9.41215238 -4.5625 9.5625 C-5.38878906 9.64628906 -6.21507812 9.73007813 -7.06640625 9.81640625 C-7.70449219 9.87699219 -8.34257812 9.93757812 -9 10 C-9.02505615 10.72179443 -9.0501123 11.44358887 -9.07592773 12.18725586 C-9.19151302 15.437535 -9.31440774 18.68749688 -9.4375 21.9375 C-9.47681641 23.07380859 -9.51613281 24.21011719 -9.55664062 25.38085938 C-9.59853516 26.46044922 -9.64042969 27.54003906 -9.68359375 28.65234375 C-9.73858032 30.15269165 -9.73858032 30.15269165 -9.79467773 31.68334961 C-10 34 -10 34 -11 35 C-13.31 35 -15.62 35 -18 35 C-18 24.44 -18 13.88 -18 3 C-14 1 -14 1 -11 1 C-11 2.32 -11 3.64 -11 5 C-10.113125 4.175 -9.22625 3.35 -8.3125 2.5 C-5.49744202 0.13855326 -3.75535725 -0.64377553 0 0 Z " fill="#2E52A2" transform="translate(160,143)"/>
<path d="M0 0 C0 0.99 0 1.98 0 3 C0.7734375 2.7215625 0.7734375 2.7215625 1.5625 2.4375 C4.85908739 1.84580483 7.72245735 2.432733 11 3 C10.01 3.66 9.02 4.32 8 5 C8 5.66 8 6.32 8 7 C6.35 7 4.7 7 3 7 C3 7.66 3 8.32 3 9 C2.01 9.495 2.01 9.495 1 10 C0.67 17.92 0.34 25.84 0 34 C-2.64 34.33 -5.28 34.66 -8 35 C-8 24.44 -8 13.88 -8 3 C-2 0 -2 0 0 0 Z " fill="#2A4EA0" transform="translate(206,143)"/>
<path d="M0 0 C4.01348214 -0.49144679 7.53184988 -0.8516893 11.12109375 1.23046875 C14.08183696 3.72340222 15.75656972 5.26970915 17 9 C17.22635971 12.10017698 17.18515463 15.20489136 17.1875 18.3125 C17.19974609 19.15490234 17.21199219 19.99730469 17.22460938 20.86523438 C17.23583755 25.6521811 16.856112 29.50278001 15 34 C12.36 34 9.72 34 7 34 C7.1097568 30.22856018 7.24041479 26.45812903 7.375 22.6875 C7.42140625 21.0797168 7.42140625 21.0797168 7.46875 19.43945312 C7.50742188 18.41142578 7.54609375 17.38339844 7.5859375 16.32421875 C7.6173584 15.37635498 7.6487793 14.42849121 7.68115234 13.4519043 C8 11 8 11 10 8 C9.34 8 8.68 8 8 8 C8 7.34 8 6.68 8 6 C7.34 6 6.68 6 6 6 C6 5.34 6 4.68 6 4 C4.68 3.67 3.36 3.34 2 3 C3.98 3 5.96 3 8 3 C8 2.34 8 1.68 8 1 C3.545 1.495 3.545 1.495 -1 2 C-0.67 1.34 -0.34 0.68 0 0 Z " fill="#4766AD" transform="translate(226,144)"/>
<path d="M0 0 C4.62 0 9.24 0 14 0 C14 10.56 14 21.12 14 32 C11.36 32 8.72 32 6 32 C6 23.09 6 14.18 6 5 C4.02 5 2.04 5 0 5 C0 3.35 0 1.7 0 0 Z " fill="#282421" transform="translate(90,61)"/>
<path d="M0 0 C3.5622231 -0.11654436 7.12395342 -0.1873639 10.6875 -0.25 C12.19860352 -0.30027344 12.19860352 -0.30027344 13.74023438 -0.3515625 C21.2054523 -0.45011323 21.2054523 -0.45011323 25.171875 1.796875 C27 4 27 4 27.5625 7.5 C27 11 27 11 25.375 13.3125 C19.77199163 17.2935849 14.04628466 17.31133443 7.4375 17.25 C6.60025391 17.25773437 5.76300781 17.26546875 4.90039062 17.2734375 C0.4911976 17.25947331 -2.99157452 17.06569166 -7 15 C-6.67 13.68 -6.34 12.36 -6 11 C-2.92643736 10.09601099 -1.32464082 9.88932699 1.75 10.9375 C6.50412996 12.49173479 11.60958547 13.06788278 16.2734375 10.984375 C16.84320313 10.65953125 17.41296875 10.3346875 18 10 C18 8.68 18 7.36 18 6 C10.74 5.67 3.48 5.34 -4 5 C-4 4.67 -4 4.34 -4 4 C-3.09906616 3.96241577 -3.09906616 3.96241577 -2.17993164 3.92407227 C0.52611437 3.8084472 3.23178283 3.68557064 5.9375 3.5625 C6.88302734 3.52318359 7.82855469 3.48386719 8.80273438 3.44335938 C9.70185547 3.40146484 10.60097656 3.35957031 11.52734375 3.31640625 C12.77632446 3.26141968 12.77632446 3.26141968 14.05053711 3.20532227 C16.00338858 3.20632897 16.00338858 3.20632897 17 2 C11.39 1.67 5.78 1.34 0 1 C0 0.67 0 0.34 0 0 Z " fill="#25201D" transform="translate(61,88)"/>
<path d="M0 0 C1.67542976 0.28604898 3.34385343 0.61781233 5 1 C5 1.99 5 2.98 5 4 C4.34 4 3.68 4 3 4 C3.32097656 4.56847656 3.64195313 5.13695313 3.97265625 5.72265625 C5.66143535 9.46622361 5.65334738 12.97940074 5 17 C2.90548756 20.51578873 1.17997851 21.68244204 -2.7578125 22.7421875 C-8.18646426 23.73539948 -13.48868603 24.25051427 -19 24 C-18.67 22.68 -18.34 21.36 -18 20 C-15.03 20.33 -12.06 20.66 -9 21 C-9 20.34 -9 19.68 -9 19 C-8.360625 18.71125 -7.72125 18.4225 -7.0625 18.125 C-4.84793921 17.17176549 -4.84793921 17.17176549 -4 15 C-3.66666667 12 -3.66666667 12 -4 9 C-4.99 8.34 -5.98 7.68 -7 7 C-7 6.34 -7 5.68 -7 5 C-9.31 5 -11.62 5 -14 5 C-14 4.34 -14 3.68 -14 3 C-15.32 2.67 -16.64 2.34 -18 2 C-16.17662109 1.90912109 -16.17662109 1.90912109 -14.31640625 1.81640625 C-12.73175772 1.73201668 -11.14712298 1.6473679 -9.5625 1.5625 C-8.76005859 1.52318359 -7.95761719 1.48386719 -7.13085938 1.44335938 C-3.24760439 1.5945704 -3.24760439 1.5945704 0 0 Z " fill="#201B19" transform="translate(81,60)"/>
<path d="M0 0 C3.78786597 0.5260925 6.17152224 1.38103911 9 4 C9 4.66 9 5.32 9 6 C10.98 5.67 12.96 5.34 15 5 C17.67927341 9.01891012 17.15601248 11.24161923 17 16 C17.66 16 18.32 16 19 16 C19 13.03 19 10.06 19 7 C19.33 7 19.66 7 20 7 C20 10.63 20 14.26 20 18 C19.34 18 18.68 18 18 18 C17.690625 18.8971875 17.690625 18.8971875 17.375 19.8125 C15.32417777 23.07517173 13.66535049 23.73608604 10 25 C5.98371919 25.29020868 2.01503706 25.32469973 -2 25 C-3 24 -3 24 -3.09765625 22.15234375 C-3.06510417 20.1015625 -3.03255208 18.05078125 -3 16 C-2.01 16.33 -1.02 16.66 0 17 C1.95586747 17.19459037 1.95586747 17.19459037 4 17.1875 C5.0209375 17.20876953 5.0209375 17.20876953 6.0625 17.23046875 C8.32614132 17.10940411 8.32614132 17.10940411 11 15 C11.70987185 12.61957705 11.70987185 12.61957705 11 10 C8.59357435 7.46248137 8.59357435 7.46248137 5.5 5.25 C3.65770007 3.84501369 1.82182604 2.43143475 0 1 C0 0.67 0 0.34 0 0 Z " fill="#22479C" transform="translate(89,153)"/>
<path d="M0 0 C0 10.56 0 21.12 0 32 C-2.31 32 -4.62 32 -7 32 C-7.66 31.34 -8.32 30.68 -9 30 C-8.34 30 -7.68 30 -7 30 C-7 20.76 -7 11.52 -7 2 C-2 0 -2 0 0 0 Z " fill="#183F98" transform="translate(192,145)"/>
<path d="M0 0 C3.32404988 0.17954722 4.81697098 0.41050585 7.6875 2.1875 C9.47091979 5.26795237 9.57436027 7.05260104 9.0625 10.5625 C8.0625 12.875 8.0625 12.875 6.0625 14.5625 C1.72438822 15.61204317 -0.66906207 15.99430866 -4.875 14.5625 C-6.9375 12.5625 -6.9375 12.5625 -7.9375 9.1875 C-7.9375 5.5625 -7.9375 5.5625 -7.125 2.625 C-4.50729585 0.15687895 -3.51573003 0.15556328 0 0 Z " fill="#F6F6F6" transform="translate(68.9375,64.4375)"/>
<path d="M0 0 C1.75570312 0.04060547 1.75570312 0.04060547 3.546875 0.08203125 C4.43890625 0.11683594 5.3309375 0.15164062 6.25 0.1875 C6.25 3.1575 6.25 6.1275 6.25 9.1875 C1.3068646 12.22942948 -3.05920875 13.02214938 -8.75 12.1875 C-9.74 11.5275 -10.73 10.8675 -11.75 10.1875 C-11.2626183 3.72969243 -11.2626183 3.72969243 -9.125 1.46875 C-5.94929073 -0.24446158 -3.585565 -0.10756695 0 0 Z " fill="#F6F6F6" transform="translate(33.75,76.8125)"/>
<path d="M0 0 C2.83408381 1.36836489 3.91112879 2.51593693 6 5 C6 6.32 6 7.64 6 9 C-1.59 9 -9.18 9 -17 9 C-16 4 -16 4 -14.125 1.6875 C-9.46204574 -0.8304953 -5.18428285 -0.88678523 0 0 Z " fill="#D9D8D7" transform="translate(153,65)"/>
<path d="M0 0 C0.33 0 0.66 0 1 0 C1.66 1.98 2.32 3.96 3 6 C10.26 6.33 17.52 6.66 25 7 C25.33 8.65 25.66 10.3 26 12 C21.450819 15.52194658 17.5093517 15.64186622 12 15 C7.14540912 14.08114999 3.92363561 13.25950311 0.9375 9.1875 C-0.01781784 5.93941934 -0.24037503 3.36525038 0 0 Z " fill="#E1E1E1" transform="translate(54,86)"/>
<path d="M0 0 C0.33 0.66 0.66 1.32 1 2 C-0.41152344 2.07347656 -0.41152344 2.07347656 -1.8515625 2.1484375 C-3.71941406 2.26058594 -3.71941406 2.26058594 -5.625 2.375 C-6.85476562 2.44460937 -8.08453125 2.51421875 -9.3515625 2.5859375 C-12.83653855 2.9814487 -15.73049601 3.76261849 -19 5 C-17.35 5.33 -15.7 5.66 -14 6 C-14.33 6.66 -14.66 7.32 -15 8 C-15.66 8 -16.32 8 -17 8 C-17 10.31 -17 12.62 -17 15 C-14.70370006 16.14814997 -12.92301914 16.30769809 -10.375 16.5625 C-9.55773437 16.64628906 -8.74046875 16.73007813 -7.8984375 16.81640625 C-6.95871094 16.90728516 -6.95871094 16.90728516 -6 17 C-6 17.33 -6 17.66 -6 18 C-6.92683594 17.98839844 -7.85367188 17.97679688 -8.80859375 17.96484375 C-10.60490234 17.95130859 -10.60490234 17.95130859 -12.4375 17.9375 C-13.63246094 17.92589844 -14.82742187 17.91429688 -16.05859375 17.90234375 C-18.88873341 17.66098208 -18.88873341 17.66098208 -20 19 C-16.71480525 20.09506492 -14.26336585 20.09960608 -10.8125 20.0625 C-9.72582031 20.05347656 -8.63914062 20.04445313 -7.51953125 20.03515625 C-6.68808594 20.02355469 -5.85664062 20.01195313 -5 20 C-7.66484365 22.66484365 -9.09879828 22.32920836 -12.8125 22.375 C-16.80715077 22.31280783 -18.62199446 22.21924321 -22.125 20.1875 C-25.50403482 16.24529272 -26.32923944 14.15808456 -26 9 C-25.67 8.34 -25.34 7.68 -25 7 C-24.34 7 -23.68 7 -23 7 C-23 6.34 -23 5.68 -23 5 C-18.31537889 0.66238786 -12.8110701 0.83810739 -6.6875 0.4375 C-4.80611328 0.31181641 -4.80611328 0.31181641 -2.88671875 0.18359375 C-1.93410156 0.12300781 -0.98148438 0.06242187 0 0 Z " fill="#34302E" transform="translate(40,72)"/>
<path d="M0 0 C2.81374263 1.94797566 3.79326562 3.10415102 4.5625 6.4375 C3.72101232 10.27094386 2.14799562 11.72272657 -1 14 C-4.6875 14 -4.6875 14 -8 13 C-10.46324069 9.30513897 -10.38991688 7.36706908 -10 3 C-7.7773391 -1.05308751 -4.20075589 -0.5158823 0 0 Z " fill="#F8A039" transform="translate(215,120)"/>
<path d="M0 0 C0.33 0 0.66 0 1 0 C1.90954127 8.67432874 1.90954127 8.67432874 -0.1953125 11.7421875 C-5.81708032 16.51645263 -11.46840673 16.18221638 -18.4375 16.1875 C-19.28376953 16.19974609 -20.13003906 16.21199219 -21.00195312 16.22460938 C-25.41856446 16.23498513 -29.03075543 16.17964297 -33 14 C-33.66 13.34 -34.32 12.68 -35 12 C-34.625 9.875 -34.625 9.875 -34 8 C-34 8.66 -34 9.32 -34 10 C-29.22049727 11.20950681 -24.52305788 11.21967147 -19.625 11.25 C-18.8 11.270625 -17.975 11.29125 -17.125 11.3125 C-11.63434341 11.34736131 -7.86372074 10.5889573 -3 8 C-0.4345406 5.4345406 -0.45953913 3.52313332 0 0 Z " fill="#E7E7E7" transform="translate(88,93)"/>
<path d="M0 0 C2.51235884 1.32229412 4.55434266 2.42701199 6.3125 4.6875 C7 7 7 7 7 15 C-2.9 15 -12.8 15 -23 15 C-23.33 15.99 -23.66 16.98 -24 18 C-24 16.68 -24 15.36 -24 14 C-11.625 13.505 -11.625 13.505 1 13 C-7.25 12.67 -15.5 12.34 -24 12 C-23.67 10.68 -23.34 9.36 -23 8 C-23 8.99 -23 9.98 -23 11 C-15.41 11 -7.82 11 0 11 C-1.77842999 6.55392503 -2.64414533 5.0202692 -6 2 C-4.02 2 -2.04 2 0 2 C0 1.34 0 0.68 0 0 Z " fill="#322E2C" transform="translate(159,63)"/>
<path d="M0 0 C2.46324069 3.69486103 2.38991688 5.63293092 2 10 C0.9375 12 0.9375 12 -1 13 C-5.18333056 12.77589301 -7.49223439 12.3385104 -11 10 C-11.54337501 6.42924991 -11.43720456 4.66455094 -9.4375 1.625 C-6.11372447 -0.59085036 -3.91105046 -0.50698802 0 0 Z " fill="#F79727" transform="translate(222,104)"/>
<path d="M0 0 C2.44897847 3.67346771 2.31537716 5.66356399 2 10 C0 12 0 12 -3.4375 12.3125 C-7 12 -7 12 -8.9375 10.9375 C-10.63335287 7.84506242 -10.43060657 5.44485259 -10 2 C-7.01983499 -1.66789539 -4.31348256 -1.31279904 0 0 Z " fill="#B91E3C" transform="translate(102,101)"/>
<path d="M0 0 C1.875 1.0625 1.875 1.0625 3 3 C3.36841966 6.43858351 3.58367385 8.90131981 1.9375 12 C-1.19442656 13.61647822 -3.67185286 12.78665296 -7 12 C-9 10 -9 10 -9.3125 6.5625 C-9 3 -9 3 -7.875 1.0625 C-5.11019567 -0.50422245 -3.11811483 -0.38976435 0 0 Z " fill="#B51331" transform="translate(101,40)"/>
<path d="M0 0 C0.33 0.66 0.66 1.32 1 2 C1.66 2 2.32 2 3 2 C3 3.32 3 4.64 3 6 C3.66 6 4.32 6 5 6 C6 7 7 8 8 9 C8.66 9 9.32 9 10 9 C10 8.34 10 7.68 10 7 C16.435 6.505 16.435 6.505 23 6 C23 7.98 23 9.96 23 12 C20.35175491 14.64824509 18.94296725 14.35941487 15.25 14.4375 C11.16909893 14.38354578 8.4605253 14.24126941 5.25 11.625 C3 9 3 9 3 7 C2.34 7 1.68 7 1 7 C0.67 4.69 0.34 2.38 0 0 Z " fill="#264A9E" transform="translate(113,164)"/>
<path d="M0 0 C0.66 0 1.32 0 2 0 C2.33 8.91 2.66 17.82 3 27 C3.66 27.33 4.32 27.66 5 28 C5 21.07 5 14.14 5 7 C5.66 6.67 6.32 6.34 7 6 C7 13.92 7 21.84 7 30 C4.69 30.33 2.38 30.66 0 31 C0 20.77 0 10.54 0 0 Z " fill="#173E97" transform="translate(198,147)"/>
<path d="M0 0 C1.13211914 -0.02416992 1.13211914 -0.02416992 2.28710938 -0.04882812 C5.6966802 -0.05183215 8.00876652 0.05472979 10.96484375 1.83203125 C11.69380859 2.56486328 11.69380859 2.56486328 12.4375 3.3125 C8.31872311 6.28673965 5.52866786 6.62314029 0.5 6.4375 C-4.03060353 6.28960217 -8.10960349 6.42871901 -12.5625 7.3125 C-12.8925 5.6625 -13.2225 4.0125 -13.5625 2.3125 C-9.01374532 0.04264429 -4.96808607 -0.02132226 0 0 Z " fill="#1D1815" transform="translate(30.5625,60.6875)"/>
<path d="M0 0 C1.05380859 0.73089844 1.05380859 0.73089844 2.12890625 1.4765625 C6.89161291 4.00371297 11.73357577 3.56451495 17 3 C20.3850877 1.56000293 20.3850877 1.56000293 23 0 C25.375 0.3125 25.375 0.3125 27 1 C27 1.66 27 2.32 27 3 C29.64 3.33 32.28 3.66 35 4 C35.33 3.01 35.66 2.02 36 1 C35.67 2.98 35.34 4.96 35 7 C31.46126303 7.07077474 28.18316823 7.03110404 24.6875 6.4375 C22.03806674 5.73716842 22.03806674 5.73716842 20 7 C17.54306092 7.20353342 15.14757347 7.32340647 12.6875 7.375 C10.71330078 7.44847656 10.71330078 7.44847656 8.69921875 7.5234375 C4.17732188 6.88359148 2.76060113 5.55620957 0 2 C0 1.34 0 0.68 0 0 Z " fill="#D3D3D3" transform="translate(16,90)"/>
<path d="M0 0 C1.875 1.125 1.875 1.125 3 3 C3.42478586 7.07794425 3.31282587 8.53076119 1 12 C-3.34586828 12.39507893 -5.32003497 12.45331002 -9 10 C-9.37331109 6.57798172 -9.63763183 4.09814371 -7.875 1.0625 C-5.11019567 -0.50422245 -3.11811483 -0.38976435 0 0 Z " fill="#F79D34" transform="translate(233,95)"/>
<path d="M0 0 C1.67045036 0.31382238 3.33596329 0.6537765 5 1 C8.82342746 1.48516455 12.66042234 1.85585065 16.49414062 2.25 C17.27080078 2.3325 18.04746094 2.415 18.84765625 2.5 C19.54898682 2.5721875 20.25031738 2.644375 20.97290039 2.71875 C23.03415752 3.00473919 24.99191082 3.45917643 27 4 C22.3277384 7.62866218 18.15090013 7.4206719 12.5 7.3125 C11.65824219 7.31572266 10.81648438 7.31894531 9.94921875 7.32226562 C5.53506992 7.28403284 2.01071446 7.06288797 -2 5 C-1.125 1.125 -1.125 1.125 0 0 Z " fill="#120D0A" transform="translate(56,98)"/>
<path d="M0 0 C0.66 0 1.32 0 2 0 C4.17257899 4.37091978 4.26968948 8.40753271 4.1875 13.1875 C4.18685547 13.91130859 4.18621094 14.63511719 4.18554688 15.38085938 C4.14086152 20.71827696 4.14086152 20.71827696 3 23 C3.66 23 4.32 23 5 23 C5 16.07 5 9.14 5 2 C5.66 2 6.32 2 7 2 C7 9.59 7 17.18 7 25 C5.02 25 3.04 25 1 25 C0.67 16.75 0.34 8.5 0 0 Z " fill="#0E3794" transform="translate(216,152)"/>
<path d="M0 0 C2.375 1.6875 2.375 1.6875 4 4 C3.93060898 6.84503183 3.32943496 8.45094174 1.875 10.875 C-1.1533568 12.69201408 -3.68151162 11.73744186 -7 11 C-8 10 -8 10 -8.25 6.625 C-8 3 -8 3 -6.8125 1.0625 C-4.29445572 -0.41359492 -2.87523324 -0.49089348 0 0 Z " fill="#F8A23E" transform="translate(248,92)"/>
<path d="M0 0 C1.19328049 2.38656097 0.97850908 3.6118017 0.8125 6.25 C0.72643342 11.09320103 1.96575454 13.30201335 5 17 C4.34 17 3.68 17 3 17 C3 17.66 3 18.32 3 19 C2.01 19.33 1.02 19.66 0 20 C-0.66 18.68 -1.32 17.36 -2 16 C-2.66 16 -3.32 16 -4 16 C-4 14.68 -4 13.36 -4 12 C-4.66 12 -5.32 12 -6 12 C-6.625 8.625 -6.625 8.625 -7 5 C-4.84365964 2.84365964 -2.62901288 1.52206009 0 0 Z " fill="#173E98" transform="translate(120,154)"/>
<path d="M0 0 C0.66 0.33 1.32 0.66 2 1 C2 4.96 2 8.92 2 13 C-7.9 13 -17.8 13 -28 13 C-28.33 13.66 -28.66 14.32 -29 15 C-29 13.35 -29 11.7 -29 10 C-19.1 10 -9.2 10 1 10 C0.505 5.05 0.505 5.05 0 0 Z " fill="#CBCBCA" transform="translate(165,68)"/>
<path d="M0 0 C2 2 2 2 2.22705078 4.33837891 C2.21134033 5.76802979 2.21134033 5.76802979 2.1953125 7.2265625 C2.18564453 8.7734375 2.18564453 8.7734375 2.17578125 10.3515625 C2.15902344 11.43179688 2.14226562 12.51203125 2.125 13.625 C2.11597656 14.71296875 2.10695312 15.8009375 2.09765625 16.921875 C2.07403409 19.61480152 2.04109556 22.30729255 2 25 C-0.64 25 -3.28 25 -6 25 C-5.34 18.4 -4.68 11.8 -4 5 C-3.34 5 -2.68 5 -2 5 C-1.97300275 7.27076842 -1.95360547 9.54162821 -1.9375 11.8125 C-1.92589844 13.07707031 -1.91429687 14.34164062 -1.90234375 15.64453125 C-2 19 -2 19 -3 22 C-2.34 22.33 -1.68 22.66 -1 23 C-0.67 15.41 -0.34 7.82 0 0 Z " fill="#133A96" transform="translate(240,152)"/>
<path d="M0 0 C0.66 0 1.32 0 2 0 C1.51319648 6.45014663 1.51319648 6.45014663 -0.75 8.875 C-5.58838836 11.29419418 -10.68904899 11.1826006 -16 11.1875 C-16.69867188 11.19974609 -17.39734375 11.21199219 -18.1171875 11.22460938 C-22.19924218 11.23616236 -25.32969817 10.81364524 -29 9 C-29 8.01 -29 7.02 -29 6 C-29.66 6 -30.32 6 -31 6 C-30.67 5.34 -30.34 4.68 -30 4 C-29.18660156 4.48855469 -28.37320313 4.97710937 -27.53515625 5.48046875 C-23.2689193 7.31424353 -20.01112612 7.41236083 -15.4375 7.3125 C-14.3247168 7.31733398 -14.3247168 7.31733398 -13.18945312 7.32226562 C-9.0599285 7.28181614 -5.7148204 7.00572052 -2 5 C-0.46718526 2.67626954 -0.46718526 2.67626954 0 0 Z " fill="#DBDBDB" transform="translate(164,86)"/>
<path d="M0 0 C0.75 1.75 0.75 1.75 1 4 C-1.39083771 7.09923407 -3.2194114 8.28683853 -7 9 C-9.85204523 9.21062019 -12.70337525 9.18508724 -15.5625 9.1875 C-16.71395508 9.20586914 -16.71395508 9.20586914 -17.88867188 9.22460938 C-21.78417874 9.23479815 -23.6866199 9.20892006 -27 7 C-21.72 7 -16.44 7 -11 7 C-10.67 6.34 -10.34 5.68 -10 5 C-13.3 5 -16.6 5 -20 5 C-20.33 4.34 -20.66 3.68 -21 3 C-20.28714844 3.03480469 -19.57429687 3.06960937 -18.83984375 3.10546875 C-11.88409858 3.30206451 -6.35958662 0 0 0 Z " fill="#4F4C4A" transform="translate(164,85)"/>
<path d="M0 0 C0 1.84148145 -0.02856994 3.68356236 -0.10546875 5.5234375 C-0.38042089 12.75760587 -0.38042089 12.75760587 3 19 C3.33 19.66 3.66 20.32 4 21 C3.67 21.66 3.34 22.32 3 23 C2.34 23 1.68 23 1 23 C0.67 21.68 0.34 20.36 0 19 C-0.66 19 -1.32 19 -2 19 C-1.79375 20.11375 -1.5875 21.2275 -1.375 22.375 C-1.25125 23.57125 -1.1275 24.7675 -1 26 C-3 28 -3 28 -6.3125 28.1875 C-9.34749675 28.03317813 -12.05721919 27.71340141 -15 27 C-15.33 25.02 -15.66 23.04 -16 21 C-14.96875 21.474375 -13.9375 21.94875 -12.875 22.4375 C-9.61465838 23.84522388 -6.53948917 24.56835498 -3 25 C-3 23.02 -3 21.04 -3 19 C-4.32 18.67 -5.64 18.34 -7 18 C-5.35 17.67 -3.7 17.34 -2 17 C-2.02320312 15.94039062 -2.04640625 14.88078125 -2.0703125 13.7890625 C-2.08906944 12.4010487 -2.10726972 11.0130273 -2.125 9.625 C-2.14175781 8.92632812 -2.15851563 8.22765625 -2.17578125 7.5078125 C-2.19344267 5.67102514 -2.10303261 3.83398037 -2 2 C-1.34 1.34 -0.68 0.68 0 0 Z " fill="#C3C3C2" transform="translate(129,69)"/>
<path d="M0 0 C0.33 11.22 0.66 22.44 1 34 C-1.98594424 35.49297212 -4.70853624 35.11755228 -8 35 C-8.66 34.67 -9.32 34.34 -10 34 C-11.70702735 33.93003986 -13.41668003 33.91559846 -15.125 33.9375 C-16.03507813 33.94652344 -16.94515625 33.95554688 -17.8828125 33.96484375 C-18.58148438 33.97644531 -19.28015625 33.98804688 -20 34 C-20 33.67 -20 33.34 -20 33 C-18.14690227 32.80221453 -16.29242889 32.61730292 -14.4375 32.4375 C-12.88869141 32.28087891 -12.88869141 32.28087891 -11.30859375 32.12109375 C-8 32 -8 32 -1 33 C-1 22.44 -1 11.88 -1 1 C-1.99 1.495 -1.99 1.495 -3 2 C-4.98 2 -6.96 2 -9 2 C-9 9.59 -9 17.18 -9 25 C-9.33 25 -9.66 25 -10 25 C-10 17.08 -10 9.16 -10 1 C-4 0 -4 0 0 0 Z " fill="#B8C5E0" transform="translate(193,144)"/>
<path d="M0 0 C1.32 0 2.64 0 4 0 C4.33 0.99 4.66 1.98 5 3 C11.6 3.33 18.2 3.66 25 4 C20.49750054 7.37687459 20.49750054 7.37687459 16.05078125 7.328125 C14.65569336 7.32039063 14.65569336 7.32039063 13.23242188 7.3125 C12.26884766 7.291875 11.30527344 7.27125 10.3125 7.25 C9.33732422 7.24484375 8.36214844 7.2396875 7.35742188 7.234375 C0.1541718 7.1541718 0.1541718 7.1541718 -1 6 C-1.125 3.5 -1.125 3.5 -1 1 C-0.67 0.67 -0.34 0.34 0 0 Z " fill="#0F0A07" transform="translate(56,85)"/>
<path d="M0 0 C1 1 1 1 1.125 4.5 C1 8 1 8 0 9 C-2.65463121 9.45459858 -5.32189138 9.70243238 -8 10 C-8.33 9.34 -8.66 8.68 -9 8 C-8.67 7.34 -8.34 6.68 -8 6 C-9.32 6 -10.64 6 -12 6 C-12 4.68 -12 3.36 -12 2 C-12.66 1.67 -13.32 1.34 -14 1 C-13.01 1 -12.02 1 -11 1 C-11 2.32 -11 3.64 -11 5 C-10.113125 4.175 -9.22625 3.35 -8.3125 2.5 C-5.49744202 0.13855326 -3.75535725 -0.64377553 0 0 Z " fill="#4F6BB0" transform="translate(160,143)"/>
<path d="M0 0 C2.5625 0.25 2.5625 0.25 5.5625 2.25 C5.75 5.875 5.75 5.875 5.5625 9.25 C2.79999964 10.63125018 0.61518901 10.44079306 -2.4375 10.25 C-4.4375 8.25 -4.4375 8.25 -4.6875 5.25 C-4.37752366 1.53028393 -3.8002894 0.38977327 0 0 Z " fill="#F79A2F" transform="translate(260.4375,96.75)"/>
<path d="M0 0 C2.5625 0.3125 2.5625 0.3125 4.375 1.4375 C6.05356106 4.08785957 5.76700238 6.24496424 5.5625 9.3125 C-0.4921875 10.2890625 -0.4921875 10.2890625 -2.4375 10.3125 C-4.4375 8.3125 -4.4375 8.3125 -4.6875 5.3125 C-4.37675292 1.58353509 -3.7821044 0.48488518 0 0 Z " fill="#BA2743" transform="translate(83.4375,116.6875)"/>
<path d="M0 0 C2.5 0.25 2.5 0.25 4.5 2.25 C4.75 5.25 4.75 5.25 4.5 8.25 C2.5 10.25 2.5 10.25 0.0625 10.5625 C-2.5 10.25 -2.5 10.25 -4.375 9.0625 C-5.5 7.25 -5.5 7.25 -5.3125 4.6875 C-4.22827241 1.43481722 -3.47807945 0.34780795 0 0 Z " fill="#B71E3C" transform="translate(112.5,25.75)"/>
<path d="M0 0 C3.62493334 -0.05787784 7.24974857 -0.0935542 10.875 -0.125 C11.90753906 -0.14175781 12.94007812 -0.15851563 14.00390625 -0.17578125 C14.99003906 -0.18222656 15.97617188 -0.18867187 16.9921875 -0.1953125 C18.35899658 -0.21102295 18.35899658 -0.21102295 19.75341797 -0.22705078 C22 0 22 0 24 2 C23.34 2.66 22.68 3.32 22 4 C21.28072705 6.31765729 20.6090107 8.65095874 20 11 C19.01 11 18.02 11 17 11 C17.33 9.35 17.66 7.7 18 6 C10.74 5.67 3.48 5.34 -4 5 C-4 4.67 -4 4.34 -4 4 C-3.39937744 3.97494385 -2.79875488 3.9498877 -2.17993164 3.92407227 C0.52611437 3.8084472 3.23178283 3.68557064 5.9375 3.5625 C6.88302734 3.52318359 7.82855469 3.48386719 8.80273438 3.44335938 C9.70185547 3.40146484 10.60097656 3.35957031 11.52734375 3.31640625 C12.77632446 3.26141968 12.77632446 3.26141968 14.05053711 3.20532227 C16.00338858 3.20632897 16.00338858 3.20632897 17 2 C11.39 1.67 5.78 1.34 0 1 C0 0.67 0 0.34 0 0 Z " fill="#423F3D" transform="translate(61,88)"/>
<path d="M0 0 C1.9375 0.3125 1.9375 0.3125 4 1 C4.94137255 3.82411765 5.11725382 5.52918032 5.09765625 8.44921875 C5.09282227 9.72055664 5.09282227 9.72055664 5.08789062 11.01757812 C5.07951172 11.89865234 5.07113281 12.77972656 5.0625 13.6875 C5.05798828 14.58017578 5.05347656 15.47285156 5.04882812 16.39257812 C5.03704983 18.59511987 5.02060164 20.79752599 5 23 C4.67 23 4.34 23 4 23 C3.67 17.06 3.34 11.12 3 5 C2.71164632 10.41432809 2.71164632 10.41432809 2.43188477 15.82910156 C2.39377686 16.5094043 2.35566895 17.18970703 2.31640625 17.890625 C2.27974854 18.58188477 2.24309082 19.27314453 2.20532227 19.98535156 C1.99324476 22.06628329 1.55491323 23.98572422 1 26 C0.01 25.67 -0.98 25.34 -2 25 C-1.505 23.515 -1.505 23.515 -1 22 C-0.85222064 20.30132812 -0.75252934 18.59822511 -0.68359375 16.89453125 C-0.62075195 15.42016602 -0.62075195 15.42016602 -0.55664062 13.91601562 C-0.51732422 12.89185547 -0.47800781 11.86769531 -0.4375 10.8125 C-0.39431641 9.77673828 -0.35113281 8.74097656 -0.30664062 7.67382812 C-0.20055634 5.1160181 -0.09849854 2.55811155 0 0 Z " fill="#3D5EA9" transform="translate(238,149)"/>
<path d="M0 0 C1.75570312 0.04060547 1.75570312 0.04060547 3.546875 0.08203125 C4.43890625 0.11683594 5.3309375 0.15164062 6.25 0.1875 C6.25 3.1575 6.25 6.1275 6.25 9.1875 C5.92 9.1875 5.59 9.1875 5.25 9.1875 C5.25 7.2075 5.25 5.2275 5.25 3.1875 C-0.69 3.6825 -0.69 3.6825 -6.75 4.1875 C-6.75 4.8475 -6.75 5.5075 -6.75 6.1875 C-7.74 6.6825 -7.74 6.6825 -8.75 7.1875 C-8.75 8.5075 -8.75 9.8275 -8.75 11.1875 C-9.74 10.8575 -10.73 10.5275 -11.75 10.1875 C-11.2626183 3.72969243 -11.2626183 3.72969243 -9.125 1.46875 C-5.94929073 -0.24446158 -3.585565 -0.10756695 0 0 Z " fill="#C2C2C2" transform="translate(33.75,76.8125)"/>
<path d="M0 0 C2.06723714 3.10085571 2.24497423 3.72931681 2.1953125 7.23046875 C2.18886719 8.03291016 2.18242187 8.83535156 2.17578125 9.66210938 C2.15902344 10.49548828 2.14226562 11.32886719 2.125 12.1875 C2.11597656 13.03248047 2.10695312 13.87746094 2.09765625 14.74804688 C2.07410703 16.83215243 2.03823647 18.91611217 2 21 C2.66 21 3.32 21 4 21 C4 14.73 4 8.46 4 2 C4.33 2 4.66 2 5 2 C5.33 8.93 5.66 15.86 6 23 C4.02 23 2.04 23 0 23 C0 15.41 0 7.82 0 0 Z " fill="#083090" transform="translate(143,154)"/>
<path d="M0 0 C2.625 0.1875 2.625 0.1875 5.625 2.1875 C4.875 6.9375 4.875 6.9375 2.625 9.1875 C-0.67214793 8.85778521 -1.9976839 8.5648161 -4.375 6.1875 C-3.65562216 0.28860175 -3.65562216 0.28860175 0 0 Z " fill="#F8A03A" transform="translate(271.375,108.8125)"/>
<path d="M0 0 C0.99 0 1.98 0 3 0 C2.90656397 4.66344559 2.80049386 9.32636586 2.68261719 13.98925781 C2.64429415 15.57609138 2.60944712 17.16301281 2.578125 18.75 C2.53254569 21.02896566 2.47454162 23.30732468 2.4140625 25.5859375 C2.40251129 26.29744965 2.39096008 27.00896179 2.37905884 27.74203491 C2.22774341 32.77225659 2.22774341 32.77225659 0 35 C0 23.45 0 11.9 0 0 Z " fill="#090604" transform="translate(112,51)"/>
<path d="M0 0 C0.33 0 0.66 0 1 0 C1.66 1.98 2.32 3.96 3 6 C10.26 6.33 17.52 6.66 25 7 C24.67 7.66 24.34 8.32 24 9 C14.595 9.495 14.595 9.495 5 10 C5 10.66 5 11.32 5 12 C4.34 12 3.68 12 3 12 C0.58314288 7.77050005 -0.34833144 4.87664009 0 0 Z " fill="#CACACB" transform="translate(54,86)"/>
<path d="M0 0 C0.33 0.66 0.66 1.32 1 2 C5.67554314 3.46574567 10.65021374 3.14728079 15.5 3.125 C16.34175781 3.12886719 17.18351562 3.13273437 18.05078125 3.13671875 C22.16268987 3.1302433 25.99018972 3.03531987 30 2 C28.6875 3.9765625 28.6875 3.9765625 26 6 C22.32901898 6.57128102 18.70644885 6.46598518 15 6.375 C14.00226563 6.37371094 13.00453125 6.37242188 11.9765625 6.37109375 C3.91021878 6.27377861 3.91021878 6.27377861 0 4 C0 2.68 0 1.36 0 0 Z " fill="#CCCCCD" transform="translate(53,101)"/>
<path d="M0 0 C1.98 0 3.96 0 6 0 C6 8.91 6 17.82 6 27 C8.64 27 11.28 27 14 27 C13.67 28.32 13.34 29.64 13 31 C10.69 31 8.38 31 6 31 C4.59087904 28.18175808 4.88816447 25.82748718 4.90234375 22.6796875 C4.90556641 21.42285156 4.90878906 20.16601562 4.91210938 18.87109375 C4.92048828 17.55238281 4.92886719 16.23367187 4.9375 14.875 C4.94251511 13.53515789 4.94707799 12.195314 4.95117188 10.85546875 C4.96298914 7.57026794 4.97946383 4.28515603 5 1 C3.35 1 1.7 1 0 1 C0 0.67 0 0.34 0 0 Z " fill="#CBCACA" transform="translate(90,66)"/>
<path d="M0 0 C3.53571429 0.53571429 3.53571429 0.53571429 5 2 C5.04092937 4.33297433 5.04241723 6.66705225 5 9 C3.0085944 9.38133299 1.00720923 9.71325582 -1 10 C-2 9 -2 9 -2.1875 5.5625 C-2 2 -2 2 0 0 Z " fill="#DFD1D3" transform="translate(45,124)"/>
<path d="M0 0 C0 0.66 0 1.32 0 2 C-0.99 2 -1.98 2 -3 2 C-2.34 3.32 -1.68 4.64 -1 6 C-6.94 6 -12.88 6 -19 6 C-18.67 5.01 -18.34 4.02 -18 3 C-17.26394531 2.95101562 -16.52789062 2.90203125 -15.76953125 2.8515625 C-14.79371094 2.77679688 -13.81789063 2.70203125 -12.8125 2.625 C-11.84957031 2.55539063 -10.88664062 2.48578125 -9.89453125 2.4140625 C-6.43815277 1.91962779 -3.4332943 0 0 0 Z " fill="#BEBEBE" transform="translate(80,82)"/>
<path d="M0 0 C1.05960938 0.00676758 1.05960938 0.00676758 2.140625 0.01367188 C3.88545275 0.02546125 5.630237 0.04339676 7.375 0.0625 C7.375 0.3925 7.375 0.7225 7.375 1.0625 C2.92 1.5575 2.92 1.5575 -1.625 2.0625 C-1.625 2.7225 -1.625 3.3825 -1.625 4.0625 C-2.615 4.0625 -3.605 4.0625 -4.625 4.0625 C-5.615 7.3625 -6.605 10.6625 -7.625 14.0625 C-7.955 14.0625 -8.285 14.0625 -8.625 14.0625 C-8.625 11.0925 -8.625 8.1225 -8.625 5.0625 C-10.275 5.0625 -11.925 5.0625 -13.625 5.0625 C-9.02505896 0.30922759 -6.48382851 -0.07775809 0 0 Z " fill="#383332" transform="translate(68.625,60.9375)"/>
<path d="M0 0 C0.33 0 0.66 0 1 0 C1.08086147 1.79093191 1.13912702 3.58289628 1.1875 5.375 C1.22230469 6.37273437 1.25710937 7.37046875 1.29296875 8.3984375 C1.19628906 9.25695312 1.09960938 10.11546875 1 11 C-2.08888522 13.05925681 -2.70935927 13.2390374 -6.1875 13.125 C-8.0746875 13.063125 -8.0746875 13.063125 -10 13 C-10.66 10.69 -11.32 8.38 -12 6 C-10.515 6.99 -10.515 6.99 -9 8 C-5.41642759 8.25015873 -5.41642759 8.25015873 -2 8 C-0.03177114 6.03177114 -0.33751619 2.65191291 0 0 Z " fill="#DAC8CC" transform="translate(104,104)"/>
<path d="M0 0 C3.61154871 2.0427022 6.66394123 4.29229623 9.75 7.0625 C10.52859375 7.75472656 11.3071875 8.44695312 12.109375 9.16015625 C14.24804535 11.24138297 14.96317793 12.18402297 15.09765625 15.1640625 C15.08605469 15.97617188 15.07445313 16.78828125 15.0625 17.625 C15.05347656 18.44226563 15.04445313 19.25953125 15.03515625 20.1015625 C15.02355469 20.72804687 15.01195313 21.35453125 15 22 C14.34 22 13.68 22 13 22 C12.92523438 21.33613281 12.85046875 20.67226562 12.7734375 19.98828125 C11.89359747 13.67142317 11.89359747 13.67142317 7.875 9 C6.92625 8.34 5.9775 7.68 5 7 C5 6.34 5 5.68 5 5 C3.68 4.67 2.36 4.34 1 4 C0.67 2.68 0.34 1.36 0 0 Z " fill="#113992" transform="translate(93,147)"/>
<path d="M0 0 C0 2.31 0 4.62 0 7 C-2.97 7 -5.94 7 -9 7 C-9 5.02 -9 3.04 -9 1 C-6.04335481 -0.4783226 -3.25770263 -0.06032783 0 0 Z " fill="#F79626" transform="translate(215,123)"/>
<path d="M0 0 C3 0.125 3 0.125 4 1.125 C4.1875 3.5625 4.1875 3.5625 4 6.125 C3.34 6.785 2.68 7.445 2 8.125 C-2.55555556 7.56944444 -2.55555556 7.56944444 -4 6.125 C-4.125 3.625 -4.125 3.625 -4 1.125 C-3 0.125 -3 0.125 0 0 Z " fill="#F79522" transform="translate(243,66.875)"/>
<path d="M0 0 C2.5625 0.1875 2.5625 0.1875 4.5625 2.1875 C4.00694444 6.74305556 4.00694444 6.74305556 2.5625 8.1875 C0.0625 8.3125 0.0625 8.3125 -2.4375 8.1875 C-3.4375 7.1875 -3.4375 7.1875 -3.5625 4.1875 C-3.39891479 0.26145498 -3.39891479 0.26145498 0 0 Z " fill="#F79524" transform="translate(237.4375,56.8125)"/>
<path d="M0 0 C2.375 -0.125 2.375 -0.125 5 0 C5.66 0.66 6.32 1.32 7 2 C6.44444444 6.55555556 6.44444444 6.55555556 5 8 C3.33382885 8.04063832 1.66611905 8.042721 0 8 C-0.79953138 4.71303767 -1.09658936 3.28976808 0 0 Z " fill="#F79523" transform="translate(274,123)"/>
<path d="M0 0 C1.98 0.66 3.96 1.32 6 2 C6 3.98 6 5.96 6 8 C4.37399059 7.9129995 2.74910322 7.8048219 1.125 7.6875 C0.22007813 7.62949219 -0.68484375 7.57148437 -1.6171875 7.51171875 C-4 7 -4 7 -6 4 C-4.35 4 -2.7 4 -1 4 C-0.67 2.68 -0.34 1.36 0 0 Z " fill="#221E1B" transform="translate(120,86)"/>
<path d="M0 0 C5.61 0 11.22 0 17 0 C17.33 0.99 17.66 1.98 18 3 C14.31599416 4.23104155 11.08525024 3.90767252 7.25 3.5625 C6.07953125 3.46066406 4.9090625 3.35882813 3.703125 3.25390625 C2.36507812 3.12822266 2.36507812 3.12822266 1 3 C0.67 2.01 0.34 1.02 0 0 Z " fill="#16100E" transform="translate(141,62)"/>
<path d="M0 0 C0.33 0.66 0.66 1.32 1 2 C1.66 2 2.32 2 3 2 C3 3.32 3 4.64 3 6 C3.66 6 4.32 6 5 6 C5.99 7.485 5.99 7.485 7 9 C11.32968334 12.41126566 15.68376056 12.66411559 21 13 C21 13.33 21 13.66 21 14 C9.17849482 14.86078921 9.17849482 14.86078921 5.25 11.625 C3 9 3 9 3 7 C2.34 7 1.68 7 1 7 C0.67 4.69 0.34 2.38 0 0 Z " fill="#3F5EA9" transform="translate(113,164)"/>
<path d="M0 0 C2.75059381 -0.08107646 5.49879021 -0.14052813 8.25 -0.1875 C9.02730469 -0.21263672 9.80460937 -0.23777344 10.60546875 -0.26367188 C16.42997175 -0.33834499 16.42997175 -0.33834499 19.546875 1.51171875 C20.02640625 2.00285156 20.5059375 2.49398437 21 3 C16.7239606 6.18045761 13.91491309 6.22489761 8.6875 5.6875 C7.43324219 5.56761719 6.17898437 5.44773437 4.88671875 5.32421875 C3.45779297 5.16373047 3.45779297 5.16373047 2 5 C2 4.67 2 4.34 2 4 C5.96 4 9.92 4 14 4 C14 3.34 14 2.68 14 2 C7.07 1.505 7.07 1.505 0 1 C0 0.67 0 0.34 0 0 Z " fill="#373330" transform="translate(22,61)"/>
<path d="M0 0 C0.33 0 0.66 0 1 0 C1.26785714 8.03571429 1.26785714 8.03571429 -1 12 C-2.4370809 12.05422947 -3.87475462 12.09289723 -5.3125 12.125 C-6.11300781 12.14820313 -6.91351563 12.17140625 -7.73828125 12.1953125 C-10 12 -10 12 -13 10 C-13.29296875 7.8359375 -13.29296875 7.8359375 -13.1875 5.375 C-13.16042969 4.55773438 -13.13335937 3.74046875 -13.10546875 2.8984375 C-13.05326172 1.95871094 -13.05326172 1.95871094 -13 1 C-12.67 1 -12.34 1 -12 1 C-11.34 3.31 -10.68 5.62 -10 8 C-6.59679066 8.67673447 -6.59679066 8.67673447 -3 9 C-0.23776722 6.23776722 -0.42143709 3.79293383 0 0 Z " fill="#D7C1C4" transform="translate(104,43)"/>
<path d="M0 0 C1.32 0 2.64 0 4 0 C5.35439668 2.70879335 5.06501451 5.00933268 5 8 C3.34385343 8.38218767 1.67542976 8.71395102 0 9 C-1 8 -1 8 -1.125 4.5 C-1 1 -1 1 0 0 Z " fill="#DEC5CA" transform="translate(148,23)"/>
<path d="M0 0 C0.33 0 0.66 0 1 0 C1.32712342 6.13053511 1.39366878 10.62669111 -2 16 C-2.66 16 -3.32 16 -4 16 C-4 17.32 -4 18.64 -4 20 C-5.9375 19.6875 -5.9375 19.6875 -8 19 C-8.33 18.01 -8.66 17.02 -9 16 C-8.01 16 -7.02 16 -6 16 C-5.731875 15.401875 -5.46375 14.80375 -5.1875 14.1875 C-4 12 -4 12 -2.46875 10.65625 C-0.5799139 8.52628589 -0.51600966 7.12093336 -0.3125 4.3125 C-0.24675781 3.50425781 -0.18101563 2.69601563 -0.11328125 1.86328125 C-0.07589844 1.24839844 -0.03851563 0.63351563 0 0 Z " fill="#E0E0E0" transform="translate(86,68)"/>
<path d="M0 0 C2.29109597 -0.08075665 4.58299267 -0.13907731 6.875 -0.1875 C8.78925781 -0.23970703 8.78925781 -0.23970703 10.7421875 -0.29296875 C11.81726563 -0.19628906 12.89234375 -0.09960938 14 0 C14.66 0.99 15.32 1.98 16 3 C11.38 3.33 6.76 3.66 2 4 C1.34 2.68 0.68 1.36 0 0 Z " fill="#FBFBFB" transform="translate(23,68)"/>
<path d="M0 0 C1.67542976 0.28604898 3.34385343 0.61781233 5 1 C5 3.31 5 5.62 5 8 C3.125 8.625 3.125 8.625 1 9 C-1 7 -1 7 -1.1875 3.9375 C-1 1 -1 1 0 0 Z " fill="#EADEE1" transform="translate(161,29)"/>
<path d="M0 0 C0.66 0.33 1.32 0.66 2 1 C0.25 6.75 0.25 6.75 -2 9 C-2 8.34 -2 7.68 -2 7 C-2.99 7 -3.98 7 -5 7 C-5 10.3 -5 13.6 -5 17 C-5.33 17 -5.66 17 -6 17 C-6.56905158 4.96561287 -6.56905158 4.96561287 -3 1 C-2.01 0.67 -1.02 0.34 0 0 Z " fill="#100B07" transform="translate(135,65)"/>
<path d="M0 0 C0 0.66 0 1.32 0 2 C-0.99 2.495 -0.99 2.495 -2 3 C-2 3.66 -2 4.32 -2 5 C-1.34 5 -0.68 5 0 5 C0 5.66 0 6.32 0 7 C0.66 7 1.32 7 2 7 C1.67 8.32 1.34 9.64 1 11 C0.34 9.35 -0.32 7.7 -1 6 C-2.98 6 -4.96 6 -7 6 C-7 5.01 -7 4.02 -7 3 C-7.99 2.67 -8.98 2.34 -10 2 C-6.3558226 -0.4294516 -4.28758728 -0.16179575 0 0 Z " fill="#0F3795" transform="translate(234,145)"/>
<path d="M0 0 C0.9384375 0.0103125 1.876875 0.020625 2.84375 0.03125 C4.25140625 0.01578125 4.25140625 0.01578125 5.6875 0 C8.34375 0.53125 8.34375 0.53125 12.34375 4.53125 C6.07375 4.53125 -0.19625 4.53125 -6.65625 4.53125 C-2.65625 0.53125 -2.65625 0.53125 0 0 Z " fill="#ABABAB" transform="translate(144.65625,64.46875)"/>
<path d="M0 0 C0.99 0.33 1.98 0.66 3 1 C4.72795352 1.06802967 6.45835365 1.08495645 8.1875 1.0625 C9.08855469 1.05347656 9.98960938 1.04445312 10.91796875 1.03515625 C11.94857422 1.01775391 11.94857422 1.01775391 13 1 C12.01 2.485 12.01 2.485 11 4 C7.375 4.1875 7.375 4.1875 4 4 C3.34 5.32 2.68 6.64 2 8 C5.63 8 9.26 8 13 8 C13 8.33 13 8.66 13 9 C11.02090602 9.02686553 9.04171029 9.04633375 7.0625 9.0625 C5.96035156 9.07410156 4.85820313 9.08570313 3.72265625 9.09765625 C1 9 1 9 0 8 C-0.14115161 5.32941149 -0.04247107 2.67567762 0 0 Z " fill="#4463AB" transform="translate(86,169)"/>
<path d="M0 0 C-0.66 7.59 -1.32 15.18 -2 23 C-2.33 23 -2.66 23 -3 23 C-3 16.4 -3 9.8 -3 3 C-4.65 3 -6.3 3 -8 3 C-8 2.34 -8 1.68 -8 1 C-6 0 -6 0 0 0 Z " fill="#123994" transform="translate(174,145)"/>
<path d="M0 0 C2.125 0.375 2.125 0.375 4 1 C5.125 5.75 5.125 5.75 4 8 C2.35 7.67 0.7 7.34 -1 7 C-1.625 4.625 -1.625 4.625 -2 2 C-1.34 1.34 -0.68 0.68 0 0 Z " fill="#F59621" transform="translate(273,137)"/>
<path d="M0 0 C1.66611905 -0.042721 3.33382885 -0.04063832 5 0 C6 1 6 1 6.125 3.5 C6 6 6 6 5 7 C3.33382885 7.04063832 1.66611905 7.042721 0 7 C-1.125 2.25 -1.125 2.25 0 0 Z " fill="#F7992C" transform="translate(226,52)"/>
<path d="M0 0 C2.97 0 5.94 0 9 0 C8.67 1.65 8.34 3.3 8 5 C5.36 5 2.72 5 0 5 C0 3.35 0 1.7 0 0 Z " fill="#9D9D9D" transform="translate(170,73)"/>
<path d="M0 0 C1.67654729 0.27942455 3.34259285 0.62331656 5 1 C6.3921875 1.2784375 6.3921875 1.2784375 7.8125 1.5625 C8.534375 1.706875 9.25625 1.85125 10 2 C10 2.33 10 2.66 10 3 C8.02 3.66 6.04 4.32 4 5 C4.99 5.66 5.98 6.32 7 7 C0.25 6.125 0.25 6.125 -2 5 C-1.125 1.125 -1.125 1.125 0 0 Z " fill="#34302F" transform="translate(56,98)"/>
<path d="M0 0 C1.67542976 0.28604898 3.34385343 0.61781233 5 1 C5.33 2.65 5.66 4.3 6 6 C4.0085944 6.38133299 2.00720923 6.71325582 0 7 C-1 6 -1 6 -1.125 3.5 C-1 1 -1 1 0 0 Z " fill="#F79E37" transform="translate(216,52)"/>
<path d="M0 0 C1.134375 0.020625 2.26875 0.04125 3.4375 0.0625 C3.4375 0.7225 3.4375 1.3825 3.4375 2.0625 C4.4275 2.3925 5.4175 2.7225 6.4375 3.0625 C6.4375 3.7225 6.4375 4.3825 6.4375 5.0625 C2.4775 5.0625 -1.4825 5.0625 -5.5625 5.0625 C-4.31580396 0.07571586 -4.31580396 0.07571586 0 0 Z " fill="#0D3492" transform="translate(93.5625,171.9375)"/>
<path d="M0 0 C-0.33 2.31 -0.66 4.62 -1 7 C-2.65 6.67 -4.3 6.34 -6 6 C-6 4.02 -6 2.04 -6 0 C-3.50907189 -1.24546405 -2.58919267 -0.7767578 0 0 Z " fill="#D5A0AA" transform="translate(36,121)"/>
<path d="M0 0 C4.29 0 8.58 0 13 0 C13.33 0.99 13.66 1.98 14 3 C9.05 3.33 4.1 3.66 -1 4 C-0.67 2.68 -0.34 1.36 0 0 Z " fill="#0F0907" transform="translate(63,80)"/>
<path d="M0 0 C-0.33 1.65 -0.66 3.3 -1 5 C-2.875 5.625 -2.875 5.625 -5 6 C-5.66 5.34 -6.32 4.68 -7 4 C-7 2.68 -7 1.36 -7 0 C-4.3333581 -1.33332095 -2.83319697 -0.67102033 0 0 Z " fill="#BA2E48" transform="translate(135,22)"/>
<path d="M0 0 C0.80050781 0.12761719 1.60101563 0.25523437 2.42578125 0.38671875 C3.23402344 0.50660156 4.04226562 0.62648437 4.875 0.75 C5.48988281 0.85699219 6.10476562 0.96398437 6.73828125 1.07421875 C5.74828125 1.73421875 4.75828125 2.39421875 3.73828125 3.07421875 C3.73828125 3.73421875 3.73828125 4.39421875 3.73828125 5.07421875 C2.08828125 5.07421875 0.43828125 5.07421875 -1.26171875 5.07421875 C-1.26171875 5.73421875 -1.26171875 6.39421875 -1.26171875 7.07421875 C-2.25171875 7.07421875 -3.24171875 7.07421875 -4.26171875 7.07421875 C-4.94921875 5.26171875 -4.94921875 5.26171875 -5.26171875 3.07421875 C-3.61889692 0.78291462 -2.86047734 0.09386713 0 0 Z " fill="#133A96" transform="translate(210.26171875,144.92578125)"/>
<path d="M0 0 C0.33 0 0.66 0 1 0 C1.10824843 1.6026782 1.18570645 3.20745748 1.25 4.8125 C1.29640625 5.70582031 1.3428125 6.59914063 1.390625 7.51953125 C1 10 1 10 -0.8125 11.78125 C-3.51379383 13.28625656 -5.9467631 13.65304126 -9 14 C-4 9 -4 9 -2.25 7.5625 C-0.39568994 5.24461242 -0.32126462 2.8913816 0 0 Z " fill="#CAC9C9" transform="translate(88,93)"/>
<path d="M0 0 C2.59269983 0.01747888 5.0525154 0.13768592 7.625 0.375 C8.33140625 0.43171875 9.0378125 0.4884375 9.765625 0.546875 C11.51121361 0.68840921 13.25573673 0.84297387 15 1 C15 1.33 15 1.66 15 2 C9.79563275 4.03097258 4.89852904 5.18914012 -0.4375 3 C-0.953125 2.67 -1.46875 2.34 -2 2 C-1.34 1.34 -0.68 0.68 0 0 Z " fill="#060202" transform="translate(21,89)"/>
<path d="M0 0 C-0.33 1.98 -0.66 3.96 -1 6 C-2.98 6 -4.96 6 -7 6 C-6.67 5.01 -6.34 4.02 -6 3 C-6.66 3 -7.32 3 -8 3 C-8 2.34 -8 1.68 -8 1 C-5.29120665 -0.35439668 -2.99066732 -0.06501451 0 0 Z " fill="#0C3491" transform="translate(160,145)"/>
<path d="M0 0 C0.33 0 0.66 0 1 0 C1 2.64 1 5.28 1 8 C-0.03060547 8.05607422 -0.03060547 8.05607422 -1.08203125 8.11328125 C-1.98308594 8.17902344 -2.88414063 8.24476563 -3.8125 8.3125 C-4.70582031 8.37050781 -5.59914063 8.42851562 -6.51953125 8.48828125 C-9.34108797 9.07036618 -10.31513459 9.69439471 -12 12 C-12.25069913 14.62570704 -12.25069913 14.62570704 -12 17 C-12.66 16.67 -13.32 16.34 -14 16 C-14.1875 12.625 -14.1875 12.625 -14 9 C-10.57905758 6.71937172 -9.31812778 6.78074993 -5.3125 6.875 C-3.82169922 6.90207031 -3.82169922 6.90207031 -2.30078125 6.9296875 C-1.54152344 6.95289063 -0.78226563 6.97609375 0 7 C0 4.69 0 2.38 0 0 Z " fill="#A6B6D6" transform="translate(107,131)"/>
<path d="M0 0 C0.33 0 0.66 0 1 0 C1 2.31 1 4.62 1 7 C-0.32 7.33 -1.64 7.66 -3 8 C-3 7.34 -3 6.68 -3 6 C-4.32 5.67 -5.64 5.34 -7 5 C-6.67 3.68 -6.34 2.36 -6 1 C-4.35 1.33 -2.7 1.66 -1 2 C-1.33 3.32 -1.66 4.64 -2 6 C-1.34 6 -0.68 6 0 6 C0 4.02 0 2.04 0 0 Z " fill="#F8A13C" transform="translate(265,99)"/>
<path d="M0 0 C1.60294922 0.01353516 1.60294922 0.01353516 3.23828125 0.02734375 C4.04652344 0.03894531 4.85476562 0.05054687 5.6875 0.0625 C5.6875 0.3925 5.6875 0.7225 5.6875 1.0625 C-6.79769362 4.50669134 -6.79769362 4.50669134 -13.3125 4.0625 C-11.3125 1.0625 -11.3125 1.0625 -9.08203125 0.37890625 C-6.02790519 0.02998635 -3.07360268 -0.03377585 0 0 Z " fill="#0B0705" transform="translate(33.3125,73.9375)"/>
<path d="M0 0 C1.4540625 0.0309375 1.4540625 0.0309375 2.9375 0.0625 C2.6075 1.7125 2.2775 3.3625 1.9375 5.0625 C0.2875 5.3925 -1.3625 5.7225 -3.0625 6.0625 C-3.44468767 4.40635343 -3.77645102 2.73792976 -4.0625 1.0625 C-3.0625 0.0625 -3.0625 0.0625 0 0 Z " fill="#F8A74B" transform="translate(268.0625,150.9375)"/>
<path d="M0 0 C2.125 0.375 2.125 0.375 4 1 C4 2.65 4 4.3 4 6 C2.35 6.33 0.7 6.66 -1 7 C-1.625 4.625 -1.625 4.625 -2 2 C-1.34 1.34 -0.68 0.68 0 0 Z " fill="#BC2D48" transform="translate(63,125)"/>
<path d="M0 0 C0 0.99 0 1.98 0 3 C-0.99 2.34 -1.98 1.68 -3 1 C-3 1.66 -3 2.32 -3 3 C-3.78375 3.226875 -4.5675 3.45375 -5.375 3.6875 C-8.21875 4.78125 -8.21875 4.78125 -9.3125 7.625 C-9.539375 8.40875 -9.76625 9.1925 -10 10 C-10.33 10 -10.66 10 -11 10 C-11.31785906 6.50355037 -11.39644605 4.602598 -9.4375 1.625 C-6.18317497 -0.54455002 -3.82869586 -0.29451507 0 0 Z " fill="#F8AD55" transform="translate(222,104)"/>
<path d="M0 0 C3.63 0 7.26 0 11 0 C11 1.98 11 3.96 11 6 C8.03 5.67 5.06 5.34 2 5 C2 4.34 2 3.68 2 3 C4.31 3 6.62 3 9 3 C9 2.34 9 1.68 9 1 C6.03 1 3.06 1 0 1 C0 0.67 0 0.34 0 0 Z " fill="#09308F" transform="translate(124,145)"/>
<path d="M0 0 C2 1.375 2 1.375 4 3 C4 3.66 4 4.32 4 5 C8.29 5 12.58 5 17 5 C16.67 5.66 16.34 6.32 16 7 C6.05218189 7.78397866 6.05218189 7.78397866 1.8125 4.625 C0 2 0 2 0 0 Z " fill="#DFDFDF" transform="translate(16,90)"/>
<path d="M0 0 C1.32 0 2.64 0 4 0 C5.125 4.75 5.125 4.75 4 7 C2.35 6.67 0.7 6.34 -1 6 C-1.042721 4.33388095 -1.04063832 2.66617115 -1 1 C-0.67 0.67 -0.34 0.34 0 0 Z " fill="#171310" transform="translate(56,85)"/>
<path d="M0 0 C0.66 0 1.32 0 2 0 C1.67 0.99 1.34 1.98 1 3 C0.85164052 4.77166975 0.75229982 6.54767612 0.68359375 8.32421875 C0.64169922 9.35224609 0.59980469 10.38027344 0.55664062 11.43945312 C0.51732422 12.51130859 0.47800781 13.58316406 0.4375 14.6875 C0.39431641 15.77095703 0.35113281 16.85441406 0.30664062 17.97070312 C0.20053162 20.64700791 0.09847639 23.32340526 0 26 C-1.65 26 -3.3 26 -5 26 C-3.68 25.67 -2.36 25.34 -1 25 C-1.00523682 24.27820557 -1.01047363 23.55641113 -1.01586914 22.81274414 C-1.03657358 19.56267151 -1.04963918 16.31261272 -1.0625 13.0625 C-1.07087891 11.92619141 -1.07925781 10.78988281 -1.08789062 9.61914062 C-1.09111328 8.53955078 -1.09433594 7.45996094 -1.09765625 6.34765625 C-1.10289307 5.34742432 -1.10812988 4.34719238 -1.11352539 3.31665039 C-1 1 -1 1 0 0 Z " fill="#D6DCEE" transform="translate(207,152)"/>
<path d="M0 0 C9.00105708 -0.61839323 9.00105708 -0.61839323 12.625 1.625 C14.34529892 4.59642541 14.30719041 6.62090549 14 10 C13.67 10 13.34 10 13 10 C12.67 8.35 12.34 6.7 12 5 C11.34 5 10.68 5 10 5 C10 4.34 10 3.68 10 3 C8.906875 2.87625 7.81375 2.7525 6.6875 2.625 C3 2 3 2 0 0 Z " fill="#B1B1B0" transform="translate(64,65)"/>
<path d="M0 0 C4.62 0 9.24 0 14 0 C13.01 0.495 13.01 0.495 12 1 C12 1.66 12 2.32 12 3 C10.37581255 3.08090971 8.75048255 3.13914995 7.125 3.1875 C5.76761719 3.23970703 5.76761719 3.23970703 4.3828125 3.29296875 C3.20332031 3.14794922 3.20332031 3.14794922 2 3 C1.34 2.01 0.68 1.02 0 0 Z " fill="#0B0503" transform="translate(24,62)"/>
<path d="M0 0 C0.33 0 0.66 0 1 0 C1 2.64 1 5.28 1 8 C0.34 8 -0.32 8 -1 8 C-1 8.66 -1 9.32 -1 10 C-2.875 9.8125 -2.875 9.8125 -5 9 C-6.25 6.4375 -6.25 6.4375 -7 4 C-4.525 4.495 -4.525 4.495 -2 5 C-1.34 3.35 -0.68 1.7 0 0 Z " fill="#E3DADC" transform="translate(135,22)"/>
<path d="M0 0 C1.28132813 0.00902344 2.56265625 0.01804687 3.8828125 0.02734375 C4.87023437 0.03894531 5.85765625 0.05054687 6.875 0.0625 C6.875 0.3925 6.875 0.7225 6.875 1.0625 C4.235 1.3925 1.595 1.7225 -1.125 2.0625 C-1.125 2.7225 -1.125 3.3825 -1.125 4.0625 C-3.4681213 3.80688677 -5.80343403 3.46979228 -8.125 3.0625 C-8.455 2.4025 -8.785 1.7425 -9.125 1.0625 C-6.12186252 -0.43906874 -3.33432478 -0.03031204 0 0 Z " fill="#1B1714" transform="translate(68.125,100.9375)"/>
<path d="M0 0 C1.546875 0.7115625 1.546875 0.7115625 3.125 1.4375 C6.38534162 2.84522388 9.46051083 3.56835498 13 4 C13 4.33 13 4.66 13 5 C11.35 5 9.7 5 8 5 C8 5.66 8 6.32 8 7 C5.69 6.67 3.38 6.34 1 6 C0.67 4.02 0.34 2.04 0 0 Z " fill="#D5D5D6" transform="translate(113,90)"/>
<path d="M0 0 C1.65 0.33 3.3 0.66 5 1 C4.67 2.65 4.34 4.3 4 6 C2.35 5.67 0.7 5.34 -1 5 C-0.67 3.35 -0.34 1.7 0 0 Z " fill="#F79B2E" transform="translate(207,57)"/>
<path d="M0 0 C1.65 0.33 3.3 0.66 5 1 C4.67 2.65 4.34 4.3 4 6 C2.35 5.67 0.7 5.34 -1 5 C-0.67 3.35 -0.34 1.7 0 0 Z " fill="#F8A644" transform="translate(254,158)"/>
<path d="M0 0 C0.66 0.33 1.32 0.66 2 1 C-0.69557909 3.75942175 -1.94740016 3.99899659 -5.890625 4.07421875 C-7.34512042 3.96182592 -8.79838312 3.83240522 -10.25 3.6875 C-10.99507813 3.62626953 -11.74015625 3.56503906 -12.5078125 3.50195312 C-14.33982155 3.3492857 -16.17014316 3.17660246 -18 3 C-18 2.67 -18 2.34 -18 2 C-16.95199219 1.93941406 -15.90398437 1.87882812 -14.82421875 1.81640625 C-13.44529952 1.73198262 -12.06639395 1.64733553 -10.6875 1.5625 C-9.99720703 1.52318359 -9.30691406 1.48386719 -8.59570312 1.44335938 C-5.52838465 1.25072585 -2.93031848 0.97677283 0 0 Z " fill="#8E8E8D" transform="translate(81,103)"/>
<path d="M0 0 C1.33578688 2.67157375 1.01951335 4.53150674 0.8125 7.5 C0.75707031 8.4796875 0.70164062 9.459375 0.64453125 10.46875 C0 13 0 13 -2.05078125 14.34375 C-2.69402344 14.5603125 -3.33726563 14.776875 -4 15 C-4 13.35 -4 11.7 -4 10 C-3.34 10 -2.68 10 -2 10 C-1.93941406 9.36191406 -1.87882812 8.72382813 -1.81640625 8.06640625 C-1.73261719 7.24011719 -1.64882812 6.41382813 -1.5625 5.5625 C-1.48128906 4.73878906 -1.40007812 3.91507813 -1.31640625 3.06640625 C-1 1 -1 1 0 0 Z " fill="#CED7E9" transform="translate(113,153)"/>
<path d="M0 0 C0.68964844 -0.01224609 1.37929687 -0.02449219 2.08984375 -0.03710938 C3.89477494 -0.04238695 5.69917842 0.06565542 7.5 0.1875 C8.16 0.8475 8.82 1.5075 9.5 2.1875 C8.54738281 2.17589844 7.59476563 2.16429688 6.61328125 2.15234375 C5.35902344 2.14332031 4.10476562 2.13429688 2.8125 2.125 C1.57113281 2.11339844 0.32976562 2.10179688 -0.94921875 2.08984375 C-3.96235454 2.17271327 -6.58275339 2.47910551 -9.5 3.1875 C-9.5 2.5275 -9.5 1.8675 -9.5 1.1875 C-6.46576019 -0.3296199 -3.32495206 0.00310743 0 0 Z " fill="#E6E6E6" transform="translate(147.5,67.8125)"/>
<path d="M0 0 C2.64 0.33 5.28 0.66 8 1 C8.33 2.32 8.66 3.64 9 5 C5.7 4.34 2.4 3.68 -1 3 C-0.67 2.01 -0.34 1.02 0 0 Z " fill="#3A5BA7" transform="translate(211,143)"/>
<path d="M0 0 C0.33 0.99 0.66 1.98 1 3 C1.66 3.33 2.32 3.66 3 4 C-0.3 4 -3.6 4 -7 4 C-7.33 3.34 -7.66 2.68 -8 2 C-5.36 1.34 -2.72 0.68 0 0 Z " fill="#133A95" transform="translate(132,173)"/>
<path d="M0 0 C2.0625 0.4375 2.0625 0.4375 4 1 C3.67 2.65 3.34 4.3 3 6 C1.68 6 0.36 6 -1 6 C-1.042721 4.33388095 -1.04063832 2.66617115 -1 1 C-0.67 0.67 -0.34 0.34 0 0 Z " fill="#BB2F48" transform="translate(45,124)"/>
<path d="M0 0 C0.33 0 0.66 0 1 0 C1.103125 1.093125 1.20625 2.18625 1.3125 3.3125 C1.99727202 6.98536808 2.27919304 7.75237686 5 10 C5 10.66 5 11.32 5 12 C5.66 12 6.32 12 7 12 C7 12.66 7 13.32 7 14 C5.02 14.99 5.02 14.99 3 16 C3.0928125 14.824375 3.0928125 14.824375 3.1875 13.625 C3.125625 12.75875 3.06375 11.8925 3 11 C2.01 10.34 1.02 9.68 0 9 C-0.29296875 6.8359375 -0.29296875 6.8359375 -0.1875 4.375 C-0.16042969 3.55773437 -0.13335937 2.74046875 -0.10546875 1.8984375 C-0.05326172 0.95871094 -0.05326172 0.95871094 0 0 Z " fill="#C3C3C3" transform="translate(52,70)"/>
<path d="M0 0 C1.11375 0.185625 2.2275 0.37125 3.375 0.5625 C6.82568861 1.31680657 6.82568861 1.31680657 9 0 C8.67 1.65 8.34 3.3 8 5 C6.02 5 4.04 5 2 5 C1.34 3.35 0.68 1.7 0 0 Z " fill="#D9C8CB" transform="translate(108,34)"/>
<path d="M0 0 C2.375 -0.125 2.375 -0.125 5 0 C5.66 0.66 6.32 1.32 7 2 C6.625 4.125 6.625 4.125 6 6 C5.67 5.01 5.34 4.02 5 3 C4.67 3.66 4.34 4.32 4 5 C3.01 5 2.02 5 1 5 C0 3 0 3 0 0 Z " fill="#F8A74A" transform="translate(235,57)"/>
<path d="M0 0 C0.33 0 0.66 0 1 0 C1.125 2.375 1.125 2.375 1 5 C-1.36556709 7.36556709 -2.74303521 7.58244041 -6 8 C-7 7 -7 7 -7.0625 3.9375 C-7.041875 2.968125 -7.02125 1.99875 -7 1 C-6.01 2.485 -6.01 2.485 -5 4 C-3.68 4 -2.36 4 -1 4 C-0.67 2.68 -0.34 1.36 0 0 Z " fill="#D7B0B7" transform="translate(67,127)"/>
<path d="M0 0 C2.97 0 5.94 0 9 0 C8.67 0.99 8.34 1.98 8 3 C5.36 3 2.72 3 0 3 C0 2.01 0 1.02 0 0 Z " fill="#0C0705" transform="translate(145,90)"/>
<path d="M0 0 C1.98 0.66 3.96 1.32 6 2 C6 2.66 6 3.32 6 4 C4.02 4 2.04 4 0 4 C-0.33 3.34 -0.66 2.68 -1 2 C-0.67 1.34 -0.34 0.68 0 0 Z M-6 4 C-4.02 4.66 -2.04 5.32 0 6 C-1.32 6.33 -2.64 6.66 -4 7 C-4.66 6.01 -5.32 5.02 -6 4 Z " fill="#474443" transform="translate(120,86)"/>
<path d="M0 0 C2.475 0.495 2.475 0.495 5 1 C5 2.32 5 3.64 5 5 C3.35 5 1.7 5 0 5 C0 3.35 0 1.7 0 0 Z " fill="#F69A2F" transform="translate(201,65)"/>
<path d="M0 0 C2.29109597 -0.08075665 4.58299267 -0.13907731 6.875 -0.1875 C8.78925781 -0.23970703 8.78925781 -0.23970703 10.7421875 -0.29296875 C11.81726563 -0.19628906 12.89234375 -0.09960938 14 0 C14.66 0.99 15.32 1.98 16 3 C15.29488281 2.83628906 14.58976562 2.67257813 13.86328125 2.50390625 C10.90341312 1.98300176 8.18938727 1.90133268 5.1875 1.9375 C4.21167969 1.94652344 3.23585938 1.95554687 2.23046875 1.96484375 C1.49441406 1.97644531 0.75835938 1.98804687 0 2 C0 1.34 0 0.68 0 0 Z " fill="#E6E6E6" transform="translate(23,68)"/>
<path d="M0 0 C1.32 0 2.64 0 4 0 C4 1.98 4 3.96 4 6 C2.68 6 1.36 6 0 6 C0 4.02 0 2.04 0 0 Z " fill="#BE3A50" transform="translate(148,23)"/>
<path d="M0 0 C1.98 0.495 1.98 0.495 4 1 C4 2.32 4 3.64 4 5 C2.35 5 0.7 5 -1 5 C-0.67 3.35 -0.34 1.7 0 0 Z " fill="#F79E39" transform="translate(200,74)"/>
<path d="M0 0 C0.66 0.33 1.32 0.66 2 1 C2.125 3.375 2.125 3.375 2 6 C1.34 6.66 0.68 7.32 0 8 C-1.32 8 -2.64 8 -4 8 C-4 7.01 -4 6.02 -4 5 C-3.01 5 -2.02 5 -1 5 C-0.67 3.35 -0.34 1.7 0 0 Z " fill="#F79F38" transform="translate(245,67)"/>
<path d="M0 0 C4.62 0 9.24 0 14 0 C14 0.33 14 0.66 14 1 C11.36 1 8.72 1 6 1 C6 1.66 6 2.32 6 3 C4.35 3 2.7 3 1 3 C0.67 2.01 0.34 1.02 0 0 Z " fill="#070301" transform="translate(141,62)"/>
<path d="M0 0 C1.67542976 0.28604898 3.34385343 0.61781233 5 1 C5 1.99 5 2.98 5 4 C4.34 4 3.68 4 3 4 C2.67 4.99 2.34 5.98 2 7 C1.01 5.02 0.02 3.04 -1 1 C-0.67 0.67 -0.34 0.34 0 0 Z " fill="#272321" transform="translate(81,60)"/>
<path d="M0 0 C1.5625 1.125 1.5625 1.125 3 3 C2.6875 6.1875 2.6875 6.1875 2 9 C1.34 8.67 0.68 8.34 0 8 C0 7.34 0 6.68 0 6 C-1.65 6 -3.3 6 -5 6 C-4.360625 5.7525 -3.72125 5.505 -3.0625 5.25 C-0.81258459 4.18437567 -0.81258459 4.18437567 -0.25 1.875 C-0.1675 1.25625 -0.085 0.6375 0 0 Z " fill="#FADEBB" transform="translate(232,54)"/>
<path d="M0 0 C0.99 0 1.98 0 3 0 C3.25 2.8125 3.25 2.8125 3 6 C1 7.875 1 7.875 -1 9 C-0.67 6.03 -0.34 3.06 0 0 Z " fill="#120E0A" transform="translate(82,90)"/>
<path d="M0 0 C0 0.99 0 1.98 0 3 C-2.31 2.67 -4.62 2.34 -7 2 C-7 1.34 -7 0.68 -7 0 C-4.3333581 -1.33332095 -2.83319697 -0.67102033 0 0 Z " fill="#16110D" transform="translate(145,90)"/>
<path d="M0 0 C0.66 0.33 1.32 0.66 2 1 C1.34 2.32 0.68 3.64 0 5 C-0.66 5 -1.32 5 -2 5 C-2.99 5.33 -3.98 5.66 -5 6 C-4.75 4.125 -4.75 4.125 -4 2 C-2.0625 0.6875 -2.0625 0.6875 0 0 Z " fill="#16110D" transform="translate(135,65)"/>
<path d="M0 0 C0.99 0.33 1.98 0.66 3 1 C2.34 1.66 1.68 2.32 1 3 C1 3.99 1 4.98 1 6 C1.99 6.66 2.98 7.32 4 8 C2.35 7.67 0.7 7.34 -1 7 C-1.625 4.625 -1.625 4.625 -2 2 C-1.34 1.34 -0.68 0.68 0 0 Z " fill="#F9B467" transform="translate(273,137)"/>
<path d="M0 0 C0.33 0 0.66 0 1 0 C1.125 3.375 1.125 3.375 1 7 C-1 9 -1 9 -3.625 9.125 C-4.40875 9.08375 -5.1925 9.0425 -6 9 C-6 8.34 -6 7.68 -6 7 C-4.7934375 6.6596875 -4.7934375 6.6596875 -3.5625 6.3125 C-2.716875 5.879375 -1.87125 5.44625 -1 5 C-0.10613836 2.45224694 -0.10613836 2.45224694 0 0 Z " fill="#EBE8E9" transform="translate(68,127)"/>
<path d="M0 0 C1.98 0.495 1.98 0.495 4 1 C3.67 2.32 3.34 3.64 3 5 C1.68 4.67 0.36 4.34 -1 4 C-0.67 2.68 -0.34 1.36 0 0 Z " fill="#F9AC56" transform="translate(203,83)"/>
<path d="M0 0 C1.53445094 3.06890187 0.54984289 5.70094266 0 9 C-0.66 9 -1.32 9 -2 9 C-2.79953138 5.71303767 -3.09658936 4.28976808 -2 1 C-1.34 0.67 -0.68 0.34 0 0 Z " fill="#0F3995" transform="translate(93,138)"/>
<path d="M0 0 C0.99 0.33 1.98 0.66 3 1 C3 1.66 3 2.32 3 3 C2.01 3 1.02 3 0 3 C0 3.66 0 4.32 0 5 C-1.32 5 -2.64 5 -4 5 C-4 4.01 -4 3.02 -4 2 C-2.68 2 -1.36 2 0 2 C0 1.34 0 0.68 0 0 Z " fill="#0F0A06" transform="translate(159,87)"/>
<path d="M0 0 C1.65 0.33 3.3 0.66 5 1 C2.6875 3.0625 2.6875 3.0625 0 5 C-0.99 4.67 -1.98 4.34 -3 4 C-2.01 2.68 -1.02 1.36 0 0 Z " fill="#DCDCDB" transform="translate(64,66)"/>
<path d="M0 0 C1.32 0 2.64 0 4 0 C4 1.65 4 3.3 4 5 C2.35 4.67 0.7 4.34 -1 4 C-1.33 4.66 -1.66 5.32 -2 6 C-2 5.01 -2 4.02 -2 3 C-1.34 3 -0.68 3 0 3 C0 2.01 0 1.02 0 0 Z " fill="#D0D0D0" transform="translate(86,61)"/>
<path d="M0 0 C0.66 0.33 1.32 0.66 2 1 C1.67 1.66 1.34 2.32 1 3 C0.01 3 -0.98 3 -2 3 C-2.66 4.65 -3.32 6.3 -4 8 C-5 5 -5 5 -4.25 2.875 C-3 1 -3 1 0 0 Z " fill="#103793" transform="translate(120,147)"/>
<path d="M0 0 C0.33 0 0.66 0 1 0 C1.28526928 3.37885612 1.46087248 6.63291991 1 10 C-1.5 12.125 -1.5 12.125 -4 13 C-4 12.34 -4 11.68 -4 11 C-3.34 11 -2.68 11 -2 11 C-1.34 7.37 -0.68 3.74 0 0 Z " fill="#DDDDDD" transform="translate(88,93)"/>
<path d="M0 0 C4.95 1.98 4.95 1.98 10 4 C10 4.33 10 4.66 10 5 C7.36 5 4.72 5 2 5 C2 4.01 2 3.02 2 2 C1.34 2 0.68 2 0 2 C0 1.34 0 0.68 0 0 Z " fill="#D7D7D7" transform="translate(133,90)"/>
<path d="M0 0 C1.32 0 2.64 0 4 0 C4 1.65 4 3.3 4 5 C2.68 4.67 1.36 4.34 0 4 C0 2.68 0 1.36 0 0 Z " fill="#C2445A" transform="translate(161,29)"/>
<path d="M0 0 C0.33 0.99 0.66 1.98 1 3 C-1.97 3 -4.94 3 -8 3 C-7.67 2.34 -7.34 1.68 -7 1 C-4.61370553 0.38812962 -2.46459429 0 0 0 Z " fill="#2F53A3" transform="translate(105,135)"/>
<path d="M0 0 C2.31 0 4.62 0 7 0 C6.4225 0.226875 5.845 0.45375 5.25 0.6875 C2.4336339 2.33038023 0.91922886 4.39533227 -1 7 C-0.67 4.69 -0.34 2.38 0 0 Z " fill="#B20625" transform="translate(94,102)"/>
<path d="M0 0 C2.93453261 0.36681658 3.86437246 0.86437246 6 3 C3.39417629 3.93065133 2.35801776 4.14917407 -0.25 3.0625 C-0.8275 2.711875 -1.405 2.36125 -2 2 C-1.34 1.34 -0.68 0.68 0 0 Z " fill="#120D09" transform="translate(21,89)"/>
<path d="M0 0 C3.3 0 6.6 0 10 0 C9.01 1.485 9.01 1.485 8 3 C5.6568787 2.74438677 3.32156597 2.40729228 1 2 C0.67 1.34 0.34 0.68 0 0 Z " fill="#BE334F" transform="translate(93,50)"/>
<path d="M0 0 C0.33 0 0.66 0 1 0 C3.14285714 7.42857143 3.14285714 7.42857143 4 11 C2.68 10.34 1.36 9.68 0 9 C0 6.03 0 3.06 0 0 Z " fill="#DFCED0" transform="translate(91,44)"/>
<path d="M0 0 C2.375 -0.125 2.375 -0.125 5 0 C5.66 0.66 6.32 1.32 7 2 C6.625 4.125 6.625 4.125 6 6 C5.34 5.67 4.68 5.34 4 5 C4 4.34 4 3.68 4 3 C2.68 2.34 1.36 1.68 0 1 C0 0.67 0 0.34 0 0 Z " fill="#F8A84C" transform="translate(274,123)"/>
<path d="M0 0 C0.33 0.66 0.66 1.32 1 2 C3.52733235 2.65555119 3.52733235 2.65555119 6 3 C5.67 3.99 5.34 4.98 5 6 C2.525 5.01 2.525 5.01 0 4 C0 2.68 0 1.36 0 0 Z " fill="#D7D7D7" transform="translate(53,101)"/>
<path d="M0 0 C0.33 0.66 0.66 1.32 1 2 C1.99 1.67 2.98 1.34 4 1 C4 1.66 4 2.32 4 3 C4.99 3.33 5.98 3.66 7 4 C5.02 4.33 3.04 4.66 1 5 C0.67 3.35 0.34 1.7 0 0 Z " fill="#44403E" transform="translate(17,63)"/>
</svg>
