<?xml version="1.0" encoding="UTF-8"?>
<svg version="1.1" xmlns="http://www.w3.org/2000/svg" width="111" height="145">
<path d="M0 0 C36.63 0 73.26 0 111 0 C111 47.85 111 95.7 111 145 C74.37 145 37.74 145 0 145 C0 97.15 0 49.3 0 0 Z " fill="#2263B0" transform="translate(0,0)"/>
<path d="M0 0 C36.63 0 73.26 0 111 0 C111 47.85 111 95.7 111 145 C74.37 145 37.74 145 0 145 C0 97.15 0 49.3 0 0 Z M9 35 C8.94513885 44.1577275 8.94513885 44.1577275 9.3671875 53.2265625 C9.44839844 54.27972656 9.52960937 55.33289063 9.61328125 56.41796875 C9.69964844 57.47628906 9.78601562 58.53460938 9.875 59.625 C9.95363281 60.66011719 10.03226563 61.69523437 10.11328125 62.76171875 C10.6099546 69.05036744 11.24837238 75.31218289 11.96875 81.578125 C13.09352326 91.40945702 13.87530372 101.25907309 14.625 111.125 C14.76014159 112.8737192 14.89555714 114.62241724 15.03125 116.37109375 C15.35730624 120.58049354 15.67972073 124.79015688 16 129 C41.33695163 137.64341371 58.44756252 139.83369488 84.26196289 131.75610352 C87.15863403 130.95619353 90.0299402 130.44552263 93 130 C93.05534912 129.44538086 93.11069824 128.89076172 93.16772461 128.31933594 C93.42128107 125.7959083 93.67934505 123.27296117 93.9375 120.75 C94.02451172 119.87730469 94.11152344 119.00460938 94.20117188 118.10546875 C94.28818359 117.26113281 94.37519531 116.41679688 94.46484375 115.546875 C94.543396 114.77182617 94.62194824 113.99677734 94.70288086 113.19824219 C95 111 95 111 95.5065918 109.13476562 C96.1869971 106.19094376 96.28016532 103.31406245 96.4296875 100.296875 C96.50186511 98.92479147 96.57430533 97.55272174 96.64697266 96.18066406 C96.68397278 95.45850708 96.7209729 94.7363501 96.75909424 93.99230957 C97.49877142 79.68253588 98.59503361 65.43850862 100.03466797 51.18261719 C100.22246826 49.30558105 100.22246826 49.30558105 100.4140625 47.390625 C100.5270166 46.29782227 100.6399707 45.20501953 100.75634766 44.07910156 C100.99516676 41.06107902 101 38.02745679 101 35 C70.64 35 40.28 35 9 35 Z " fill="#FAFBFC" transform="translate(0,0)"/>
<path d="M0 0 C19.47 0 38.94 0 59 0 C58 9 58 9 57 12 C55.46875 13.03613281 55.46875 13.03613281 53.5 13.953125 C52.778125 14.29150391 52.05625 14.62988281 51.3125 14.97851562 C47.56641149 16.63324898 43.79716205 18.21641517 40 19.75 C37.36 20.8225 34.72 21.895 32 23 C39.92 23.33 47.84 23.66 56 24 C56.28708632 35.77053898 55.18469909 47.29952112 54 59 C50.83905615 60.01872705 47.67049728 61.01144607 44.5 62 C43.613125 62.28617188 42.72625 62.57234375 41.8125 62.8671875 C31.90729747 65.92614711 25.30403683 65.16351188 15.5 62 C14.12328125 61.57074219 14.12328125 61.57074219 12.71875 61.1328125 C10.47579441 60.43188888 8.23662076 59.72083092 6 59 C4.84116989 52.92298538 4.93138525 47.17532793 5 41 C8.96 41 12.92 41 17 41 C17 44.3 17 47.6 17 51 C26.24940804 52.02360116 33.17609073 52.39381126 42 49 C42.33 44.38 42.66 39.76 43 35 C29.8 35 16.6 35 3 35 C3 31.04 3 27.08 3 23 C10.59 19.7 18.18 16.4 26 13 C18.14679256 12.71072194 18.14679256 12.71072194 10.29321289 12.43188477 C8.83516235 12.3747229 8.83516235 12.3747229 7.34765625 12.31640625 C5.84730835 12.26141968 5.84730835 12.26141968 4.31665039 12.20532227 C2 12 2 12 1 11 C0.67 7.37 0.34 3.74 0 0 Z " fill="#F0F1F1" transform="translate(25,54)"/>
<path d="M0 0 C12.21 0 24.42 0 37 0 C37 15 37 15 36 20 C35.75159873 23.46036773 35.56113736 26.91606926 35.39453125 30.38085938 C35.10240974 35.79518053 35.10240974 35.79518053 34 38 C33.82697272 39.3560062 33.70499637 40.71874839 33.61108398 42.08251953 C33.5211039 43.34360031 33.5211039 43.34360031 33.42930603 44.63015747 C33.36884598 45.53853363 33.30838593 46.44690979 33.24609375 47.3828125 C33.18092056 48.31221649 33.11574738 49.24162048 33.04859924 50.19918823 C32.84090499 53.17419721 32.63913839 56.14957502 32.4375 59.125 C32.29791561 61.13934995 32.15794658 63.15367329 32.01757812 65.16796875 C31.67391772 70.11168114 31.33557378 75.05573238 31 80 C27.48726553 81.48279041 24.03029451 82.58609814 20.33203125 83.5078125 C19.27435547 83.77207031 18.21667969 84.03632812 17.12695312 84.30859375 C16.03318359 84.57800781 14.93941406 84.84742187 13.8125 85.125 C12.70712891 85.40214844 11.60175781 85.67929688 10.46289062 85.96484375 C2.26712592 88 2.26712592 88 0 88 C0 84.37 0 80.74 0 77 C-1.98 77 -3.96 77 -6 77 C-6 76.34 -6 75.68 -6 75 C-4.700625 75.103125 -3.40125 75.20625 -2.0625 75.3125 C4.7709637 75.36159097 10.90326177 73.15078685 17.33984375 71.09375 C21 70 21 70 24 70 C23.98839844 69.43039551 23.97679688 68.86079102 23.96484375 68.27392578 C23.88485234 61.09612558 24.3853023 54.02275798 25 46.875 C25.33 42.95625 25.66 39.0375 26 35 C17.75 35 9.5 35 1 35 C4.22346791 31.77653209 7.15569481 30.55122759 11.3125 29 C15.08569751 27.56685673 18.74469272 26.12839668 22.35546875 24.3125 C25 23 25 23 27 23 C27.66 19.04 28.32 15.08 29 11 C19.43 11 9.86 11 0 11 C0 7.37 0 3.74 0 0 Z " fill="#3D9BD7" transform="translate(55,43)"/>
<path d="M0 0 C8.58 0 17.16 0 26 0 C26 8.44021164 25.84598397 16.47269854 25 24.8125 C24.85691406 26.2984668 24.85691406 26.2984668 24.7109375 27.81445312 C24.47946134 30.21023134 24.24246723 32.60531371 24 35 C20.83905615 36.01872705 17.67049728 37.01144607 14.5 38 C13.613125 38.28617188 12.72625 38.57234375 11.8125 38.8671875 C1.90729747 41.92614711 -4.69596317 41.16351188 -14.5 38 C-15.87671875 37.57074219 -15.87671875 37.57074219 -17.28125 37.1328125 C-19.52420559 36.43188888 -21.76337924 35.72083092 -24 35 C-25.15883011 28.92298538 -25.06861475 23.17532793 -25 17 C-21.04 17 -17.08 17 -13 17 C-13 20.3 -13 23.6 -13 27 C-3.75059196 28.02360116 3.17609073 28.39381126 12 25 C12.33 20.38 12.66 15.76 13 11 C8.71 11 4.42 11 0 11 C0 7.37 0 3.74 0 0 Z " fill="#F3F7F8" transform="translate(55,78)"/>
<path d="M0 0 C30.36 0 60.72 0 92 0 C90.8886194 20.00485075 90.8886194 20.00485075 90.0625 27 C88.87765246 37.81062023 88.32959016 48.66143322 87.78540039 59.51953125 C87.16347457 71.44871855 85.70246577 83.17774326 84 95 C83.67 95 83.34 95 83 95 C82.97512079 90.16195034 82.95705572 85.32393865 82.94506836 80.48583984 C82.94006637 78.84292959 82.93326267 77.20002373 82.92456055 75.55712891 C82.9123126 73.18390819 82.90673021 70.81074677 82.90234375 68.4375 C82.89718246 67.71320801 82.89202118 66.98891602 82.88670349 66.24267578 C82.88618241 61.4125661 83.31972765 56.78309137 84 52 C83.34 52 82.68 52 82 52 C81.96241577 53.02770508 81.96241577 53.02770508 81.92407227 54.07617188 C81.80714393 57.2175935 81.68486126 60.35878548 81.5625 63.5 C81.52318359 64.57765625 81.48386719 65.6553125 81.44335938 66.765625 C81.21341951 72.56718464 80.83001269 78.25268527 80 84 C80.66 84 81.32 84 82 84 C82 86.31 82 88.62 82 91 C81.34 90.01 80.68 89.02 80 88 C79.01 88.66 78.02 89.32 77 90 C74.3125 90.125 74.3125 90.125 72 90 C72.64528152 89.75354736 73.29056305 89.50709473 73.95539856 89.25317383 C76.14918329 88.213632 76.14918329 88.213632 76.58818054 86.1784668 C76.62957657 85.44281494 76.6709726 84.70716309 76.71362305 83.94921875 C76.79842171 82.69782104 76.79842171 82.69782104 76.88493347 81.42114258 C76.92677261 80.51904053 76.96861176 79.61693848 77.01171875 78.6875 C77.07027542 77.76283936 77.12883209 76.83817871 77.18916321 75.88549805 C77.37335553 72.92442886 77.531305 69.96266645 77.6875 67 C77.85950028 64.03785296 78.03683889 61.07610398 78.2179718 58.11450195 C78.32907474 56.2696647 78.43388501 54.42443598 78.53190613 52.57885742 C78.57898209 51.74459229 78.62605804 50.91032715 78.67456055 50.05078125 C78.71356979 49.31512939 78.75257904 48.57947754 78.79277039 47.8215332 C79 46 79 46 80 44 C80.2084022 41.39207808 80.37440285 38.79945562 80.5 36.1875 C80.72016245 31.68232389 81.11063587 27.44682065 82 23 C82.33 18.05 82.66 13.1 83 8 C70.79 8 58.58 8 46 8 C46 7.67 46 7.34 46 7 C57.55 7 69.1 7 81 7 C81 5.68 81 4.36 81 3 C84.465 2.505 84.465 2.505 88 2 C58.96 1.67 29.92 1.34 0 1 C0 0.67 0 0.34 0 0 Z " fill="#296AB4" transform="translate(9,35)"/>
<path d="M0 0 C13.53 0 27.06 0 41 0 C41 4.62 41 9.24 41 14 C32.16081093 18.41959453 24.45556033 18.59265364 15 16 C14.67 12.7 14.34 9.4 14 6 C10.7 5.67 7.4 5.34 4 5 C4 4.34 4 3.68 4 3 C2.68 2.67 1.36 2.34 0 2 C0 1.34 0 0.68 0 0 Z " fill="#2364B0" transform="translate(27,89)"/>
<path d="M0 0 C3.96 0 7.92 0 12 0 C12 3.3 12 6.6 12 10 C13.381875 10.144375 14.76375 10.28875 16.1875 10.4375 C19.50324238 10.80359143 22.74229382 11.26438893 26 12 C25.34 12.66 24.68 13.32 24 14 C23.75712511 16.44012949 23.75712511 16.44012949 23.875 19.125 C23.90207031 20.49011719 23.90207031 20.49011719 23.9296875 21.8828125 C23.95289062 22.58148438 23.97609375 23.28015625 24 24 C16.00558401 22.80398501 8.602309 20.73311633 1 18 C-0.15883011 11.92298538 -0.06861475 6.17532793 0 0 Z " fill="#DDDEDD" transform="translate(30,95)"/>
<path d="M0 0 C19.47 0 38.94 0 59 0 C58.67 1.32 58.34 2.64 58 4 C58 3.01 58 2.02 58 1 C46.78 1.33 35.56 1.66 24 2 C24 2.33 24 2.66 24 3 C22.92878906 2.98839844 21.85757813 2.97679687 20.75390625 2.96484375 C19.35677257 2.95546701 17.95963701 2.94636669 16.5625 2.9375 C15.85544922 2.92912109 15.14839844 2.92074219 14.41992188 2.91210938 C12.61306441 2.90346412 10.80612397 2.94779989 9 3 C7.70366379 4.06645115 7.70366379 4.06645115 7.9375 6.5625 C7.958125 7.366875 7.97875 8.17125 8 9 C10.64 9.33 13.28 9.66 16 10 C16.33 9.01 16.66 8.02 17 7 C17.99 7.33 18.98 7.66 20 8 C20 8.66 20 9.32 20 10 C21.32 9.34 22.64 8.68 24 8 C24.66 8.66 25.32 9.32 26 10 C27.32 10.33 28.64 10.66 30 11 C30 14.3 30 17.6 30 21 C28 21 26 21 24 21 C24 20.34 24 19.68 24 19 C23.40832031 19.22816406 22.81664063 19.45632812 22.20703125 19.69140625 C14.35852373 22.54657293 14.35852373 22.54657293 10 21 C13.19184343 18.35820725 16.41581339 16.85450983 20.25 15.3125 C21.86648437 14.65701172 21.86648437 14.65701172 23.515625 13.98828125 C24.33546875 13.66214844 25.1553125 13.33601563 26 13 C24.91730835 12.96241577 24.91730835 12.96241577 23.81274414 12.92407227 C20.562465 12.80848698 17.31250312 12.68559226 14.0625 12.5625 C12.35803711 12.50352539 12.35803711 12.50352539 10.61914062 12.44335938 C9.53955078 12.40146484 8.45996094 12.35957031 7.34765625 12.31640625 C5.84730835 12.26141968 5.84730835 12.26141968 4.31665039 12.20532227 C2 12 2 12 1 11 C0.67 7.37 0.34 3.74 0 0 Z " fill="#C0D0DC" transform="translate(25,54)"/>
<path d="M0 0 C2.475 0.495 2.475 0.495 5 1 C6.69257245 1.07700286 8.38773999 1.10805067 10.08203125 1.09765625 C11.01337891 1.09443359 11.94472656 1.09121094 12.90429688 1.08789062 C14.34385742 1.07532227 14.34385742 1.07532227 15.8125 1.0625 C16.79154297 1.05798828 17.77058594 1.05347656 18.77929688 1.04882812 C21.18622431 1.03708702 23.59312013 1.01915289 26 1 C26.33 4.63 26.66 8.26 27 12 C18.09 12 9.18 12 0 12 C0 8.04 0 4.08 0 0 Z " fill="#E3E1DE" transform="translate(28,77)"/>
<path d="M0 0 C4.95 0 9.9 0 15 0 C15 2.31 15 4.62 15 7 C13.68 7 12.36 7 11 7 C11.66 7.70125 12.32 8.4025 13 9.125 C15 12 15 12 15 18 C10.05 18 5.1 18 0 18 C0 16.02 0 14.04 0 12 C1.65 12 3.3 12 5 12 C4.175 11.319375 3.35 10.63875 2.5 9.9375 C0 7 0 7 0 0 Z " fill="#111111" transform="translate(47,9)"/>
<path d="M0 0 C4.95 0 9.9 0 15 0 C15 2.31 15 4.62 15 7 C13.35 7 11.7 7 10 7 C10 7.66 10 8.32 10 9 C10.99 9.33 11.98 9.66 13 10 C14 12 14 12 14 18 C9.38 18 4.76 18 0 18 C0 16.02 0 14.04 0 12 C1.32 12 2.64 12 4 12 C3.34 11.319375 2.68 10.63875 2 9.9375 C0 7 0 7 0 0 Z " fill="#1C1C1C" transform="translate(68,9)"/>
<path d="M0 0 C4.95 0 9.9 0 15 0 C15 2.31 15 4.62 15 7 C12.36 7 9.72 7 7 7 C7 8.65 7 10.3 7 12 C8.7015625 11.9690625 8.7015625 11.9690625 10.4375 11.9375 C14 12 14 12 15 13 C15 14.65 15 16.3 15 18 C10.05 18 5.1 18 0 18 C0 12.06 0 6.12 0 0 Z " fill="#232323" transform="translate(27,9)"/>
<path d="M0 0 C4.29 0 8.58 0 13 0 C13 4.62 13 9.24 13 14 C7.33251843 16.83374078 2.30267439 17.63223832 -4 18 C-2.68 17.67 -1.36 17.34 0 17 C0 11.39 0 5.78 0 0 Z " fill="#3F9BD6" transform="translate(55,89)"/>
<path d="M0 0 C0.33 0 0.66 0 1 0 C1.71033431 5.52967941 2.30267176 10.49983036 1 16 C0.34 16 -0.32 16 -1 16 C-1.33 16.66 -1.66 17.32 -2 18 C-2 17.34 -2 16.68 -2 16 C-3.95803507 15.94610913 -5.91648909 15.90725783 -7.875 15.875 C-8.96554688 15.85179688 -10.05609375 15.82859375 -11.1796875 15.8046875 C-14.1371051 15.69939466 -14.1371051 15.69939466 -16 18 C-11.05 18.33 -6.1 18.66 -1 19 C-1 20.98 -1 22.96 -1 25 C-1.33 25 -1.66 25 -2 25 C-2 23.35 -2 21.7 -2 20 C-10.25 20 -18.5 20 -27 20 C-23.77653209 16.77653209 -20.84430519 15.55122759 -16.6875 14 C-12.91430249 12.56685673 -9.25530728 11.12839668 -5.64453125 9.3125 C-3 8 -3 8 -1 8 C-0.67 5.36 -0.34 2.72 0 0 Z " fill="#57A9DD" transform="translate(83,58)"/>
<path d="M0 0 C-0.33 0.99 -0.66 1.98 -1 3 C-2.98 3 -4.96 3 -7 3 C-7 3.66 -7 4.32 -7 5 C-6.34 5.33 -5.68 5.66 -5 6 C-5.20625 6.78375 -5.4125 7.5675 -5.625 8.375 C-5.74875 9.24125 -5.8725 10.1075 -6 11 C-5.34 11.66 -4.68 12.32 -4 13 C-8.455 13.495 -8.455 13.495 -13 14 C-14.125 7.375 -14.125 7.375 -13 4 C-13.66 3.67 -14.32 3.34 -15 3 C-13.25531628 2.29911844 -11.50398839 1.61475991 -9.75 0.9375 C-8.77546875 0.55464844 -7.8009375 0.17179687 -6.796875 -0.22265625 C-3.95992605 -1.01113787 -2.70590448 -1.02437812 0 0 Z " fill="#EEF0F1" transform="translate(67,105)"/>
<path d="M0 0 C0.33 0 0.66 0 1 0 C0.58589349 13.4399446 -0.00783369 26.69295163 -2 40 C-2.33365772 42.33328697 -2.66708282 44.66660725 -3 47 C-3.33 47 -3.66 47 -4 47 C-4 36.77 -4 26.54 -4 16 C-3.34 15.67 -2.68 15.34 -2 15 C-1.52425562 12.45975996 -1.15992453 9.99948536 -0.875 7.4375 C-0.78863281 6.72658203 -0.70226562 6.01566406 -0.61328125 5.28320312 C-0.40065217 3.52310688 -0.19927303 1.76165836 0 0 Z " fill="#6291C6" transform="translate(96,83)"/>
<path d="M0 0 C2.475 0.99 2.475 0.99 5 2 C4.67 2.66 4.34 3.32 4 4 C4 5.98 4 7.96 4 10 C11.59 10.33 19.18 10.66 27 11 C27 11.33 27 11.66 27 12 C18.09 12 9.18 12 0 12 C0 8.04 0 4.08 0 0 Z " fill="#B9C6D7" transform="translate(28,77)"/>
<path d="M0 0 C0 3.3 0 6.6 0 10 C-2.31 9.67 -4.62 9.34 -7 9 C-7 8.34 -7 7.68 -7 7 C-7.66 6.67 -8.32 6.34 -9 6 C-8.34 5.34 -7.68 4.68 -7 4 C-7 3.34 -7 2.68 -7 2 C-7.66 1.67 -8.32 1.34 -9 1 C-5.8035914 -0.06546953 -3.34252724 -0.07427838 0 0 Z " fill="#E3E3E2" transform="translate(54,109)"/>
<path d="M0 0 C4.95 0 9.9 0 15 0 C15 2.31 15 4.62 15 7 C13.35 7.33 11.7 7.66 10 8 C10 7.34 10 6.68 10 6 C11.32 6 12.64 6 14 6 C14 4.68 14 3.36 14 2 C10.04 2 6.08 2 2 2 C2 3.65 2 5.3 2 7 C1.34 7 0.68 7 0 7 C0 4.69 0 2.38 0 0 Z " fill="#4F4F4F" transform="translate(47,9)"/>
<path d="M0 0 C3.96 0 7.92 0 12 0 C12 2.97 12 5.94 12 9 C11.67 9 11.34 9 11 9 C11 6.36 11 3.72 11 1 C8.36 1 5.72 1 3 1 C3.04125 1.886875 3.0825 2.77375 3.125 3.6875 C3.00102754 6.97277013 2.38612096 9.05449295 1 12 C0.67 12 0.34 12 0 12 C0 8.04 0 4.08 0 0 Z " fill="#C1CAD8" transform="translate(30,95)"/>
<path d="M0 0 C0.33 0 0.66 0 1 0 C1 1.98 1 3.96 1 6 C5.29 6 9.58 6 14 6 C14.33 5.01 14.66 4.02 15 3 C15.99 3.33 16.98 3.66 18 4 C18 4.66 18 5.32 18 6 C19.32 5.34 20.64 4.68 22 4 C22.66 4.66 23.32 5.32 24 6 C21.05868109 6.98043964 19.17498335 7.11621202 16.11328125 7.09765625 C15.17548828 7.09443359 14.23769531 7.09121094 13.27148438 7.08789062 C12.29501953 7.07951172 11.31855469 7.07113281 10.3125 7.0625 C8.83040039 7.05573242 8.83040039 7.05573242 7.31835938 7.04882812 C4.87884526 7.03704303 2.43945311 7.02059011 0 7 C0 4.69 0 2.38 0 0 Z " fill="#E5E5E1" transform="translate(27,58)"/>
<path d="M0 0 C2 2 2 2 2.1953125 3.9453125 C2.13020833 5.96354167 2.06510417 7.98177083 2 10 C1.34 10 0.68 10 0 10 C0.33 15.28 0.66 20.56 1 26 C0.67 26 0.34 26 0 26 C-1.62360795 17.43095805 -1.59579497 8.57739795 0 0 Z " fill="#4076B7" transform="translate(12,53)"/>
<path d="M0 0 C0.99 0 1.98 0 3 0 C3 1.32 3 2.64 3 4 C3.66 4 4.32 4 5 4 C5 5.32 5 6.64 5 8 C5.66 8.33 6.32 8.66 7 9 C6.21625 8.979375 5.4325 8.95875 4.625 8.9375 C2.01885039 8.81315937 2.01885039 8.81315937 0 10 C0 6.7 0 3.4 0 0 Z " fill="#D1D3D5" transform="translate(26,55)"/>
<path d="M0 0 C0.33 0 0.66 0 1 0 C0.67 5.61 0.34 11.22 0 17 C-0.33 17 -0.66 17 -1 17 C-2.00802609 12.0858728 -2.59062188 7.00527017 -2 2 C-1.34 1.34 -0.68 0.68 0 0 Z " fill="#316EB3" transform="translate(100,36)"/>
<path d="M0 0 C0.33 0 0.66 0 1 0 C1.19430855 2.6246601 1.38073238 5.24946765 1.5625 7.875 C1.61857422 8.62136719 1.67464844 9.36773437 1.73242188 10.13671875 C2.11328125 15.7734375 2.11328125 15.7734375 1 18 C0.34 18 -0.32 18 -1 18 C-0.505 9.09 -0.505 9.09 0 0 Z " fill="#C9DBED" transform="translate(98,63)"/>
<path d="M0 0 C-0.33 0.99 -0.66 1.98 -1 3 C-3.97 3 -6.94 3 -10 3 C-10 2.34 -10 1.68 -10 1 C-3.71428571 -1.42857143 -3.71428571 -1.42857143 0 0 Z " fill="#DDE9F0" transform="translate(67,105)"/>
<path d="M0 0 C0.66 0 1.32 0 2 0 C2.07654536 4.51617599 2.10228696 8.59085217 1 13 C0.67 13 0.34 13 0 13 C-0.19397476 11.02145742 -0.38001321 9.0421352 -0.5625 7.0625 C-0.66691406 5.96035156 -0.77132812 4.85820313 -0.87890625 3.72265625 C-0.91886719 2.82417969 -0.95882812 1.92570312 -1 1 C-0.67 0.67 -0.34 0.34 0 0 Z " fill="#358DCE" transform="translate(90,50)"/>
<path d="M0 0 C1.32 0.66 2.64 1.32 4 2 C3.67 2.99 3.34 3.98 3 5 C2.34 5 1.68 5 1 5 C1 7.64 1 10.28 1 13 C0.67 13 0.34 13 0 13 C0 10.36 0 7.72 0 5 C-0.66 5 -1.32 5 -2 5 C-1.34 3.35 -0.68 1.7 0 0 Z " fill="#2E6AAF" transform="translate(27,72)"/>
<path d="M0 0 C-1.0625 1.5625 -1.0625 1.5625 -3 3 C-6.6875 2.6875 -6.6875 2.6875 -10 2 C-6.64608848 -1.35391152 -4.35183427 -1.05855428 0 0 Z " fill="#C9D1DB" transform="translate(54,69)"/>
<path d="M0 0 C0.99 0.66 1.98 1.32 3 2 C0.85279101 4.14720899 -0.07790143 4.5434221 -3 5 C-3.66 4.67 -4.32 4.34 -5 4 C-5 3.34 -5 2.68 -5 2 C-2.6875 0.875 -2.6875 0.875 0 0 Z " fill="#D7D9DC" transform="translate(46,112)"/>
<path d="M0 0 C0.99 0.33 1.98 0.66 3 1 C2.67 1.66 2.34 2.32 2 3 C2.66 3.33 3.32 3.66 4 4 C3 5 3 5 0.4375 5.0625 C-0.7690625 5.0315625 -0.7690625 5.0315625 -2 5 C-1.125 1.125 -1.125 1.125 0 0 Z " fill="#F7FBFA" transform="translate(56,71)"/>
<path d="M0 0 C0.33 0 0.66 0 1 0 C1.33 3.3 1.66 6.6 2 10 C1.01 10 0.02 10 -1 10 C-1.66 9.34 -2.32 8.68 -3 8 C-2.34 8 -1.68 8 -1 8 C-0.67 5.36 -0.34 2.72 0 0 Z " fill="#5CACDB" transform="translate(83,58)"/>
<path d="M0 0 C2.31 0 4.62 0 7 0 C7 0.66 7 1.32 7 2 C4.36 2.33 1.72 2.66 -1 3 C-0.67 2.01 -0.34 1.02 0 0 Z " fill="#F7F9F9" transform="translate(66,64)"/>
</svg>
