<?xml version="1.0" encoding="UTF-8"?>
<svg version="1.1" xmlns="http://www.w3.org/2000/svg" width="111" height="147">
<path d="M0 0 C36.63 0 73.26 0 111 0 C111 48.51 111 97.02 111 147 C74.37 147 37.74 147 0 147 C0 98.49 0 49.98 0 0 Z " fill="#E54D26" transform="translate(0,0)"/>
<path d="M0 0 C36.63 0 73.26 0 111 0 C111 48.51 111 97.02 111 147 C74.37 147 37.74 147 0 147 C0 98.49 0 49.98 0 0 Z M9 36 C8.9963689 46.1607526 8.9963689 46.1607526 9.53491211 56.2277832 C9.59182724 56.95956284 9.64874237 57.69134247 9.7073822 58.44529724 C9.89280565 60.81417834 10.08489805 63.1824612 10.27734375 65.55078125 C10.40981831 67.22077214 10.54193756 68.89079125 10.67372131 70.56083679 C10.94908396 74.03794923 11.22756308 77.51479229 11.50854492 80.99145508 C11.86747427 85.43370353 12.22026863 89.87641223 12.57096004 94.31931782 C12.84282404 97.75878807 13.11703186 101.19806814 13.39203072 104.63728905 C13.52290435 106.27541218 13.65326694 107.91357623 13.78309441 109.55178261 C13.96505576 111.84110475 14.1499568 114.13017089 14.33569336 116.41918945 C14.49224648 118.3667791 14.49224648 118.3667791 14.65196228 120.35371399 C14.9933454 123.93028171 15.46199523 127.44890354 16 131 C16.88751953 131.29003906 16.88751953 131.29003906 17.79296875 131.5859375 C18.58316406 131.84632813 19.37335937 132.10671875 20.1875 132.375 C20.96480469 132.63023437 21.74210937 132.88546875 22.54296875 133.1484375 C24.14941789 133.70520366 25.73922885 134.31323256 27.3046875 134.9765625 C30.7770237 136.29504378 34.33093214 137.14272853 37.9375 138 C39.32217957 138.3309785 40.70630634 138.66427908 42.08984375 139 C42.75870605 139.16113281 43.42756836 139.32226562 44.11669922 139.48828125 C46 140 46 140 49.00390625 141.1875 C56.59396956 143.24582225 64.66619321 139.81226693 71.9375 137.625 C72.97068359 137.32078125 74.00386719 137.0165625 75.06835938 136.703125 C81.08809125 134.91893595 87.05561165 133.02072013 93 131 C94.86384763 122.09821666 95.71544818 113.17507615 96.4375 104.125 C96.56250733 102.60209931 96.6879229 101.07923208 96.8137207 99.55639648 C97.07719803 96.35699334 97.33739009 93.15734352 97.59570312 89.95751953 C97.93440557 85.77863854 98.28675075 81.60103616 98.64402771 77.42370605 C98.92748403 74.10489908 99.20657387 70.78573295 99.4848938 67.4664917 C99.61821951 65.88453668 99.75300648 64.30270403 99.88937378 62.7210083 C100.08081912 60.49276666 100.26572315 58.2640649 100.44921875 56.03515625 C100.55580811 54.7706665 100.66239746 53.50617676 100.7722168 52.20336914 C101.06450709 46.80962632 101 41.40165671 101 36 C70.64 36 40.28 36 9 36 Z " fill="#FAF8F7" transform="translate(0,0)"/>
<path d="M0 0 C19.14 0 38.28 0 58 0 C58 3.96 58 7.92 58 12 C43.15 12 28.3 12 13 12 C13 15.96 13 19.92 13 24 C27.19 24 41.38 24 56 24 C56 29.52047976 55.96805155 34.40055535 55.34375 39.78515625 C55.20839844 40.97431641 55.07304688 42.16347656 54.93359375 43.38867188 C54.79050781 44.60103516 54.64742187 45.81339844 54.5 47.0625 C54.35691406 48.30966797 54.21382812 49.55683594 54.06640625 50.84179688 C53.71545379 53.89508332 53.3598759 56.94775468 53 60 C49.50698547 61.04583162 46.00481291 62.05698434 42.5 63.0625 C41.51773438 63.35705078 40.53546875 63.65160156 39.5234375 63.95507812 C29.75747651 66.72210041 22.63210957 65.07771797 13 62.4375 C10.03 61.633125 7.06 60.82875 4 60 C3.67 53.73 3.34 47.46 3 41 C12.27734375 40.90234375 12.27734375 40.90234375 15 41 C16 42 16 42 16.09765625 44.06640625 C16.08605469 44.89011719 16.07445313 45.71382812 16.0625 46.5625 C16.05347656 47.38878906 16.04445313 48.21507812 16.03515625 49.06640625 C16.02355469 49.70449219 16.01195313 50.34257813 16 51 C27.13040006 53.2066124 27.13040006 53.2066124 38 51 C39.32 51 40.64 51 42 51 C41.979375 49.824375 41.95875 48.64875 41.9375 47.4375 C41.86718773 43.42970063 42.41131419 40.12080064 43 36 C29.47 36 15.94 36 2 36 C1.67 31.730625 1.34 27.46125 1 23.0625 C0.89558594 21.73484619 0.79117187 20.40719238 0.68359375 19.03930664 C0.60238281 17.96543701 0.52117188 16.89156738 0.4375 15.78515625 C0.35371094 14.70113525 0.26992188 13.61711426 0.18359375 12.50024414 C-0.03468278 8.33876726 0 4.16719744 0 0 Z " fill="#ECE0DB" transform="translate(26,55)"/>
<path d="M0 0 C12.87 0 25.74 0 39 0 C37.07833982 26.35419682 37.07833982 26.35419682 35.50390625 38.15625 C34.92422293 42.57802047 34.41429323 47.00358983 33.9375 51.4375 C33.85242188 52.22842041 33.76734375 53.01934082 33.6796875 53.83422852 C33.0402333 60.04035995 32.63823737 66.24653383 32.42944336 72.48217773 C32.11004866 79.85737433 32.11004866 79.85737433 30 83 C27.25417035 84.13807413 24.85536564 84.92625586 22 85.625 C20.45565579 86.03748579 18.91138464 86.45024521 17.3671875 86.86328125 C16.61791992 87.05615723 15.86865234 87.2490332 15.09667969 87.44775391 C12.41292225 88.15463087 9.77096444 88.97631242 7.125 89.8125 C4.47652251 90.64764708 2.82256813 91 0 91 C0 88.03 0 85.06 0 82 C-1.60875 82.309375 -1.60875 82.309375 -3.25 82.625 C-6.87619096 82.9876191 -8.08291076 82.98362069 -11 81 C-10.01 80.505 -10.01 80.505 -9 80 C-8.505 78.515 -8.505 78.515 -8 77 C-10.31 76.34 -12.62 75.68 -15 75 C-13 74 -13 74 -10.96875 74.59375 C-10.1540625 74.8928125 -9.339375 75.191875 -8.5 75.5 C0.86557035 78.40332681 8.85516344 75.65938427 17.99609375 72.83984375 C21 72 21 72 24 72 C24.04898438 70.82566406 24.09796875 69.65132813 24.1484375 68.44140625 C24.2236429 66.81508955 24.29918236 65.18878827 24.375 63.5625 C24.42140625 62.4168457 24.42140625 62.4168457 24.46875 61.24804688 C24.87923155 52.7305548 25.99454149 44.54639735 27 36 C12.81 36 -1.38 36 -16 36 C-16 32.04 -16 28.08 -16 24 C-1.15 24 13.7 24 29 24 C29 20.04 29 16.08 29 12 C9.86 12 -9.28 12 -29 12 C-28.34 18.93 -27.68 25.86 -27 33 C-26.859375 40.6640625 -26.859375 40.6640625 -27 44 C-27.33 44 -27.66 44 -28 44 C-28 41.69 -28 39.38 -28 37 C-28.66 37 -29.32 37 -30 37 C-30.19821532 34.54213 -30.383682 32.08429938 -30.5625 29.625 C-30.61857422 28.94566406 -30.67464844 28.26632813 -30.73242188 27.56640625 C-31.13967316 21.7562879 -30.60021216 17.0021216 -30 11 C-20.1 11 -10.2 11 0 11 C0 7.37 0 3.74 0 0 Z " fill="#F0652C" transform="translate(55,43)"/>
<path d="M0 0 C8.58 0 17.16 0 26 0 C26.2173783 11.84711755 25.43123404 23.24343471 24 35 C20.50698547 36.04583162 17.00481291 37.05698434 13.5 38.0625 C12.51773438 38.35705078 11.53546875 38.65160156 10.5234375 38.95507812 C0.75747651 41.72210041 -6.36789043 40.07771797 -16 37.4375 C-18.97 36.633125 -21.94 35.82875 -25 35 C-25.33 28.73 -25.66 22.46 -26 16 C-16.72265625 15.90234375 -16.72265625 15.90234375 -14 16 C-13 17 -13 17 -12.90234375 19.06640625 C-12.91394531 19.89011719 -12.92554688 20.71382812 -12.9375 21.5625 C-12.94652344 22.38878906 -12.95554687 23.21507813 -12.96484375 24.06640625 C-12.97644531 24.70449219 -12.98804688 25.34257813 -13 26 C-1.86959994 28.2066124 -1.86959994 28.2066124 9 26 C10.32 26 11.64 26 13 26 C13.33 20.72 13.66 15.44 14 10 C9.38 10 4.76 10 0 10 C0 6.7 0 3.4 0 0 Z " fill="#FCFAF8" transform="translate(55,80)"/>
<path d="M0 0 C9.27734375 -0.09765625 9.27734375 -0.09765625 12 0 C13 1 13 1 13.09765625 3.06640625 C13.08605469 3.89011719 13.07445312 4.71382813 13.0625 5.5625 C13.05347656 6.38878906 13.04445313 7.21507813 13.03515625 8.06640625 C13.02355469 8.70449219 13.01195312 9.34257813 13 10 C13.825 10.12375 14.65 10.2475 15.5 10.375 C19.39772067 11.07102155 23.16739669 12.00880949 27 13 C26.67 13.66 26.34 14.32 26 15 C25.93003986 16.70702735 25.91559846 18.41668003 25.9375 20.125 C25.94652344 21.03507812 25.95554687 21.94515625 25.96484375 22.8828125 C25.97644531 23.58148438 25.98804687 24.28015625 26 25 C17.61344439 23.20288094 9.31616105 21.09651119 1 19 C0.67 12.73 0.34 6.46 0 0 Z " fill="#EAE8E5" transform="translate(29,96)"/>
<path d="M0 0 C14.19 0 28.38 0 43 0 C39 2 39 2 37 2 C38.98 2.33 40.96 2.66 43 3 C42.34 3.66 41.68 4.32 41 5 C41.495 6.485 41.495 6.485 42 8 C33.75 8 25.5 8 17 8 C17 8.66 17 9.32 17 10 C11.72 10 6.44 10 1 10 C0.67 6.7 0.34 3.4 0 0 Z " fill="#F06325" transform="translate(39,68)"/>
<path d="M0 0 C9.57 0 19.14 0 29 0 C28.67 3.3 28.34 6.6 28 10 C15.13 10 2.26 10 -11 10 C-11 9.67 -11 9.34 -11 9 C-7.37 9 -3.74 9 0 9 C0 6.03 0 3.06 0 0 Z " fill="#FCFDFC" transform="translate(55,56)"/>
<path d="M0 0 C2.31 0 4.62 0 7 0 C7.66 1.98 8.32 3.96 9 6 C9.66 6 10.32 6 11 6 C11.66 4.02 12.32 2.04 13 0 C15.31 0 17.62 0 20 0 C20 5.94 20 11.88 20 18 C18.02 18 16.04 18 14 18 C14 15.69 14 13.38 14 11 C13.34 11 12.68 11 12 11 C11.67 12.32 11.34 13.64 11 15 C10.01 14.67 9.02 14.34 8 14 C7.67 13.34 7.34 12.68 7 12 C6.67 13.98 6.34 15.96 6 18 C4.02 18 2.04 18 0 18 C0 12.06 0 6.12 0 0 Z " fill="#151515" transform="translate(56,9)"/>
<path d="M0 0 C0.33 0 0.66 0 1 0 C1 2.31 1 4.62 1 7 C15.52 7 30.04 7 45 7 C45 9.97 45 12.94 45 16 C44.67 16 44.34 16 44 16 C44 13.36 44 10.72 44 8 C35.42 8 26.84 8 18 8 C18 11.3 18 14.6 18 18 C11.07 18 4.14 18 -3 18 C-3.33 14.7 -3.66 11.4 -4 8 C-3.01 8 -2.02 8 -1 8 C-0.67 5.36 -0.34 2.72 0 0 Z " fill="#ECEBEA" transform="translate(37,72)"/>
<path d="M0 0 C1.98 0 3.96 0 6 0 C6 1.98 6 3.96 6 6 C7.65 6 9.3 6 11 6 C11 4.02 11 2.04 11 0 C12.98 0 14.96 0 17 0 C17 5.94 17 11.88 17 18 C15.02 18 13.04 18 11 18 C11 16.35 11 14.7 11 13 C9.35 13 7.7 13 6 13 C6 14.65 6 16.3 6 18 C4.02 18 2.04 18 0 18 C0 12.06 0 6.12 0 0 Z " fill="#161616" transform="translate(17,9)"/>
<path d="M0 0 C4.62 0 9.24 0 14 0 C13.67 4.95 13.34 9.9 13 15 C2.42857143 18.42857143 2.42857143 18.42857143 -3 18 C-2.34 17.34 -1.68 16.68 -1 16 C-0.6936141 13.26565038 -0.4886664 10.61720179 -0.375 7.875 C-0.33632813 7.12089844 -0.29765625 6.36679688 -0.2578125 5.58984375 C-0.16348969 3.72696816 -0.08065338 1.86351745 0 0 Z " fill="#F0662A" transform="translate(55,91)"/>
<path d="M0 0 C5.28 0 10.56 0 16 0 C16 3.3 16 6.6 16 10 C11.05 10 6.1 10 1 10 C0.67 6.7 0.34 3.4 0 0 Z " fill="#E44C24" transform="translate(39,68)"/>
<path d="M0 0 C5.28 0 10.56 0 16 0 C16 1.65 16 3.3 16 5 C14.35 5 12.7 5 11 5 C11 8.96 11 12.92 11 17 C9.02 17 7.04 17 5 17 C5 13.04 5 9.08 5 5 C3.35 5 1.7 5 0 5 C0 3.35 0 1.7 0 0 Z " fill="#0B0B0B" transform="translate(37,10)"/>
<path d="M0 0 C1.98 0 3.96 0 6 0 C6 4.29 6 8.58 6 13 C8.64 13 11.28 13 14 13 C14 14.65 14 16.3 14 18 C9.38 18 4.76 18 0 18 C0 12.06 0 6.12 0 0 Z " fill="#0F0F0F" transform="translate(79,9)"/>
<path d="M0 0 C3.96 0 7.92 0 12 0 C11.67 0.66 11.34 1.32 11 2 C10.93003986 3.70702735 10.91559846 5.41668003 10.9375 7.125 C10.95103516 8.49011719 10.95103516 8.49011719 10.96484375 9.8828125 C10.97644531 10.58148438 10.98804688 11.28015625 11 12 C5.88634986 10.9318153 0.92772031 9.76892524 -4 8 C-2.68 7.34 -1.36 6.68 0 6 C0 5.34 0 4.68 0 4 C-1.32 3.67 -2.64 3.34 -4 3 C-3.01 2.67 -2.02 2.34 -1 2 C-0.67 1.34 -0.34 0.68 0 0 Z " fill="#EBEAEA" transform="translate(44,109)"/>
<path d="M0 0 C19.47 0 38.94 0 59 0 C59 0.33 59 0.66 59 1 C39.86 1 20.72 1 1 1 C1.66 7.93 2.32 14.86 3 22 C3.140625 29.6640625 3.140625 29.6640625 3 33 C2.67 33 2.34 33 2 33 C2 30.69 2 28.38 2 26 C1.34 26 0.68 26 0 26 C-0.19821532 23.54213 -0.383682 21.08429938 -0.5625 18.625 C-0.61857422 17.94566406 -0.67464844 17.26632813 -0.73242188 16.56640625 C-1.13967316 10.7562879 -0.60021216 6.0021216 0 0 Z " fill="#EC744E" transform="translate(25,54)"/>
<path d="M0 0 C2.64 0 5.28 0 8 0 C9.35439668 2.70879335 9.06501451 5.00933268 9 8 C8.34 8 7.68 8 7 8 C7 8.66 7 9.32 7 10 C6.34 10 5.68 10 5 10 C5.33 11.32 5.66 12.64 6 14 C4.68 14 3.36 14 2 14 C0.2488427 15.4166747 0.2488427 15.4166747 -1 17 C-1.02715383 15.25008666 -1.04646551 13.50005055 -1.0625 11.75 C-1.07410156 10.77546875 -1.08570312 9.8009375 -1.09765625 8.796875 C-1.01153986 6.33050152 -0.6623822 4.35745475 0 2 C0 1.34 0 0.68 0 0 Z " fill="#E9ECEB" transform="translate(32,98)"/>
<path d="M0 0 C0.99 0 1.98 0 3 0 C3 8.91 3 17.82 3 27 C3.66 27.33 4.32 27.66 5 28 C5 29.32 5 30.64 5 32 C4.34 32 3.68 32 3 32 C3 35.96 3 39.92 3 44 C2.67 44 2.34 44 2 44 C-0.38776806 13.87347956 -0.38776806 13.87347956 0 0 Z " fill="#E4532F" transform="translate(13,80)"/>
<path d="M0 0 C9.27734375 -0.09765625 9.27734375 -0.09765625 12 0 C13 1 13 1 13.09765625 3.06640625 C13.08605469 3.89011719 13.07445312 4.71382813 13.0625 5.5625 C13.05347656 6.38878906 13.04445313 7.21507813 13.03515625 8.06640625 C13.02355469 8.70449219 13.01195312 9.34257813 13 10 C15.97 10.495 15.97 10.495 19 11 C19 11.33 19 11.66 19 12 C16.69 12 14.38 12 12 12 C11.67 8.7 11.34 5.4 11 2 C8.36 2 5.72 2 3 2 C3 2.66 3 3.32 3 4 C4.32 4.33 5.64 4.66 7 5 C5.68 5 4.36 5 3 5 C3.33 7.31 3.66 9.62 4 12 C3.67 12 3.34 12 3 12 C2.67 14.31 2.34 16.62 2 19 C1.67 19 1.34 19 1 19 C0.67 12.73 0.34 6.46 0 0 Z " fill="#EAC6BC" transform="translate(29,96)"/>
<path d="M0 0 C4.34948226 6.5242234 1.79720027 16.51201176 1 24 C0.67 24 0.34 24 0 24 C-2.66514806 7.1070615 -2.66514806 7.1070615 0 0 Z " fill="#E55634" transform="translate(96,72)"/>
<path d="M0 0 C4.48455563 4.48455563 3.05464763 14.19582276 3.0625 20.25 C3.04684498 21.833393 3.02804921 23.41677806 3 25 C2.67 25 2.34 25 2 25 C2 22.69 2 20.38 2 18 C1.34 18 0.68 18 0 18 C-0.19430855 15.3753399 -0.38073238 12.75053235 -0.5625 10.125 C-0.61857422 9.37863281 -0.67464844 8.63226563 -0.73242188 7.86328125 C-1.11328125 2.2265625 -1.11328125 2.2265625 0 0 Z " fill="#E75F3E" transform="translate(25,62)"/>
<path d="M0 0 C5.94 1.485 5.94 1.485 12 3 C12 3.66 12 4.32 12 5 C11.34 5 10.68 5 10 5 C10 5.66 10 6.32 10 7 C11.65 7 13.3 7 15 7 C10.8204355 9.78637633 8.85331323 8.79562512 4 8 C4.99 6.35 5.98 4.7 7 3 C4.69 2.34 2.38 1.68 0 1 C0 0.67 0 0.34 0 0 Z " fill="#E46645" transform="translate(40,117)"/>
<path d="M0 0 C4 4 4 4 4 8 C3.34 8 2.68 8 2 8 C2 11.96 2 15.92 2 20 C1.67 20 1.34 20 1 20 C0.67 13.4 0.34 6.8 0 0 Z " fill="#E87A5F" transform="translate(14,104)"/>
<path d="M0 0 C0.66 0 1.32 0 2 0 C2.144375 1.11375 2.28875 2.2275 2.4375 3.375 C2.78372035 6.82142047 2.78372035 6.82142047 4 9 C3.01 9.33 2.02 9.66 1 10 C1 9.34 1 8.68 1 8 C-1.31 8.33 -3.62 8.66 -6 9 C-3 7 -3 7 0 7 C0 4.69 0 2.38 0 0 Z " fill="#F47E51" transform="translate(79,108)"/>
<path d="M0 0 C0.99 0 1.98 0 3 0 C2.67 5.28 2.34 10.56 2 16 C1.67 16 1.34 16 1 16 C0.67 10.72 0.34 5.44 0 0 Z " fill="#EC6F51" transform="translate(93,104)"/>
<path d="M0 0 C0.33 0 0.66 0 1 0 C1.24887295 2.10192697 1.4734719 4.20673964 1.6875 6.3125 C1.81511719 7.48425781 1.94273438 8.65601562 2.07421875 9.86328125 C2 13 2 13 -1 16 C-0.67 10.72 -0.34 5.44 0 0 Z " fill="#F28456" transform="translate(81,88)"/>
<path d="M0 0 C0.66 0 1.32 0 2 0 C4 2 4 2 4.125 5.625 C4.08375 6.73875 4.0425 7.8525 4 9 C3.67 8.01 3.34 7.02 3 6 C2.34 6 1.68 6 1 6 C0.67 6.66 0.34 7.32 0 8 C0 5.36 0 2.72 0 0 Z " fill="#F06F35" transform="translate(84,54)"/>
<path d="M0 0 C5.94 1.485 5.94 1.485 12 3 C12 3.33 12 3.66 12 4 C9.125 4.625 9.125 4.625 6 5 C5.34 4.34 4.68 3.68 4 3 C1.93125966 2.3574765 1.93125966 2.3574765 0 2 C0 1.34 0 0.68 0 0 Z " fill="#FADED5" transform="translate(16,131)"/>
<path d="M0 0 C2.31 0.33 4.62 0.66 7 1 C7 2.65 7 4.3 7 6 C6.34 6 5.68 6 5 6 C4.67 5.01 4.34 4.02 4 3 C1.98491642 2.26676204 1.98491642 2.26676204 0 2 C0 1.34 0 0.68 0 0 Z " fill="#EDE8EC" transform="translate(32,98)"/>
<path d="M0 0 C2.31 0 4.62 0 7 0 C7 0.99 7 1.98 7 3 C4.0625 2.625 4.0625 2.625 1 2 C0.67 1.34 0.34 0.68 0 0 Z " fill="#E96442" transform="translate(27,133)"/>
</svg>
