<?xml version="1.0" encoding="UTF-8"?>
<svg version="1.1" xmlns="http://www.w3.org/2000/svg" width="135" height="141">
<path d="M0 0 C44.55 0 89.1 0 135 0 C135 46.53 135 93.06 135 141 C90.45 141 45.9 141 0 141 C0 94.47 0 47.94 0 0 Z " fill="#F6DE21" transform="translate(0,0)"/>
<path d="M0 0 C44.55 0 89.1 0 135 0 C135 46.53 135 93.06 135 141 C90.45 141 45.9 141 0 141 C0 94.47 0 47.94 0 0 Z M9 15 C9 53.61 9 92.22 9 132 C47.61 132 86.22 132 126 132 C126 93.39 126 54.78 126 15 C87.39 15 48.78 15 9 15 Z " fill="#FEFEFB" transform="translate(0,0)"/>
<path d="M0 0 C2.05182707 1.43796077 3.72248854 2.84748854 5.5 4.625 C5.5 5.615 5.5 6.605 5.5 7.625 C-1.25 11.625 -1.25 11.625 -3.5 11.625 C-3.87125 11.13 -4.2425 10.635 -4.625 10.125 C-7.67092388 7.68826089 -10.68776094 8.43751283 -14.5 8.625 C-13.81926823 13.3579738 -13.81926823 13.3579738 -10.93164062 16.93359375 C-8.90750724 18.09318902 -6.8563196 19.12261755 -4.75 20.125 C7.21296864 26.37162104 7.21296864 26.37162104 9.5 31.625 C10.49245062 36.18051102 10.02588287 40.17722468 8 44.375 C5.30904249 48.38340546 2.03751887 50.96762704 -2.5 52.625 C-9.27601878 53.58129297 -16.58311473 53.39029063 -22.5 49.625 C-24.85654607 47.52643371 -26.98667822 45.41103172 -28.5 42.625 C-27.5 39.625 -27.5 39.625 -24.6875 37.8125 C-21.5 36.625 -21.5 36.625 -19.375 37.25 C-17.5 38.625 -17.5 38.625 -15.6875 40.25 C-12.56633909 42.21187257 -10.11397748 41.88783473 -6.5 41.625 C-5.015 41.13 -5.015 41.13 -3.5 40.625 C-3.17 38.315 -2.84 36.005 -2.5 33.625 C-5.37515283 32.11802334 -8.25997898 30.9710233 -11.3125 29.875 C-16.77419376 27.71291148 -21.49369865 24.84457143 -24.65625 19.76953125 C-26.33917602 15.49209428 -26.22949257 11.11613685 -25.5 6.625 C-23.49422604 2.8415334 -20.82443287 0.47116545 -17.25 -1.8125 C-10.9684851 -3.09735532 -5.60661604 -3.46200881 0 0 Z " fill="#0F0D05" transform="translate(107.5,70.375)"/>
<path d="M0 0 C3.96 0 7.92 0 12 0 C12.07443429 5.71082747 12.12873634 11.4213694 12.16479492 17.13256836 C12.17983491 19.07337364 12.20027214 21.0141452 12.22631836 22.95483398 C12.26291295 25.75252632 12.27977448 28.54976733 12.29296875 31.34765625 C12.30845261 32.2083522 12.32393646 33.06904816 12.33988953 33.95582581 C12.34139576 39.40875147 11.59825683 43.17566175 9 48 C3.58977935 53.0044541 -0.03581855 54.40265402 -7.27734375 54.25 C-13.36473851 53.69104266 -17.13452934 50.54761254 -21 46 C-21 45.01 -21 44.02 -21 43 C-16.07361963 38.96932515 -16.07361963 38.96932515 -12.8125 39.0625 C-11 40 -11 40 -9.6875 41.5625 C-7.48134431 43.7565442 -7.48134431 43.7565442 -1 43 C-0.67 28.81 -0.34 14.62 0 0 Z " fill="#131105" transform="translate(61,69)"/>
<path d="M0 0 C3.79303725 1.00193437 6.71536341 1.81024227 10 4 C10.1875 7.625 10.1875 7.625 10 11 C6.32751381 13.35039116 3.28842905 13.51756902 -1 13 C-2.64453125 11.87890625 -2.64453125 11.87890625 -4.1875 10.5 C-6.87110649 7.55709077 -6.87110649 7.55709077 -11 8 C-11 7.34 -11 6.68 -11 6 C-9.68 6 -8.36 6 -7 6 C-7 5.34 -7 4.68 -7 4 C-4.36 3.67 -1.72 3.34 1 3 C0.67 2.01 0.34 1.02 0 0 Z " fill="#E7D21F" transform="translate(95,100)"/>
<path d="M0 0 C0.99 0.66 1.98 1.32 3 2 C3 2.66 3 3.32 3 4 C4.32 3.67 5.64 3.34 7 3 C6.62875 3.86625 6.2575 4.7325 5.875 5.625 C4.85559952 9.55697326 5.42687504 11.32937509 7 15 C1.66195747 13.5320383 -4.01480324 10.98519676 -8 7 C-8.04080783 5.00041636 -8.04254356 2.99954746 -8 1 C-5.22899606 -0.38550197 -3.0665294 -0.1877467 0 0 Z " fill="#F5E01A" transform="translate(101,78)"/>
<path d="M0 0 C0.33 0 0.66 0 1 0 C1.33 14.19 1.66 28.38 2 43 C3.485 42.505 3.485 42.505 5 42 C6.35432675 43.31200404 7.68733482 44.64631404 9 46 C9 46.33 9 46.66 9 47 C8.41992188 47.04898438 7.83984375 47.09796875 7.2421875 47.1484375 C2.56076908 47.59649405 -1.57485459 48.298021 -6 50 C-5.360625 49.0925 -4.72125 48.185 -4.0625 47.25 C-1.5677423 43.31886665 -0.89630302 40.46167941 -0.79467773 35.87402344 C-0.77473251 35.07349548 -0.75478729 34.27296753 -0.73423767 33.44818115 C-0.70916893 32.16672211 -0.70916893 32.16672211 -0.68359375 30.859375 C-0.66281265 29.97719299 -0.64203156 29.09501099 -0.62062073 28.18609619 C-0.55535133 25.37414169 -0.49634553 22.56209555 -0.4375 19.75 C-0.39429327 17.84113644 -0.35067829 15.93228207 -0.30664062 14.0234375 C-0.19969313 9.34905174 -0.09836215 4.67457398 0 0 Z " fill="#E8D41E" transform="translate(73,70)"/>
<path d="M0 0 C0.66 0.33 1.32 0.66 2 1 C2.04241723 3.33294775 2.04092937 5.66702567 2 8 C1 9 1 9 -0.84765625 9.09765625 C-2.8984375 9.06510417 -4.94921875 9.03255208 -7 9 C-7.33 6.36 -7.66 3.72 -8 1 C-5.26094655 -0.36952673 -3.02912668 -0.12621361 0 0 Z " fill="#F6DE1F" transform="translate(103,103)"/>
<path d="M0 0 C0.66 0.33 1.32 0.66 2 1 C2 1.66 2 2.32 2 3 C3.32 2.67 4.64 2.34 6 2 C5.62875 2.86625 5.2575 3.7325 4.875 4.625 C3.85559952 8.55697326 4.42687504 10.32937509 6 14 C1.76570244 12.68938409 -2.07407404 11.05643741 -6 9 C-6 8.67 -6 8.34 -6 8 C-4.35 7.67 -2.7 7.34 -1 7 C-0.67 4.69 -0.34 2.38 0 0 Z " fill="#DECB1E" transform="translate(102,79)"/>
<path d="M0 0 C2.30385176 1.27109063 3.39860741 2.80846648 4.8125 5 C3.8225 5.495 3.8225 5.495 2.8125 6 C2.8125 5.34 2.8125 4.68 2.8125 4 C-1.58064793 5.01160848 -1.58064793 5.01160848 -4.5625 8.125 C-4.76875 8.74375 -4.975 9.3625 -5.1875 10 C-6.6875 8.6875 -6.6875 8.6875 -8.1875 7 C-8.1875 6.01 -8.1875 5.02 -8.1875 4 C-3.29861111 0 -3.29861111 0 0 0 Z " fill="#1A1705" transform="translate(48.1875,108)"/>
<path d="M0 0 C0.680625 0.7425 1.36125 1.485 2.0625 2.25 C5.03073132 5.24381953 8.28714872 7.03437285 12 9 C10 11 10 11 6.875 11.125 C5.92625 11.08375 4.9775 11.0425 4 11 C3.67 10.34 3.34 9.68 3 9 C3.66 9 4.32 9 5 9 C5 8.34 5 7.68 5 7 C2.525 6.01 2.525 6.01 0 5 C0 3.35 0 1.7 0 0 Z " fill="#E9D71E" transform="translate(83,90)"/>
<path d="M0 0 C1.60875 0.928125 1.60875 0.928125 3.25 1.875 C5.79780984 3.3323679 8.35259355 4.72924491 11 6 C10.34 6 9.68 6 9 6 C9 6.66 9 7.32 9 8 C8.34 8 7.68 8 7 8 C7 7.34 7 6.68 7 6 C5.8553125 6.5259375 5.8553125 6.5259375 4.6875 7.0625 C2 8 2 8 -1 7 C-0.01 6.34 0.98 5.68 2 5 C1.34 3.35 0.68 1.7 0 0 Z " fill="#EAD61C" transform="translate(82,117)"/>
<path d="M0 0 C1.32 0.66 2.64 1.32 4 2 C3.67 3.32 3.34 4.64 3 6 C7.29 6.33 11.58 6.66 16 7 C16 7.33 16 7.66 16 8 C4.47835991 8.55353075 4.47835991 8.55353075 -1 5 C-0.67 3.35 -0.34 1.7 0 0 Z " fill="#392F0C" transform="translate(46,115)"/>
<path d="M0 0 C-1.8125 1.5625 -1.8125 1.5625 -4 3 C-4.99 2.67 -5.98 2.34 -7 2 C-7 2.66 -7 3.32 -7 4 C-6.34 4 -5.68 4 -5 4 C-4.67 5.32 -4.34 6.64 -4 8 C-4.99 8 -5.98 8 -7 8 C-8 7 -8 7 -8.0625 3.9375 C-8.041875 2.968125 -8.02125 1.99875 -8 1 C-5.29120665 -0.35439668 -2.99066732 -0.06501451 0 0 Z " fill="#DDCA1D" transform="translate(101,78)"/>
<path d="M0 0 C2.31 0.33 4.62 0.66 7 1 C7.33 1.99 7.66 2.98 8 4 C7.34 4.66 6.68 5.32 6 6 C4.02 5.01 2.04 4.02 0 3 C0 2.01 0 1.02 0 0 Z " fill="#E5D01C" transform="translate(103,66)"/>
<path d="M0 0 C3.63 0.66 7.26 1.32 11 2 C7 5 7 5 4.75 4.6875 C4.1725 4.460625 3.595 4.23375 3 4 C3 3.34 3 2.68 3 2 C2.01 2 1.02 2 0 2 C0 1.34 0 0.68 0 0 Z " fill="#040305" transform="translate(88,112)"/>
<path d="M0 0 C1 3 1 3 1 5 C0.01 5.33 -0.98 5.66 -2 6 C-2.33 9.3 -2.66 12.6 -3 16 C-3.33 16 -3.66 16 -4 16 C-4.63019694 6.00437637 -4.63019694 6.00437637 -2 1.8125 C-1.34 1.214375 -0.68 0.61625 0 0 Z " fill="#322B07" transform="translate(86,72)"/>
<path d="M0 0 C3 1 3 1 4.1875 3.0625 C4.455625 3.701875 4.72375 4.34125 5 5 C3.02 5.33 1.04 5.66 -1 6 C-1.33 4.35 -1.66 2.7 -2 1 C-1.34 0.67 -0.68 0.34 0 0 Z " fill="#EBD520" transform="translate(77,112)"/>
<path d="M0 0 C2.91387197 0.2913872 3.82565583 0.79452294 5.75 3.0625 C6.1625 3.701875 6.575 4.34125 7 5 C6.01 5.495 6.01 5.495 5 6 C5 5.34 5 4.68 5 4 C3.35 4.33 1.7 4.66 0 5 C-0.5625 3.0625 -0.5625 3.0625 -1 1 C-0.67 0.67 -0.34 0.34 0 0 Z " fill="#231D08" transform="translate(46,108)"/>
<path d="M0 0 C6.75 -0.125 6.75 -0.125 9 1 C8.67 2.32 8.34 3.64 8 5 C7.4225 4.505 6.845 4.01 6.25 3.5 C3.89599371 1.63019987 3.89599371 1.63019987 0 2 C0 1.34 0 0.68 0 0 Z " fill="#DFCD1B" transform="translate(84,106)"/>
<path d="M0 0 C0.66 0 1.32 0 2 0 C2 2.31 2 4.62 2 7 C1.01 7.33 0.02 7.66 -1 8 C-0.67 5.36 -0.34 2.72 0 0 Z " fill="#DFCE1E" transform="translate(103,104)"/>
<path d="M0 0 C4.875 4.75 4.875 4.75 6 7 C3.83125748 6.49396008 2.00032373 6.00016187 0 5 C0 3.35 0 1.7 0 0 Z " fill="#D9CA20" transform="translate(83,90)"/>
</svg>
