<?xml version="1.0" encoding="UTF-8"?>
<svg version="1.1" xmlns="http://www.w3.org/2000/svg" width="1024" height="1024">
<path d="M0 0 C7.61154332 0.00651495 15.22306837 0.00112894 22.83461082 -0.00440756 C37.74219309 -0.01486976 52.64975807 -0.01405414 67.55734193 -0.00824974 C80.60413171 -0.00319551 93.65091519 -0.00191592 106.69770575 -0.00429502 C107.56703325 -0.00444779 108.43636076 -0.00460056 109.33203152 -0.00475796 C112.86194045 -0.00538076 116.39184938 -0.00601757 119.92175831 -0.00667749 C152.95689601 -0.0127796 185.99202278 -0.00727387 219.0271588 0.0035163 C248.30239742 0.01300574 277.57761864 0.01215641 306.85285711 0.00259432 C339.83205065 -0.00814188 372.81123455 -0.01234664 405.79042959 -0.00618115 C409.31347672 -0.00553983 412.83652385 -0.00491414 416.35957098 -0.00429502 C417.22687654 -0.00413687 418.09418209 -0.00397871 418.98776963 -0.00381577 C432.01836298 -0.00155191 445.04894931 -0.00418055 458.07954168 -0.00925413 C472.91314342 -0.01500135 487.74672535 -0.01348234 502.58032465 -0.00269264 C510.13471626 0.00262276 517.6890756 0.00488878 525.24346685 -0.00199095 C667.72771154 -0.12345724 667.72771154 -0.12345724 723.52863836 54.26333651 C776.20624053 107.41694111 773.85522625 180.04433763 773.79197481 249.79303568 C773.78546392 257.43231163 773.79084423 265.07156934 773.79638243 272.71084443 C773.80684791 287.67300378 773.80602768 302.63514593 773.80022461 317.59730688 C773.79517152 330.69181614 773.79389026 343.78631914 773.79626989 356.88082918 C773.79649905 358.18930028 773.79649905 358.18930028 773.79673283 359.52420513 C773.79735562 363.06619051 773.79799243 366.6081759 773.79865236 370.15016127 C773.80475525 403.30216318 773.79924749 436.45415421 773.78845857 469.60615444 C773.77896905 498.98863242 773.77981837 528.37109305 773.78938055 557.75357088 C773.80011542 590.84920995 773.80432225 623.94483942 773.79815602 657.04047999 C773.79751469 660.57560127 773.79688901 664.11072255 773.79626989 667.64584383 C773.79611174 668.51612961 773.79595358 669.38641539 773.79579064 670.28307347 C773.79352623 683.36172256 773.79615645 696.44036466 773.801229 709.51901278 C773.8069747 724.40646609 773.80546038 739.29389967 773.79466751 754.18135056 C773.78935008 761.76396501 773.78708954 769.3465473 773.79396582 776.9291614 C773.85647685 850.54633849 773.709304 918.66536045 719.46613836 974.57583651 C665.45055183 1026.81678365 593.35068096 1024.59068866 523.05727673 1024.52667302 C515.44573341 1024.52015807 507.83420836 1024.52554408 500.22266591 1024.53108058 C485.31508364 1024.54154278 470.40751865 1024.54072716 455.49993479 1024.53492275 C442.45314502 1024.52986852 429.40636153 1024.52858893 416.35957098 1024.53096804 C415.49024348 1024.53112081 414.62091597 1024.53127358 413.72524521 1024.53143098 C410.19533627 1024.53205377 406.66542734 1024.53269059 403.13551842 1024.53335051 C370.10038072 1024.53945262 337.06525394 1024.53394688 304.03011793 1024.52315671 C274.7548793 1024.51366728 245.47965809 1024.51451661 216.20441961 1024.5240787 C183.22522608 1024.53481489 150.24604218 1024.53901966 117.26684713 1024.53285417 C113.74380001 1024.53221284 110.22075288 1024.53158716 106.69770575 1024.53096804 C105.83040019 1024.53080988 104.96309463 1024.53065173 104.06950709 1024.53048878 C91.03891374 1024.52822492 78.00832742 1024.53085356 64.97773504 1024.53592714 C50.14413331 1024.54167436 35.31055138 1024.54015535 20.47695208 1024.52936566 C12.92256046 1024.52405026 5.36820112 1024.52178424 -2.18619013 1024.52866396 C-144.67043482 1024.65013025 -144.67043482 1024.65013025 -200.47136164 970.26333651 C-253.14896381 917.10973191 -250.79794952 844.48233538 -250.73469809 774.73363733 C-250.72818719 767.09436138 -250.7335675 759.45510367 -250.73910571 751.81582859 C-250.74957119 736.85366923 -250.74875095 721.89152708 -250.74294788 706.92936614 C-250.7378948 693.83485687 -250.73661354 680.74035388 -250.73899317 667.64584383 C-250.73914594 666.77352977 -250.73929871 665.90121571 -250.73945611 665.00246788 C-250.7400789 661.4604825 -250.74071571 657.91849712 -250.74137564 654.37651174 C-250.74747853 621.22450983 -250.74197077 588.07251881 -250.73118184 554.92051858 C-250.72169232 525.5380406 -250.72254165 496.15557996 -250.73210382 466.77310213 C-250.74283869 433.67746306 -250.74704552 400.5818336 -250.7408793 367.48619303 C-250.74023797 363.95107175 -250.73961228 360.41595047 -250.73899317 356.88082918 C-250.73883501 356.0105434 -250.73867686 355.14025762 -250.73851391 354.24359955 C-250.73624951 341.16495046 -250.73887972 328.08630836 -250.74395227 315.00766024 C-250.74969797 300.12020693 -250.74818366 285.23277334 -250.73739079 270.34532246 C-250.73207335 262.762708 -250.72981282 255.18012571 -250.73668909 247.59751162 C-250.79920012 173.98033452 -250.65202727 105.86131256 -196.40886164 49.95083651 C-142.3932751 -2.29011063 -70.29340423 -0.06401565 0 0 Z " fill="#000000" transform="translate(250.47136163711548,-0.2633365076035261)"/>
<path d="M0 0 C58.74 0 117.48 0 178 0 C181.51091853 7.60699015 184.98733027 15.16282403 188.21484375 22.8828125 C188.58702026 23.76745178 188.95919678 24.65209106 189.34265137 25.5635376 C190.1337242 27.44421292 190.92385997 29.32528265 191.71310425 31.20672607 C193.8244281 36.23894 195.9436378 41.26783155 198.0625 46.296875 C198.48655624 47.30370331 198.91061249 48.31053162 199.34751892 49.34786987 C203.01026436 58.0382369 206.71347897 66.7107463 210.4375 75.375 C216.21467703 88.82182319 221.95951048 102.2821482 227.6875 115.75 C228.10877167 116.74046326 228.53004333 117.73092651 228.96408081 118.75140381 C231.11613154 123.81136946 233.26785906 128.87147247 235.41943359 133.93164062 C239.19612443 142.81340631 242.97566168 151.69396066 246.7550354 160.57458496 C248.83681171 165.46633829 250.91839596 170.35817336 253 175.25 C253.83333242 177.20833372 254.66666575 179.16666706 255.5 181.125 C263.83333333 200.70833333 272.16666667 220.29166667 280.5 239.875 C280.91245972 240.84427933 281.32491943 241.81355865 281.74987793 242.81221008 C282.5836211 244.77150856 283.41736133 246.73080828 284.25109863 248.69010925 C286.32813753 253.57118612 288.40522659 258.45224163 290.48242188 263.33325195 C294.30750739 272.32161094 298.13213885 281.31016219 301.95503235 290.29945374 C313.54814952 317.56583528 313.54814952 317.56583528 325.1875 344.8125 C325.67476562 345.95098389 326.16203125 347.08946777 326.6640625 348.26245117 C327.09847656 349.2754126 327.53289062 350.28837402 327.98046875 351.33203125 C328.35067139 352.19546143 328.72087402 353.0588916 329.10229492 353.94848633 C329.70013385 355.3147198 330.33306593 356.66613185 331 358 C332.65164862 354.20433494 334.30146849 350.40788059 335.94995117 346.61083984 C336.50484829 345.33330427 337.06015367 344.05594591 337.6159668 342.77880859 C342.03901007 332.61435403 346.37314547 322.41339862 350.68685913 312.20210266 C355.27486381 301.34244823 359.89212382 290.49537912 364.51473999 279.65042114 C367.01573297 273.78286984 369.51557824 267.91482951 372.015625 262.046875 C372.52067062 260.86154678 373.02571625 259.67621857 373.54606628 258.45497131 C378.4299239 246.99225197 383.30937715 235.5276608 388.1875 224.0625 C388.79705032 222.62990341 388.79705032 222.62990341 389.41891479 221.16836548 C391.4621108 216.36633577 393.50524608 211.56428024 395.54833984 206.76220703 C399.28082904 197.9894884 403.01393246 189.21703114 406.74697876 180.44454956 C408.8313433 175.54637664 410.91566976 170.64818752 413 165.75 C413.83333315 163.79166659 414.66666648 161.83333326 415.5 159.875 C415.9125 158.905625 416.325 157.93625 416.75 156.9375 C424.66666667 138.33333333 432.58333333 119.72916667 440.5 101.125 C440.91242447 100.15580124 441.32484894 99.18660248 441.74977112 98.18803406 C442.58386373 96.22791897 443.41796 94.26780545 444.25205994 92.30769348 C446.32380632 87.43913368 448.3954908 82.57054756 450.46704102 77.7019043 C454.35503784 68.56435553 458.24366537 59.4270766 462.1343689 50.29067993 C463.96245166 45.99775927 465.79019833 41.70469554 467.61791992 37.41162109 C468.48526531 35.37460309 469.35277348 33.3376544 470.22045898 31.30078125 C471.42733958 28.4676261 472.63370727 25.63425325 473.83984375 22.80078125 C474.21112396 21.92910309 474.58240417 21.05742493 474.9649353 20.15933228 C477.394488 14.44755961 479.7852125 8.72171163 482.12719727 2.97338867 C483 1 483 1 484 0 C486.12626798 -0.09690407 488.25581819 -0.12186822 490.3842926 -0.12025452 C491.05893317 -0.12110894 491.73357373 -0.12196337 492.42865795 -0.12284368 C494.70580162 -0.12450039 496.9828728 -0.11897404 499.26000977 -0.11352539 C500.88575234 -0.11324353 502.51149505 -0.11340122 504.13723755 -0.1139679 C508.56473413 -0.11425593 512.99220387 -0.10835827 517.41969419 -0.10139394 C522.04150842 -0.09516136 526.6633232 -0.09455668 531.28514099 -0.09336853 C540.04348237 -0.09025493 548.80181133 -0.08204115 557.56014723 -0.07201904 C567.52854013 -0.0608588 577.49693361 -0.05534768 587.4653312 -0.05032361 C607.97689441 -0.03985856 628.48844642 -0.02225857 649 0 C649 2.31 649 4.62 649 7 C647.54980469 7.36351562 647.54980469 7.36351562 646.0703125 7.734375 C631.86523303 11.35789579 619.11739459 15.20426161 610.28125 27.8203125 C605.58495127 35.80974753 603.84517286 43.57329206 603.87136555 52.76126575 C603.86961251 53.53960173 603.86785947 54.3179377 603.86605331 55.11985961 C603.8613878 57.7375423 603.86386024 60.35516958 603.86628723 62.97285461 C603.86441954 64.86475218 603.862119 66.75664936 603.85942191 68.64854592 C603.85329236 73.85513103 603.85343886 79.06170012 603.85461628 84.26828802 C603.85482 89.88054171 603.84930433 95.49279022 603.84455872 101.1050415 C603.83624528 112.10337798 603.83350356 123.1017091 603.83294634 134.10004846 C603.83247151 143.03817281 603.83041841 151.97629539 603.82724571 160.91441917 C603.81987108 182.1211678 603.81372109 203.32791514 603.81424427 224.53466511 C603.81425985 225.21296614 603.81427543 225.89126717 603.81429148 226.59012278 C603.81437459 230.02808107 603.81447363 233.46603935 603.81457619 236.90399764 C603.81459613 237.58679567 603.81461608 238.26959369 603.81463663 238.97308257 C603.81467706 240.35386685 603.81471886 241.73465112 603.81476202 243.11543539 C603.81537479 264.59869221 603.80786815 286.08193324 603.79418945 307.56518555 C603.7788299 331.69829841 603.77023582 355.83139818 603.77115268 379.9645173 C603.77148496 392.74370458 603.76872419 405.52287406 603.75797462 418.30205727 C603.74888156 429.1818758 603.74668454 440.06166846 603.75348405 450.94148914 C603.75675528 456.49378866 603.75678418 462.04603852 603.7481308 467.59833336 C603.74029155 472.68046108 603.74167083 477.76249954 603.75041493 482.84462502 C603.75195561 484.68377167 603.75011248 486.5229249 603.74455485 488.3620638 C603.73750068 490.86188756 603.74278376 493.3613977 603.75111103 495.86121082 C603.74365876 496.93213464 603.74365876 496.93213464 603.73605594 498.02469328 C603.81309604 508.96471872 607.53138877 519.17340705 615.0390625 527.15625 C624.39019185 535.94854692 636.59889129 539.64806559 649 542 C649 544.31 649 546.62 649 549 C579.7 549 510.4 549 439 549 C439 546.69 439 544.38 439 542 C440.08796875 541.70867188 441.1759375 541.41734375 442.296875 541.1171875 C451.36969218 538.61651945 459.86593109 535.8703212 468 531 C468.67417969 530.59652344 469.34835937 530.19304688 470.04296875 529.77734375 C478.2020098 523.88770484 481.93972331 512.92002547 483.59071136 503.38371503 C484.42921155 496.45157619 484.26623255 489.47622027 484.24050903 482.5045929 C484.24138225 480.7379337 484.24313536 478.97127477 484.24568737 477.2046172 C484.25014207 472.37236609 484.2421831 467.54020428 484.23213124 462.70796454 C484.22347191 457.48861365 484.22641866 452.26926755 484.22793579 447.0499115 C484.22898307 438.014431 484.22272286 428.97897946 484.21146011 419.94350624 C484.19518682 406.87982829 484.18999523 393.8161643 484.18748413 380.75247731 C484.1831099 359.55608697 484.16980817 338.35971205 484.15087891 317.16333008 C484.13251307 296.5764168 484.11836001 275.98950771 484.10986328 255.40258789 C484.10933783 254.13301773 484.10881239 252.86344758 484.10827102 251.55540559 C484.10566089 245.18616825 484.10313349 238.81693087 484.10064721 232.44769347 C484.07992318 179.63178499 484.04470505 126.81589325 484 74 C483.63495298 74.87131026 483.26990597 75.74262053 482.89379692 76.64033413 C481.51193116 79.93823326 480.12979791 83.23602004 478.74749565 86.53373623 C478.15440233 87.94880685 477.56140927 89.36391949 476.96852684 90.77907848 C471.40368766 104.06152745 465.77736658 117.3170444 460.125 130.5625 C459.1359711 132.88212027 458.14704149 135.20178288 457.15820312 137.52148438 C455.11789086 142.30761565 453.07716572 147.09357054 451.03613281 151.87939453 C446.66284578 162.13482428 442.29483528 172.39250097 437.92660522 182.65008545 C435.53852789 188.25770197 433.15011385 193.86517507 430.76171875 199.47265625 C430.28791275 200.5850769 429.81410675 201.69749756 429.32594299 202.84362793 C426.42096976 209.66400256 423.51582036 216.48430213 420.61054993 223.30455017 C408.55173775 251.61314424 396.49810884 279.92393556 384.45166016 308.23779297 C380.71889799 317.01115319 376.98551821 325.78425059 373.25219727 334.55737305 C372.00339748 337.49201602 370.75462397 340.42667018 369.50585938 343.36132812 C365.72848027 352.23833083 361.95099495 361.11528829 358.17304993 369.99205017 C347.10772276 395.99145528 336.04977813 421.99398294 325 448 C322.57798406 453.70029435 320.15589738 459.40055863 317.73361206 465.10073853 C317.0393551 466.73449758 316.34512068 468.3682662 315.65090942 470.00204468 C311.32440368 480.1839488 306.99417343 490.36425953 302.66015625 500.54296875 C301.75105742 502.67830382 300.84195911 504.8136391 299.93286133 506.94897461 C298.1845243 511.05548043 296.43557368 515.16172419 294.6862793 519.26782227 C293.87933438 521.16289757 293.07244768 523.05799766 292.265625 524.953125 C291.88493362 525.84676254 291.50424225 526.74040009 291.11201477 527.66111755 C288.6543767 533.4377935 286.23441959 539.22798825 283.86621094 545.04199219 C283 547 283 547 282 548 C280.14712498 548.07226502 278.29166122 548.0838122 276.4375 548.0625 C275.42558594 548.05347656 274.41367187 548.04445313 273.37109375 548.03515625 C272.19740234 548.01775391 272.19740234 548.01775391 271 548 C258.06472467 517.86147569 245.17307532 487.70483528 232.34619141 457.52001953 C230.11139236 452.2613238 227.87424581 447.00362917 225.63671875 441.74609375 C218.75106121 425.56364768 211.88650696 409.37255399 205.05288696 393.1680603 C194.74618146 368.72832127 184.35593321 344.32453519 173.95263672 319.92578125 C166.68023723 302.86898844 159.41685145 285.80835178 152.15176392 268.7484436 C149.88659752 263.42944398 147.62115636 258.1105618 145.35498047 252.79199219 C136.04521921 230.94242273 126.75823603 209.08371338 117.53286743 187.19836426 C109.76967646 168.78427566 101.93947469 150.39894533 94.09057617 132.02124023 C93.17366313 129.87223402 92.25675223 127.7232269 91.33984375 125.57421875 C90.94871399 124.65985046 90.55758423 123.74548218 90.15460205 122.80340576 C87.00022899 115.40765285 83.90631657 107.98721105 80.81593323 100.56452942 C80.35226742 99.45127745 79.88860162 98.33802548 79.41088533 97.19103861 C78.27376061 94.46076021 77.13680349 91.73041216 76 89 C75.88548842 141.34138145 75.79741749 193.68275022 75.74467335 246.02423236 C75.73842002 252.2073986 75.73194839 258.39056459 75.7253418 264.57373047 C75.72403024 265.8046574 75.72271869 267.03558434 75.7213674 268.30381209 C75.69962683 288.21964273 75.6602127 308.13540101 75.61423602 328.05118877 C75.56743391 348.49544586 75.53969665 368.93966513 75.52955753 389.3839736 C75.52270618 401.99332278 75.5010878 414.60246741 75.46041767 427.21175361 C75.43393299 435.86522558 75.42601198 444.51859221 75.43249311 453.17210174 C75.43568707 458.16043046 75.43088426 463.1484024 75.40397263 468.13666725 C75.37946407 472.71317186 75.37852537 477.28908311 75.39550553 481.86561626 C75.39760104 483.5119317 75.39140827 485.15828567 75.37558409 486.80452639 C75.25987064 499.59754052 76.47546096 514.24612999 85.3046875 524.33984375 C85.86414063 524.88769531 86.42359375 525.43554688 87 526 C87.60070312 526.59941406 88.20140625 527.19882812 88.8203125 527.81640625 C97.49997277 535.45648744 109.79584857 538.99925867 121 541 C121 543.31 121 545.62 121 548 C81.07 548 41.14 548 0 548 C0 545.69 0 543.38 0 541 C0.54825439 540.84966309 1.09650879 540.69932617 1.66137695 540.54443359 C23.18407444 534.88059937 23.18407444 534.88059937 39 520 C43.05846593 511.46811278 45.15473792 503.71603719 45.13142776 494.29675961 C45.13450672 493.13865091 45.13450672 493.13865091 45.13764787 491.95714608 C45.14331847 489.36073257 45.14186054 486.7643721 45.14044189 484.16795349 C45.1430255 482.29128094 45.14603865 480.41460894 45.1494453 478.5379377 C45.15751919 473.3732814 45.15930509 468.208639 45.16004276 463.04397714 C45.16189266 457.47663587 45.16943972 451.90930182 45.17617798 446.34196472 C45.18976499 434.16415848 45.19578671 421.98635553 45.20018864 409.80854297 C45.20295066 402.20498825 45.20718796 394.6014348 45.21169281 386.99788094 C45.22388638 365.94726741 45.23422062 344.89665473 45.2375679 323.84603786 C45.23778953 322.48489001 45.23801132 321.12374215 45.23823325 319.76259429 C45.23845389 318.39817987 45.23867438 317.03376546 45.2388947 315.66935104 C45.23933725 312.93215525 45.23978437 310.19495946 45.24023438 307.45776367 C45.24034377 306.77909894 45.24045316 306.10043422 45.24056586 305.40120389 C45.24419548 283.40165619 45.2601119 261.40214147 45.28342474 239.40260639 C45.30803445 216.13664828 45.32173457 192.87071156 45.32293582 169.60473782 C45.3238525 156.92489859 45.32960315 144.24510253 45.34775543 131.56527519 C45.3631593 120.76717617 45.36827519 109.96913366 45.36001733 99.17102575 C45.35611176 93.662762 45.35703599 88.15461204 45.37107468 82.6463623 C45.38381898 77.5997641 45.3826113 72.55336511 45.37048396 67.50676716 C45.36852789 65.68504435 45.37160123 63.86330741 45.38032833 62.04160445 C45.44679692 47.22385699 44.56589445 33.6178464 34.21875 22 C29.16273769 17.19264403 23.42826055 14.55433814 17 12 C16.28585938 11.70222656 15.57171875 11.40445313 14.8359375 11.09765625 C10.00614489 9.16381499 5.09776632 8.00303273 0 7 C0 4.69 0 2.38 0 0 Z " fill="#FDFDFD" transform="translate(188,238)"/>
<path d="M0 0 C0 140.91 0 281.82 0 427 C-47.27180527 427 -47.27180527 427 -65 422 C-65.79341797 421.79133301 -66.58683594 421.58266602 -67.40429688 421.36767578 C-85.13225984 416.63444523 -102.82212284 407.64781828 -117 396 C-117.86882812 395.3296875 -118.73765625 394.659375 -119.6328125 393.96875 C-158.09574209 363.72439511 -178.51674988 317.9947728 -188 271 C-188.16870605 270.1754834 -188.33741211 269.3509668 -188.51123047 268.50146484 C-201.22535201 204.84874224 -191.72705586 130.89340902 -155.46875 76.109375 C-131.65260041 41.3109165 -96.68681063 13.47043162 -55 4 C-53.85096191 3.72929687 -53.85096191 3.72929687 -52.67871094 3.453125 C-34.69830009 -0.65509701 -18.98608398 0 0 0 Z " fill="#FDFDFD" transform="translate(1024,371)"/>
<path d="M0 0 C31.02 0 62.04 0 94 0 C94 50.82 94 101.64 94 154 C87.07904274 152.61580855 82.1623272 151.57573894 76.1875 148.4375 C75.5059082 148.08598877 74.82431641 147.73447754 74.12207031 147.37231445 C62.37991201 141.16867767 52.51957451 133.16699767 43 124 C42.36707031 123.43023438 41.73414063 122.86046875 41.08203125 122.2734375 C15.75299089 98.80948087 4.14289116 62.14312926 0 29 C0 19.43 0 9.86 0 0 Z " fill="#000000" transform="translate(930,550)"/>
<path d="M0 0 C0 43.56 0 87.12 0 132 C-30.36 132 -60.72 132 -92 132 C-92 91.7551983 -83.2371221 45.68287797 -54.3125 15.6875 C-48.29837815 9.71804949 -41.5915696 5.67155911 -34 2 C-33.25621094 1.61972656 -32.51242187 1.23945313 -31.74609375 0.84765625 C-22.32776429 -3.15190831 -9.80988209 -1.40141173 0 0 Z " fill="#010101" transform="translate(1024,396)"/>
</svg>
