<svg xmlns="http://www.w3.org/2000/svg" xml:space="preserve" style="enable-background:new 0 0 24 24" viewBox="0 0 24 24" id="sql">
  <path d="M22.5 11H19V5.5a.504.504 0 0 0-.146-.354l-5-5A.504.504 0 0 0 13.5 0H3C1.897 0 1 .897 1 2v20c0 1.103.897 2 2 2h14c1.103 0 2-.897 2-2v-2h3.5a.5.5 0 0 0 .5-.5v-8a.5.5 0 0 0-.5-.5z" style="fill:#303c42"></path>
  <path d="M14 1.707 17.293 5H15c-.551 0-1-.449-1-1V1.707z" style="fill:#e6e6e6"></path>
  <path d="M18 22c0 .551-.449 1-1 1H3c-.551 0-1-.449-1-1V2c0-.551.449-1 1-1h10v3c0 1.103.897 2 2 2h3v5H6.5a.5.5 0 0 0-.5.5v8a.5.5 0 0 0 .5.5H18v2z" style="fill:#fff"></path>
  <path d="M7 12h15v7H7z" style="fill:#1e88e5"></path>
  <linearGradient id="a" x1="14.584" x2="18.956" y1="4.496" y2="8.869" gradientUnits="userSpaceOnUse">
    <stop offset="0" style="stop-color:#000;stop-opacity:.1"></stop>
    <stop offset="1" style="stop-color:#000;stop-opacity:0"></stop>
  </linearGradient>
  <path d="M18 9.825V6h-3a1.99 1.99 0 0 1-1.369-.549l-.004.002L18 9.825z" style="fill:url(#a)"></path>
  <linearGradient id="b" x1="12.1" x2="12.1" y1="19.889" y2="23" gradientUnits="userSpaceOnUse">
    <stop offset="0" style="stop-color:#000;stop-opacity:.1"></stop>
    <stop offset="1" style="stop-color:#000;stop-opacity:0"></stop>
  </linearGradient>
  <path d="M18 22v-2H6.457a.38.38 0 0 1-.257-.111L8.86 23h8.285c.471 0 .855-.449.855-1z" style="fill:url(#b)"></path>
  <path d="M10.5 17h-1a.5.5 0 0 0 0 1h1c.827 0 1.5-.673 1.5-1.5s-.673-1.5-1.5-1.5a.5.5 0 0 1 0-1h1a.5.5 0 0 0 0-1h-1c-.827 0-1.5.673-1.5 1.5s.673 1.5 1.5 1.5a.5.5 0 0 1 0 1zM14.5 18c.231 0 .447-.057.643-.15l.004.004a.498.498 0 0 0 .707 0 .5.5 0 0 0 0-.707l-.004-.004c.093-.196.15-.412.15-.643v-2c0-.827-.673-1.5-1.5-1.5s-1.5.673-1.5 1.5v2c0 .827.673 1.5 1.5 1.5zm-.5-3.5a.5.5 0 0 1 1 0v2a.502.502 0 0 0-.5.5.5.5 0 0 1-.5-.5v-2zM17.5 18h2a.5.5 0 0 0 0-1H18v-3.5a.5.5 0 0 0-1 0v4a.5.5 0 0 0 .5.5z" style="fill:#303c42"></path>
  <linearGradient id="c" x1="-1.735" x2="23.251" y1="7.421" y2="19.073" gradientUnits="userSpaceOnUse">
    <stop offset="0" style="stop-color:#fff;stop-opacity:.2"></stop>
    <stop offset="1" style="stop-color:#fff;stop-opacity:0"></stop>
  </linearGradient>
  <path d="M22.5 11H19V5.5a.504.504 0 0 0-.146-.354l-5-5A.504.504 0 0 0 13.5 0H3C1.897 0 1 .897 1 2v20c0 1.103.897 2 2 2h14c1.103 0 2-.897 2-2v-2h3.5a.5.5 0 0 0 .5-.5v-8a.5.5 0 0 0-.5-.5z" style="fill:url(#c)"></path>
</svg>
