<?xml version="1.0" encoding="UTF-8"?>
<svg version="1.1" xmlns="http://www.w3.org/2000/svg" width="3000" height="2000">
<path d="M0 0 C1.25296875 0.64775391 1.25296875 0.64775391 2.53125 1.30859375 C6.69547896 3.62275111 9.89547465 5.7672658 12.97089195 9.42577839 C17.72625187 14.92116378 22.87763484 20.01296696 28.02041626 25.14067078 C29.13267872 26.25336994 30.24472113 27.3662891 31.35656393 28.47940761 C34.39587963 31.52094884 37.43828683 34.55938082 40.48122835 37.59729397 C43.76866521 40.88039827 47.05319707 44.16640663 50.33808899 47.45205688 C56.02542156 53.13991299 61.71457762 58.82593987 67.40498734 64.51071739 C75.63773178 72.73531908 83.86769865 80.96269558 92.09700005 89.19074211 C105.45691632 102.5484713 118.81906244 115.90396758 132.18261719 129.25805664 C145.14895577 142.21522051 158.11424728 155.17343062 171.078125 168.13305664 C171.87696073 168.93162965 172.67579646 169.73020265 173.49883933 170.55297484 C177.50722174 174.56005198 181.51558339 178.56714987 185.5239346 182.57425821 C213.14191354 210.1836308 240.76210865 237.79078489 268.38456726 265.39567566 C269.26789489 266.27844204 269.26789489 266.27844204 270.16906752 267.17904209 C272.89491485 269.90315244 275.62077408 272.62725088 278.34666026 275.35132235 C278.83148745 275.83583244 279.31631464 276.32034253 279.81583357 276.81953475 C281.09795889 278.10082109 282.38009225 279.3820994 283.66222632 280.66337699 C284.43369163 281.43446258 285.20515695 282.20554818 286 283 C286.89114262 283.88931255 287.78228524 284.77862509 288.70043218 285.69488651 C298.05436355 295.07137597 303.07556937 307.95663683 305 321 C304.7155374 322.67569983 304.39136161 324.34599729 304 326 C304.58541917 325.99886084 305.17083834 325.99772168 305.77399749 325.996548 C340.50432029 325.92935011 375.23463007 325.87790819 409.96500413 325.84680401 C414.1391858 325.84305209 418.31336735 325.8391691 422.48754883 325.83520508 C423.73400606 325.83402468 423.73400606 325.83402468 425.00564424 325.83282044 C438.44402418 325.81978204 451.88236545 325.79613686 465.32072248 325.76854161 C479.11936427 325.74044377 492.91798586 325.7238145 506.71665508 325.71773452 C515.22472236 325.71362714 523.73268032 325.70067484 532.24071393 325.6762506 C538.08243927 325.6603393 543.92410844 325.65561179 549.76585384 325.65949587 C553.13154938 325.66140909 556.49690162 325.65690404 559.86258888 325.64238358 C563.5234664 325.62736854 567.18388325 325.63107954 570.84477234 325.63923645 C571.89247997 325.63049793 572.94018761 325.6217594 574.01964396 325.61275607 C584.46699917 325.67530031 594.73641971 327.67420212 604.0625 332.5 C604.72950928 332.84184326 605.39651855 333.18368652 606.08374023 333.53588867 C617.11083021 339.48268316 625.03245512 347.97612219 631 359 C631.38929687 359.70253906 631.77859375 360.40507813 632.1796875 361.12890625 C633 363 633 363 633 366 C633.66 366.33 634.32 366.66 635 367 C635 368.65 635 370.3 635 372 C635.66 372.33 636.32 372.66 637 373 C639.05856881 384.87831205 638.14018538 397.64984894 638.12698364 409.66171265 C638.12813717 411.95323353 638.12972625 414.24475423 638.13171089 416.53627455 C638.13587215 422.80567566 638.13382803 429.07506148 638.13072467 435.34446263 C638.12869091 441.41975379 638.1313621 447.49504133 638.13387203 453.570332 C638.13912659 466.75456394 638.13868596 479.93879103 638.13579312 493.12302343 C638.13327481 504.65721781 638.13262216 516.19141041 638.13381577 527.72560501 C638.13389215 528.49151777 638.13396854 529.25743054 638.13404724 530.04655278 C638.13435858 533.15579324 638.13467699 536.26503371 638.135007 539.37427417 C638.13806343 568.5179799 638.13529627 597.66168254 638.1299101 626.8053878 C638.12516192 652.69399065 638.12559181 678.58258859 638.13037109 704.47119141 C638.13572538 733.57160156 638.1378495 762.67200899 638.13475883 791.77241957 C638.13443812 794.87404291 638.13412528 797.97566624 638.13381577 801.07728958 C638.13373669 801.84096456 638.13365761 802.60463954 638.13357614 803.39145618 C638.1324388 814.92214885 638.13376862 826.45283955 638.13629532 837.98353195 C638.13915305 851.09010276 638.13844284 864.19666797 638.13301457 877.30323808 C638.1303358 883.9917601 638.1293627 890.68027087 638.13266373 897.36879349 C638.13563847 903.48862585 638.13401411 909.60843893 638.12868617 915.72826953 C638.12756708 917.94466765 638.12814197 920.16106738 638.13056196 922.37746446 C638.13359537 925.38589973 638.13049086 928.39426863 638.12584114 931.40270042 C638.12818231 932.26648982 638.13052347 933.13027923 638.13293558 934.02024406 C638.11720479 939.10046068 637.72792803 943.97073262 637 949 C636.34 949 635.68 949 635 949 C634.896875 950.216875 634.79375 951.43375 634.6875 952.6875 C634.22994608 956.4407684 633.15688611 958.85454109 631 962 C630.67 962.99 630.34 963.98 630 965 C628.87755583 966.12244417 627.75056201 967.24069235 626.6015625 968.3359375 C623.75693489 971.29157497 621.29856867 974.56759981 618.76953125 977.79296875 C615.10202287 982.36723416 610.88276532 984.07478463 605.65234375 986.5625 C602.89721144 987.72785377 602.89721144 987.72785377 602 990 C587.63452159 995.32997502 572.34932389 994.54067934 557.27514648 994.45410156 C554.50419685 994.45073287 551.7332606 994.45343469 548.96231079 994.45587158 C543.02897792 994.45795498 537.09582287 994.44555307 531.16253471 994.42292023 C522.58434268 994.39021981 514.00623542 994.37997492 505.42798782 994.37496826 C491.50573563 994.36624367 477.58357793 994.33970567 463.66137695 994.30175781 C450.14836088 994.26496389 436.6353706 994.2366884 423.12231445 994.21972656 C422.287435 994.21867567 421.45255554 994.21762477 420.5923767 994.21654204 C416.40345363 994.21132136 412.21453037 994.20626666 408.02560699 994.20129442 C373.35033735 994.15992084 338.67517744 994.08955041 304 994 C304.08378906 995.02480469 304.16757813 996.04960938 304.25390625 997.10546875 C304.35712798 998.46611879 304.45997265 999.82679746 304.5625 1001.1875 C304.61857422 1001.86103516 304.67464844 1002.53457031 304.73242188 1003.22851562 C305.01090149 1007.03440372 304.90340428 1010.29753705 304 1014 C303.93624363 1016.70167619 304.00022064 1019.3845702 304.0625 1022.0859375 C303.99014865 1025.45931927 303.51951734 1028.66704015 303 1032 C302.85820313 1033.07378906 302.71640625 1034.14757813 302.5703125 1035.25390625 C301.59207002 1042.52207622 300.26145678 1049.6213401 298.6640625 1056.77734375 C297.824825 1060.85011397 297.35693341 1064.85957239 297 1069 C296.34 1069 295.68 1069 295 1069 C294.90912109 1069.85271484 294.90912109 1069.85271484 294.81640625 1070.72265625 C294.29823427 1075.49781037 293.70756141 1080.2492305 293 1085 C292.34 1085 291.68 1085 291 1085 C291.12375 1086.175625 291.12375 1086.175625 291.25 1087.375 C290.96650198 1091.48572135 289.79722794 1094.30421621 288.19140625 1098.05859375 C286.86674618 1101.32898402 285.81161822 1104.63521005 284.75 1108 C278.08806368 1128.56945136 267.56381906 1148.17023051 256.4140625 1166.625 C255.10432264 1168.82478407 253.88967176 1171.05274759 252.6875 1173.3125 C250.53611075 1177.21879891 248.07827095 1180.70293735 245.34375 1184.21875 C243.86856941 1186.10484303 243.86856941 1186.10484303 242.375 1188.75 C240.84852284 1191.24787172 239.07010781 1192.92989219 237 1195 C233.10141456 1199.77489632 233.10141456 1199.77489632 230.01953125 1205.078125 C228.87386989 1207.23776251 227.73205714 1208.25652305 225.8125 1209.75 C222.34055001 1212.59859362 219.47100134 1215.74112692 216.578125 1219.16796875 C215 1221 215 1221 213.359375 1222.55078125 C211.74415164 1224.07023197 211.74415164 1224.07023197 211 1227 C210.01 1227.33 209.02 1227.66 208 1228 C206.28455699 1229.61641914 204.62617912 1231.29380628 203 1233 C200.94427237 1235.11083376 198.87801057 1237.21124512 196.8125 1239.3125 C196.27947266 1239.86228516 195.74644531 1240.41207031 195.19726562 1240.97851562 C193.83575044 1242.35715678 192.42159498 1243.68339727 191 1245 C190.34 1245 189.68 1245 189 1245 C189 1245.66 189 1246.32 189 1247 C187.125 1249.125 187.125 1249.125 185 1251 C184.34 1251 183.68 1251 183 1251 C183 1251.66 183 1252.32 183 1253 C181.453125 1253.8353125 181.453125 1253.8353125 179.875 1254.6875 C175.39074358 1257.2434352 171.65401734 1260.34598266 168 1264 C166.01612292 1265.03161608 164.01723344 1266.03523618 162 1267 C162 1267.66 162 1268.32 162 1269 C161.01 1269 160.02 1269 159 1269 C159 1269.66 159 1270.32 159 1271 C158.31292969 1271.2475 157.62585937 1271.495 156.91796875 1271.75 C153.51680591 1273.20699078 150.4493594 1275.05795505 147.3125 1277 C140.64278221 1281.07505029 133.85818703 1284.90396702 126.99145508 1288.63671875 C124.07798539 1290.23161044 121.34392018 1291.72888908 118.73046875 1293.7890625 C117 1295 117 1295 113 1295 C113 1295.66 113 1296.32 113 1297 C112.18208984 1297.25523437 112.18208984 1297.25523437 111.34765625 1297.515625 C105.71615022 1299.32540814 100.36060431 1301.50345378 95 1304 C95 1304.33 95 1304.66 95 1305 C94.40832031 1305.12117188 93.81664062 1305.24234375 93.20703125 1305.3671875 C92.41683594 1305.53476563 91.62664063 1305.70234375 90.8125 1305.875 C90.03519531 1306.03742188 89.25789063 1306.19984375 88.45703125 1306.3671875 C85.84776231 1307.03920907 83.48739836 1307.96608141 81 1309 C72.32190859 1312.33510964 63.72442633 1314.96343069 54.69140625 1317.10546875 C52.25263156 1317.69645225 49.82657077 1318.34294333 47.41796875 1319.046875 C44.19177371 1319.94652253 41.05803055 1320.55781329 37.75 1321.0625 C34.67810218 1321.53420005 31.95250882 1322.01583039 29 1323 C26.37525724 1323.36281541 23.75652595 1323.69654476 21.125 1324 C16.71279608 1324.51435528 12.34617433 1325.06258985 8 1326 C3.18447258 1326.84979896 -1.35406728 1327.03151296 -6.21875 1326.9675293 C-8.84033837 1326.99813597 -11.36031007 1327.20633936 -13.96484375 1327.4921875 C-20.58481605 1328.12202517 -27.16712372 1328.14699242 -33.8125 1328.125 C-35.00037109 1328.12886719 -36.18824219 1328.13273437 -37.41210938 1328.13671875 C-39.1359082 1328.13478516 -39.1359082 1328.13478516 -40.89453125 1328.1328125 C-41.92425049 1328.13168457 -42.95396973 1328.13055664 -44.01489258 1328.12939453 C-47.08670424 1327.99624166 -49.97623593 1327.54339223 -53 1327 C-54.50983104 1326.82410669 -56.02169033 1326.66467888 -57.53515625 1326.5234375 C-58.82703857 1326.3992041 -58.82703857 1326.3992041 -60.14501953 1326.27246094 C-61.08716309 1326.18254883 -62.02930664 1326.09263672 -63 1326 C-67.48091904 1325.55766264 -71.95941168 1325.09506176 -76.4375 1324.625 C-77.58798828 1324.5115625 -78.73847656 1324.398125 -79.92382812 1324.28125 C-86.38671195 1323.59285218 -92.42977637 1322.50481314 -98.66479492 1320.66772461 C-101.41809961 1319.8804493 -104.17468846 1319.45557191 -107 1319 C-110.06406622 1318.2655052 -113.09391723 1317.42209976 -116.125 1316.5625 C-117.01574219 1316.31024658 -117.90648437 1316.05799316 -118.82421875 1315.7980957 C-128.24840525 1313.05017602 -137.4581522 1309.72300233 -146.66845703 1306.34008789 C-147.80911621 1305.92235107 -148.94977539 1305.50461426 -150.125 1305.07421875 C-151.13820313 1304.69869873 -152.15140625 1304.32317871 -153.1953125 1303.9362793 C-155.79480127 1303.06850079 -158.31376187 1302.51518868 -161 1302 C-163.3125 1300.9375 -163.3125 1300.9375 -165 1300 C-165 1299.34 -165 1298.68 -165 1298 C-165.83144531 1297.9175 -166.66289063 1297.835 -167.51953125 1297.75 C-171.74573925 1296.83930198 -174.95252524 1295.11316079 -178.6875 1293 C-183.6913937 1290.17375163 -183.6913937 1290.17375163 -189 1288 C-189 1287.34 -189 1286.68 -189 1286 C-190.65 1286 -192.3 1286 -194 1286 C-194.33 1285.34 -194.66 1284.68 -195 1284 C-197.23694259 1282.54901021 -199.4780906 1281.25012671 -201.8828125 1280.09765625 C-205.0648029 1278.44795274 -207.93204271 1276.37233479 -210.87890625 1274.33984375 C-213.04891168 1272.85075698 -213.04891168 1272.85075698 -216 1272 C-217.33333333 1270.66666667 -218.66666667 1269.33333333 -220 1268 C-220.66 1268 -221.32 1268 -222 1268 C-222.721875 1267.26652344 -223.44375 1266.53304688 -224.1875 1265.77734375 C-227.71960662 1262.28938847 -231.57815889 1259.9933527 -235.828125 1257.48242188 C-240.16558223 1254.81865738 -242.83306769 1251.98006357 -246 1248 C-247.99545275 1246.28040958 -247.99545275 1246.28040958 -250 1244.9375 C-253.37648828 1242.58893456 -256.12356448 1239.94275103 -259 1237 C-260.17277689 1235.83552266 -261.34738632 1234.67288916 -262.5234375 1233.51171875 C-274.81775959 1221.320404 -274.81775959 1221.320404 -279.41015625 1215.86328125 C-280.5928117 1214.47722069 -281.81580128 1213.12537434 -283.05859375 1211.79296875 C-288.0821146 1206.40378434 -292.45850869 1200.78529527 -296.63793945 1194.73388672 C-298.59177625 1191.91243012 -300.54038682 1189.38705822 -303 1187 C-303.96211719 1185.34117725 -304.92023945 1183.67974132 -305.84667969 1182.00073242 C-307.06612774 1179.88528433 -308.39284694 1177.88241284 -309.765625 1175.86328125 C-330.42292747 1145.06432123 -330.42292747 1145.06432123 -332.55078125 1134.18359375 C-332.69902344 1133.46300781 -332.84726563 1132.74242187 -333 1132 C-333.66 1131.67 -334.32 1131.34 -335 1131 C-335.71744929 1129.01765014 -336.37550903 1127.01356785 -337 1125 C-337.7922597 1122.99189621 -338.60500629 1120.99176065 -339.4375 1119 C-339.84871094 1118.01 -340.25992187 1117.02 -340.68359375 1116 C-341.56982265 1113.98034482 -342.52396478 1111.98930652 -343.5390625 1110.03125 C-345.05708727 1106.88155155 -346.01988977 1103.87113459 -346.9375 1100.5 C-347.27394531 1099.283125 -347.61039063 1098.06625 -347.95703125 1096.8125 C-348.30121094 1095.554375 -348.64539062 1094.29625 -349 1093 C-349.70469536 1090.4989721 -350.4129101 1087.99893259 -351.125 1085.5 C-351.43695312 1084.3965625 -351.74890625 1083.293125 -352.0703125 1082.15625 C-352.69851799 1080.02351875 -353.37048213 1077.90326589 -354.08203125 1075.796875 C-355.04097661 1072.87515212 -355.51768477 1070.03169575 -356 1067 C-356.33 1066.34 -356.66 1065.68 -357 1065 C-357 1063.35 -357 1061.7 -357 1060 C-474.48 1060.33 -591.96 1060.66 -713 1061 C-713 1060.34 -713 1059.68 -713 1059 C-713.94875 1059.103125 -714.8975 1059.20625 -715.875 1059.3125 C-720.38508446 1059.34000051 -723.68592205 1057.41120553 -727.5703125 1055.2890625 C-729.99639864 1054.00191069 -732.4510719 1053.01539267 -735 1052 C-739.2438364 1049.43601551 -742.59457758 1046.59461256 -746 1043 C-746.66 1042.34 -747.32 1041.68 -748 1041 C-749.34423339 1039.34211215 -750.67618483 1037.67423683 -752 1036 C-753.051875 1034.7625 -753.051875 1034.7625 -754.125 1033.5 C-756.00431429 1030.99424761 -756.9521583 1028.93395676 -758 1026 C-758.515625 1024.9275 -759.03125 1023.855 -759.5625 1022.75 C-761.14769737 1019.15160197 -761.47321987 1015.72122047 -761.69140625 1011.8203125 C-761.79324219 1011.21960937 -761.89507813 1010.61890625 -762 1010 C-762.66 1009.67 -763.32 1009.34 -764 1009 C-764.03424331 949.91215791 -764.06608369 890.82431478 -764.08468628 831.73646545 C-764.08510045 830.42428661 -764.08510045 830.42428661 -764.08552299 829.0855991 C-764.09150907 810.0732688 -764.0970494 791.06093839 -764.10213066 772.04860782 C-764.10462529 762.72470662 -764.1072184 753.40080545 -764.10986328 744.0769043 C-764.1101248 743.14907353 -764.11038632 742.22124276 -764.11065576 741.26529591 C-764.11917553 711.20201311 -764.13419598 681.13873784 -764.15259444 651.0754596 C-764.17146989 620.17659704 -764.18377327 589.27773864 -764.18782998 558.37887041 C-764.18840627 554.01270256 -764.18905755 549.64653473 -764.18975449 545.2803669 C-764.18988933 544.42105864 -764.19002418 543.56175039 -764.19016311 542.67640249 C-764.19252478 528.85459986 -764.20179614 515.03281011 -764.21366407 501.21101273 C-764.22545297 487.30897601 -764.22993234 473.40695206 -764.22700275 459.50491052 C-764.22548384 451.24967144 -764.22951711 442.99447912 -764.24159509 434.7392485 C-764.2500064 428.56736967 -764.24790711 422.39553565 -764.24179779 416.22365505 C-764.24095421 413.73215171 -764.24347864 411.24064439 -764.24976636 408.74914884 C-764.30669839 384.79141469 -763.67617311 362.31653618 -746.25 343.75 C-741.65099548 339.40055386 -736.45730947 336.16459366 -731 333 C-730.35546875 332.5978125 -729.7109375 332.195625 -729.046875 331.78125 C-718.46474352 325.70802671 -704.93342895 325.55960316 -693.09864807 325.63923645 C-691.66264438 325.63792425 -690.22664141 325.63529025 -688.7906422 325.63146895 C-684.8908948 325.62483328 -680.99139956 325.63665973 -677.09168422 325.65180314 C-672.86900528 325.66486051 -668.6463385 325.66036724 -664.42364502 325.65809631 C-657.1228815 325.65652966 -649.82219893 325.66587492 -642.52145576 325.68280983 C-631.96605521 325.70727824 -621.41069347 325.71501309 -610.85526764 325.7187738 C-593.7263249 325.72532604 -576.59742524 325.74525374 -559.46850586 325.77368164 C-542.83764866 325.80125409 -526.2068032 325.82247205 -509.57592773 325.83520508 C-508.0360688 325.83638733 -508.0360688 325.83638733 -506.46510161 325.83759347 C-501.31465661 325.84150882 -496.16421154 325.84529989 -491.01376641 325.84902918 C-448.34248112 325.88008681 -405.67124279 325.932889 -363 326 C-363.16749756 324.89519287 -363.33499512 323.79038574 -363.50756836 322.65209961 C-364.08051622 318.40285466 -363.66363155 315.20299983 -363 311 C-362.34 311 -361.68 311 -361 311 C-360.83951172 309.700625 -360.83951172 309.700625 -360.67578125 308.375 C-359.15974436 300.80357878 -354.73936763 293.09347267 -350 287 C-349.34 287 -348.68 287 -348 287 C-347.64453265 286.15740548 -347.64453265 286.15740548 -347.28188413 285.29778886 C-345.70270498 282.467096 -343.78244151 280.53036395 -341.48985386 278.23537827 C-341.02653897 277.7688569 -340.56322408 277.30233553 -340.08586934 276.82167715 C-338.52644305 275.25392539 -336.95996976 273.69341089 -335.39344788 272.13275146 C-334.26481833 271.00110236 -333.13662376 269.86901929 -332.0088281 268.73653913 C-328.90366282 265.62105906 -325.7922561 262.51187785 -322.6797961 259.40368772 C-319.32564134 256.05199403 -315.97722443 252.69457655 -312.62805176 249.33790588 C-306.06233001 242.7594156 -299.49111884 236.18643514 -292.9178412 229.61549559 C-287.57313716 224.27257329 -282.23019967 218.92789064 -276.88851738 213.58194733 C-276.12873997 212.82157473 -275.36896256 212.06120213 -274.58616159 211.27778794 C-273.04269152 209.73310611 -271.49922263 208.1884231 -269.95575493 206.6437389 C-255.46906982 192.14616891 -240.97586024 177.65513501 -226.48068535 163.16605416 C-213.22832538 149.91885815 -199.9841832 136.66348117 -186.74392254 123.40419313 C-173.14756014 109.78844174 -159.54563352 96.17827196 -145.93769544 82.57408929 C-138.29864241 74.93694746 -130.66179984 67.29762646 -123.03077888 59.65245819 C-116.53053902 53.14028969 -110.025047 46.63342389 -103.51279617 40.13326564 C-100.19226814 36.81861725 -96.87415916 33.50164216 -93.56258202 30.17804909 C-90.5258332 27.13041034 -87.4821382 24.0898869 -84.4329583 21.05468705 C-83.33600845 19.96037569 -82.24153672 18.86357281 -81.1499343 17.76392719 C-58.70923551 -4.83048999 -29.93666954 -15.54809422 0 0 Z " fill="#1A5ABB" transform="translate(1563,340)"/>
<path d="M0 0 C1.25296875 0.64775391 1.25296875 0.64775391 2.53125 1.30859375 C6.69547896 3.62275111 9.89547465 5.7672658 12.97089195 9.42577839 C17.72625187 14.92116378 22.87763484 20.01296696 28.02041626 25.14067078 C29.13267872 26.25336994 30.24472113 27.3662891 31.35656393 28.47940761 C34.39587963 31.52094884 37.43828683 34.55938082 40.48122835 37.59729397 C43.76866521 40.88039827 47.05319707 44.16640663 50.33808899 47.45205688 C56.02542156 53.13991299 61.71457762 58.82593987 67.40498734 64.51071739 C75.63773178 72.73531908 83.86769865 80.96269558 92.09700005 89.19074211 C105.45691632 102.5484713 118.81906244 115.90396758 132.18261719 129.25805664 C145.14895577 142.21522051 158.11424728 155.17343062 171.078125 168.13305664 C171.87696073 168.93162965 172.67579646 169.73020265 173.49883933 170.55297484 C177.50722174 174.56005198 181.51558339 178.56714987 185.5239346 182.57425821 C213.14191354 210.1836308 240.76210865 237.79078489 268.38456726 265.39567566 C268.97345235 265.98418658 269.56233743 266.5726975 270.16906752 267.17904209 C272.89491485 269.90315244 275.62077408 272.62725088 278.34666026 275.35132235 C278.83148745 275.83583244 279.31631464 276.32034253 279.81583357 276.81953475 C281.09795889 278.10082109 282.38009225 279.3820994 283.66222632 280.66337699 C284.43369163 281.43446258 285.20515695 282.20554818 286 283 C286.89114262 283.88931255 287.78228524 284.77862509 288.70043218 285.69488651 C298.05436355 295.07137597 303.07556937 307.95663683 305 321 C304.7155374 322.67569983 304.39136161 324.34599729 304 326 C304.58541917 325.99886084 305.17083834 325.99772168 305.77399749 325.996548 C340.50432029 325.92935011 375.23463007 325.87790819 409.96500413 325.84680401 C414.1391858 325.84305209 418.31336735 325.8391691 422.48754883 325.83520508 C423.31852031 325.83441815 424.1494918 325.83363122 425.00564424 325.83282044 C438.44402418 325.81978204 451.88236545 325.79613686 465.32072248 325.76854161 C479.11936427 325.74044377 492.91798586 325.7238145 506.71665508 325.71773452 C515.22472236 325.71362714 523.73268032 325.70067484 532.24071393 325.6762506 C538.08243927 325.6603393 543.92410844 325.65561179 549.76585384 325.65949587 C553.13154938 325.66140909 556.49690162 325.65690404 559.86258888 325.64238358 C563.5234664 325.62736854 567.18388325 325.63107954 570.84477234 325.63923645 C571.89247997 325.63049793 572.94018761 325.6217594 574.01964396 325.61275607 C584.46699917 325.67530031 594.73641971 327.67420212 604.0625 332.5 C604.72950928 332.84184326 605.39651855 333.18368652 606.08374023 333.53588867 C617.11083021 339.48268316 625.03245512 347.97612219 631 359 C631.58394531 360.05380859 631.58394531 360.05380859 632.1796875 361.12890625 C633 363 633 363 633 366 C633.66 366.33 634.32 366.66 635 367 C635 368.65 635 370.3 635 372 C635.66 372.33 636.32 372.66 637 373 C639.05856881 384.87831205 638.14018538 397.64984894 638.12698364 409.66171265 C638.12813717 411.95323353 638.12972625 414.24475423 638.13171089 416.53627455 C638.13587215 422.80567566 638.13382803 429.07506148 638.13072467 435.34446263 C638.12869091 441.41975379 638.1313621 447.49504133 638.13387203 453.570332 C638.13912659 466.75456394 638.13868596 479.93879103 638.13579312 493.12302343 C638.13327481 504.65721781 638.13262216 516.19141041 638.13381577 527.72560501 C638.13393034 528.87447416 638.13393034 528.87447416 638.13404724 530.04655278 C638.13435858 533.15579324 638.13467699 536.26503371 638.135007 539.37427417 C638.13806343 568.5179799 638.13529627 597.66168254 638.1299101 626.8053878 C638.12516192 652.69399065 638.12559181 678.58258859 638.13037109 704.47119141 C638.13572538 733.57160156 638.1378495 762.67200899 638.13475883 791.77241957 C638.13443812 794.87404291 638.13412528 797.97566624 638.13381577 801.07728958 C638.13373669 801.84096456 638.13365761 802.60463954 638.13357614 803.39145618 C638.1324388 814.92214885 638.13376862 826.45283955 638.13629532 837.98353195 C638.13915305 851.09010276 638.13844284 864.19666797 638.13301457 877.30323808 C638.1303358 883.9917601 638.1293627 890.68027087 638.13266373 897.36879349 C638.13563847 903.48862585 638.13401411 909.60843893 638.12868617 915.72826953 C638.12756708 917.94466765 638.12814197 920.16106738 638.13056196 922.37746446 C638.13359537 925.38589973 638.13049086 928.39426863 638.12584114 931.40270042 C638.12818231 932.26648982 638.13052347 933.13027923 638.13293558 934.02024406 C638.11720479 939.10046068 637.72792803 943.97073262 637 949 C636.34 949 635.68 949 635 949 C634.8453125 950.8253125 634.8453125 950.8253125 634.6875 952.6875 C634.22994608 956.4407684 633.15688611 958.85454109 631 962 C630.67 962.99 630.34 963.98 630 965 C628.87755583 966.12244417 627.75056201 967.24069235 626.6015625 968.3359375 C623.75693489 971.29157497 621.29856867 974.56759981 618.76953125 977.79296875 C615.10202287 982.36723416 610.88276532 984.07478463 605.65234375 986.5625 C602.89721144 987.72785377 602.89721144 987.72785377 602 990 C587.63969534 995.32419085 572.35964984 994.5473803 557.29101562 994.4699707 C554.52168628 994.46825204 551.75237363 994.47257366 548.98304749 994.47660828 C542.28395166 994.4827891 535.58506496 994.46795886 528.88600922 994.44588266 C521.08050455 994.42105645 513.27503676 994.41827264 505.46949846 994.41647889 C491.55172314 994.41261537 477.63404149 994.3902289 463.71630859 994.35668945 C450.21011969 994.32416845 436.70398028 994.30298741 423.19775391 994.29516602 C422.36343985 994.29468052 421.5291258 994.29419503 420.6695295 994.29369483 C417.31596126 994.29176613 413.96239302 994.28985399 410.60882476 994.28797873 C397.72521292 994.28045831 384.84160917 994.26483547 371.95800725 994.24748212 C368.0665493 994.24224329 364.17509151 994.23731015 360.28363228 994.2331202 C352.11176191 994.22421737 343.93991519 994.21247744 335.76806569 994.19155417 C332.38967704 994.18293641 329.01130487 994.17586153 325.63290596 994.17303848 C321.97980993 994.16908289 318.32678383 994.15899077 314.67370605 994.14717102 C313.05543466 994.14744756 313.05543466 994.14744756 311.40447092 994.14772969 C310.4341296 994.14327185 309.46378827 994.13881401 308.46404266 994.13422108 C307.62002632 994.13243251 306.77600997 994.13064394 305.90641737 994.12880117 C304 994 304 994 303 993 C302.87748239 991.29461557 302.82011837 989.58449763 302.7890625 987.875 C302.74990723 986.24582642 302.74990723 986.24582642 302.70996094 984.58374023 C302.68192383 983.40110596 302.65388672 982.21847168 302.625 981 C301.6945349 951.44600458 297.01583378 922.18692575 288 894 C287.73993164 893.18402344 287.47986328 892.36804687 287.21191406 891.52734375 C259.62887986 806.31366159 198.86353095 736.68298655 119.58862305 695.67724609 C86.54090908 679.03042677 50.45685692 668.46658676 13.8671875 663.3828125 C12.91126709 663.24818604 11.95534668 663.11355957 10.97045898 662.97485352 C8.64723956 662.64794647 6.32376217 662.32302233 4 662 C3.99967395 661.1146277 3.99967395 661.1146277 3.99934131 660.2113691 C3.98580403 625.17175119 3.94621824 590.13225592 3.87314438 555.09271038 C3.86437839 550.87862045 3.85582845 546.6645301 3.84741211 542.45043945 C3.84573305 541.61154536 3.84405398 540.77265128 3.84232404 539.90833616 C3.81570718 526.35304198 3.80656278 512.79779011 3.80395857 499.24247248 C3.80089123 485.31718874 3.77885459 471.39202659 3.73947543 457.46679777 C3.71579684 448.88501532 3.70663817 440.30347614 3.71648689 431.72166561 C3.72183263 425.82423179 3.70863198 419.92701448 3.6813371 414.02964229 C3.66615783 410.6349438 3.66145017 407.24113042 3.67340279 403.84635925 C3.75152787 379.20525494 0.81800711 361.13281289 -17 343 C-17.56460937 342.4225 -18.12921875 341.845 -18.7109375 341.25 C-35.48275107 325.54176485 -58.80631788 326.39837782 -80.14991975 326.45119452 C-83.95476303 326.45618742 -87.75950942 326.4379955 -91.5643158 326.42277527 C-98.13877178 326.39957607 -104.7131178 326.39070969 -111.28761292 326.39188385 C-120.79292546 326.39356025 -130.29809236 326.37314587 -139.80336589 326.34752855 C-155.22909229 326.30654665 -170.65479232 326.28315989 -186.08056641 326.27099609 C-201.05552706 326.25914974 -216.03043813 326.23891863 -231.00537109 326.20751953 C-232.39249917 326.20461538 -232.39249917 326.20461538 -233.80765003 326.20165256 C-238.44736634 326.19188727 -243.08708227 326.18195829 -247.72679806 326.17194796 C-286.15117516 326.08925749 -324.57555173 326.03518881 -363 326 C-363.82600046 320.55173437 -363.85214997 316.39694981 -363 311 C-362.34 311 -361.68 311 -361 311 C-360.89300781 310.13375 -360.78601562 309.2675 -360.67578125 308.375 C-359.15974436 300.80357878 -354.73936763 293.09347267 -350 287 C-349.34 287 -348.68 287 -348 287 C-347.64453265 286.15740548 -347.64453265 286.15740548 -347.28188413 285.29778886 C-345.70270498 282.467096 -343.78244151 280.53036395 -341.48985386 278.23537827 C-341.02653897 277.7688569 -340.56322408 277.30233553 -340.08586934 276.82167715 C-338.52644305 275.25392539 -336.95996976 273.69341089 -335.39344788 272.13275146 C-334.26481833 271.00110236 -333.13662376 269.86901929 -332.0088281 268.73653913 C-328.90366282 265.62105906 -325.7922561 262.51187785 -322.6797961 259.40368772 C-319.32564134 256.05199403 -315.97722443 252.69457655 -312.62805176 249.33790588 C-306.06233001 242.7594156 -299.49111884 236.18643514 -292.9178412 229.61549559 C-287.57313716 224.27257329 -282.23019967 218.92789064 -276.88851738 213.58194733 C-276.12873997 212.82157473 -275.36896256 212.06120213 -274.58616159 211.27778794 C-273.04269152 209.73310611 -271.49922263 208.1884231 -269.95575493 206.6437389 C-255.46906982 192.14616891 -240.97586024 177.65513501 -226.48068535 163.16605416 C-213.22832538 149.91885815 -199.9841832 136.66348117 -186.74392254 123.40419313 C-173.14756014 109.78844174 -159.54563352 96.17827196 -145.93769544 82.57408929 C-138.29864241 74.93694746 -130.66179984 67.29762646 -123.03077888 59.65245819 C-116.53053902 53.14028969 -110.025047 46.63342389 -103.51279617 40.13326564 C-100.19226814 36.81861725 -96.87415916 33.50164216 -93.56258202 30.17804909 C-90.5258332 27.13041034 -87.4821382 24.0898869 -84.4329583 21.05468705 C-83.33600845 19.96037569 -82.24153672 18.86357281 -81.1499343 17.76392719 C-58.70923551 -4.83048999 -29.93666954 -15.54809422 0 0 Z " fill="#2A7BD3" transform="translate(1563,340)"/>
<path d="M0 0 C3.17365933 -0.01618088 6.34730783 -0.02584526 9.52099609 -0.03442383 C10.41068588 -0.03903877 11.30037567 -0.04365372 12.21702576 -0.04840851 C19.76214114 -0.063668 27.12553245 0.44981339 34.625 1.3125 C35.87007324 1.45075195 37.11514648 1.58900391 38.39794922 1.73144531 C41.93465896 2.13487927 45.46766536 2.56004645 49 3 C49.86367187 3.10683105 50.72734375 3.21366211 51.6171875 3.32373047 C105.30478441 10.29807913 158.23681011 34.28698255 201 67 C201.59651367 67.4522998 202.19302734 67.90459961 202.80761719 68.37060547 C210.27318527 74.04532357 217.37411255 79.98014712 224.2109375 86.3984375 C226.72149412 88.7402172 229.28488345 90.99735791 231.875 93.25 C242.19611402 102.52404448 251.46433571 113.0829571 260 124 C260.70842041 124.89162842 260.70842041 124.89162842 261.43115234 125.80126953 C295.21104831 168.37479742 318.57133903 218.87397596 328.50292969 272.33935547 C328.82054421 274.03943555 329.15308258 275.73683947 329.50488281 277.43017578 C332.67206629 293.24456864 333.34583898 309.53097743 334.06030273 325.60571289 C334.18978024 328.48826485 334.33181046 331.37003344 334.47460938 334.25195312 C334.56063577 336.10413245 334.6459501 337.95634501 334.73046875 339.80859375 C334.79442085 341.08663124 334.79442085 341.08663124 334.85966492 342.39048767 C335.03161463 346.45639736 334.99149363 350.01868592 334 354 C333.93624363 356.70167619 334.00022064 359.3845702 334.0625 362.0859375 C333.99014865 365.45931927 333.51951734 368.66704015 333 372 C332.85820313 373.07378906 332.71640625 374.14757813 332.5703125 375.25390625 C331.59207002 382.52207622 330.26145678 389.6213401 328.6640625 396.77734375 C327.824825 400.85011397 327.35693341 404.85957239 327 409 C326.34 409 325.68 409 325 409 C324.93941406 409.56847656 324.87882812 410.13695312 324.81640625 410.72265625 C324.29823427 415.49781037 323.70756141 420.2492305 323 425 C322.34 425 321.68 425 321 425 C321.12375 426.175625 321.12375 426.175625 321.25 427.375 C320.96650198 431.48572135 319.79722794 434.30421621 318.19140625 438.05859375 C316.86674618 441.32898402 315.81161822 444.63521005 314.75 448 C308.08806368 468.56945136 297.56381906 488.17023051 286.4140625 506.625 C285.10432264 508.82478407 283.88967176 511.05274759 282.6875 513.3125 C280.53611075 517.21879891 278.07827095 520.70293735 275.34375 524.21875 C273.86856941 526.10484303 273.86856941 526.10484303 272.375 528.75 C270.84852284 531.24787172 269.07010781 532.92989219 267 535 C263.10141456 539.77489632 263.10141456 539.77489632 260.01953125 545.078125 C258.87386989 547.23776251 257.73205714 548.25652305 255.8125 549.75 C252.34055001 552.59859362 249.47100134 555.74112692 246.578125 559.16796875 C245 561 245 561 243.359375 562.55078125 C241.74415164 564.07023197 241.74415164 564.07023197 241 567 C240.01 567.33 239.02 567.66 238 568 C236.28455699 569.61641914 234.62617912 571.29380628 233 573 C230.94427237 575.11083376 228.87801057 577.21124512 226.8125 579.3125 C226.27947266 579.86228516 225.74644531 580.41207031 225.19726562 580.97851562 C223.83575044 582.35715678 222.42159498 583.68339727 221 585 C220.34 585 219.68 585 219 585 C219 585.66 219 586.32 219 587 C217.125 589.125 217.125 589.125 215 591 C214.34 591 213.68 591 213 591 C213 591.66 213 592.32 213 593 C211.453125 593.8353125 211.453125 593.8353125 209.875 594.6875 C205.39074358 597.2434352 201.65401734 600.34598266 198 604 C196.01612292 605.03161608 194.01723344 606.03523618 192 607 C192 607.66 192 608.32 192 609 C191.01 609 190.02 609 189 609 C189 609.66 189 610.32 189 611 C188.31292969 611.2475 187.62585937 611.495 186.91796875 611.75 C183.51680591 613.20699078 180.4493594 615.05795505 177.3125 617 C170.64278221 621.07505029 163.85818703 624.90396702 156.99145508 628.63671875 C154.07798539 630.23161044 151.34392018 631.72888908 148.73046875 633.7890625 C147 635 147 635 143 635 C143 635.66 143 636.32 143 637 C142.18208984 637.25523437 142.18208984 637.25523437 141.34765625 637.515625 C135.71615022 639.32540814 130.36060431 641.50345378 125 644 C125 644.33 125 644.66 125 645 C124.40832031 645.12117188 123.81664062 645.24234375 123.20703125 645.3671875 C122.02173828 645.61855469 122.02173828 645.61855469 120.8125 645.875 C120.03519531 646.03742187 119.25789063 646.19984375 118.45703125 646.3671875 C115.84776231 647.03920907 113.48739836 647.96608141 111 649 C102.32190859 652.33510964 93.72442633 654.96343069 84.69140625 657.10546875 C82.25263156 657.69645225 79.82657077 658.34294333 77.41796875 659.046875 C74.19177371 659.94652253 71.05803055 660.55781329 67.75 661.0625 C64.67810218 661.53420005 61.95250882 662.01583039 59 663 C56.37525724 663.36281541 53.75652595 663.69654476 51.125 664 C46.71279608 664.51435528 42.34617433 665.06258985 38 666 C33.18447258 666.84979896 28.64593272 667.03151296 23.78125 666.9675293 C21.15966163 666.99813597 18.63968993 667.20633936 16.03515625 667.4921875 C9.41518395 668.12202517 2.83287628 668.14699242 -3.8125 668.125 C-5.59430664 668.13080078 -5.59430664 668.13080078 -7.41210938 668.13671875 C-8.56130859 668.13542969 -9.71050781 668.13414062 -10.89453125 668.1328125 C-11.92425049 668.13168457 -12.95396973 668.13055664 -14.01489258 668.12939453 C-17.08670424 667.99624166 -19.97623593 667.54339223 -23 667 C-24.50983104 666.82410669 -26.02169033 666.66467888 -27.53515625 666.5234375 C-28.39641113 666.44061523 -29.25766602 666.35779297 -30.14501953 666.27246094 C-31.08716309 666.18254883 -32.02930664 666.09263672 -33 666 C-37.48091904 665.55766264 -41.95941168 665.09506176 -46.4375 664.625 C-47.58798828 664.5115625 -48.73847656 664.398125 -49.92382812 664.28125 C-56.38671195 663.59285218 -62.42977637 662.50481314 -68.66479492 660.66772461 C-71.41809961 659.8804493 -74.17468846 659.45557191 -77 659 C-80.06406622 658.2655052 -83.09391723 657.42209976 -86.125 656.5625 C-87.01574219 656.31024658 -87.90648437 656.05799316 -88.82421875 655.7980957 C-98.24840525 653.05017602 -107.4581522 649.72300233 -116.66845703 646.34008789 C-117.80911621 645.92235107 -118.94977539 645.50461426 -120.125 645.07421875 C-121.64480469 644.51093872 -121.64480469 644.51093872 -123.1953125 643.9362793 C-125.79480127 643.06850079 -128.31376187 642.51518868 -131 642 C-133.3125 640.9375 -133.3125 640.9375 -135 640 C-135 639.34 -135 638.68 -135 638 C-135.83144531 637.9175 -136.66289063 637.835 -137.51953125 637.75 C-141.74573925 636.83930198 -144.95252524 635.11316079 -148.6875 633 C-153.6913937 630.17375163 -153.6913937 630.17375163 -159 628 C-159 627.34 -159 626.68 -159 626 C-160.65 626 -162.3 626 -164 626 C-164.33 625.34 -164.66 624.68 -165 624 C-167.23694259 622.54901021 -169.4780906 621.25012671 -171.8828125 620.09765625 C-175.0648029 618.44795274 -177.93204271 616.37233479 -180.87890625 614.33984375 C-183.04891168 612.85075698 -183.04891168 612.85075698 -186 612 C-187.33333333 610.66666667 -188.66666667 609.33333333 -190 608 C-190.66 608 -191.32 608 -192 608 C-192.721875 607.26652344 -193.44375 606.53304687 -194.1875 605.77734375 C-197.71960662 602.28938847 -201.57815889 599.9933527 -205.828125 597.48242188 C-210.16558223 594.81865738 -212.83306769 591.98006357 -216 588 C-217.99545275 586.28040958 -217.99545275 586.28040958 -220 584.9375 C-223.37648828 582.58893456 -226.12356448 579.94275103 -229 577 C-230.17277689 575.83552266 -231.34738632 574.67288916 -232.5234375 573.51171875 C-244.81775959 561.320404 -244.81775959 561.320404 -249.41015625 555.86328125 C-250.5928117 554.47722069 -251.81580128 553.12537434 -253.05859375 551.79296875 C-258.0821146 546.40378434 -262.45850869 540.78529527 -266.63793945 534.73388672 C-268.59177625 531.91243012 -270.54038682 529.38705822 -273 527 C-273.96211719 525.34117725 -274.92023945 523.67974132 -275.84667969 522.00073242 C-277.06612774 519.88528433 -278.39284694 517.88241284 -279.765625 515.86328125 C-300.42292747 485.06432123 -300.42292747 485.06432123 -302.55078125 474.18359375 C-302.77314453 473.10271484 -302.77314453 473.10271484 -303 472 C-303.66 471.67 -304.32 471.34 -305 471 C-305.71744929 469.01765014 -306.37550903 467.01356785 -307 465 C-307.7922597 462.99189621 -308.60500629 460.99176065 -309.4375 459 C-310.05431641 457.515 -310.05431641 457.515 -310.68359375 456 C-311.56982265 453.98034482 -312.52396478 451.98930652 -313.5390625 450.03125 C-315.05708727 446.88155155 -316.01988977 443.87113459 -316.9375 440.5 C-317.27394531 439.283125 -317.61039063 438.06625 -317.95703125 436.8125 C-318.47330078 434.9253125 -318.47330078 434.9253125 -319 433 C-319.70469536 430.4989721 -320.4129101 427.99893259 -321.125 425.5 C-321.43695312 424.3965625 -321.74890625 423.293125 -322.0703125 422.15625 C-322.69851799 420.02351875 -323.37048213 417.90326589 -324.08203125 415.796875 C-325.04097661 412.87515212 -325.51768477 410.03169575 -326 407 C-326.33 406.34 -326.66 405.68 -327 405 C-327.0396713 403.33380554 -327.04384447 401.66608987 -327 400 C-326.41637209 399.99826375 -325.83274419 399.9965275 -325.23143059 399.99473864 C-290.67718741 399.89181622 -256.12296437 399.7837267 -221.56875873 399.66888306 C-217.42417587 399.6551127 -213.27959286 399.64138572 -209.13500977 399.62768555 C-207.89728872 399.62359309 -207.89728872 399.62359309 -206.6345632 399.61941796 C-193.25600333 399.57528605 -179.87743496 399.53467207 -166.49886019 399.49534739 C-152.78162177 399.45494935 -139.0643992 399.41079586 -125.34718412 399.36312145 C-116.87598746 399.33379908 -108.40479204 399.30744184 -99.93357479 399.28482103 C-94.13258255 399.26905056 -88.33160972 399.24964797 -82.530639 399.22733159 C-79.1786953 399.21454569 -75.82678174 399.20395281 -72.47481918 399.19658089 C-68.84927304 399.18835677 -65.22380135 399.1740908 -61.59828186 399.15821838 C-59.99179853 399.15675122 -59.99179853 399.15675122 -58.35286099 399.15525442 C-57.38945276 399.14977998 -56.42604453 399.14430554 -55.43344212 399.1386652 C-54.59539935 399.13600716 -53.75735658 399.13334911 -52.89391857 399.13061053 C-50.98858681 399.20751433 -50.98858681 399.20751433 -50 398 C-48.824375 397.814375 -47.64875 397.62875 -46.4375 397.4375 C-32.04940195 394.31165122 -19.01990367 385.54930651 -11.0625 373.25 C-10.02651172 371.50892879 -9.0048812 369.75920848 -8 368 C-7.47535156 367.15566406 -6.95070313 366.31132813 -6.41015625 365.44140625 C-5.11383339 363.19707997 -4.19089721 361.13967457 -3.375 358.6875 C-3.13523437 357.99011719 -2.89546875 357.29273438 -2.6484375 356.57421875 C-0.60565516 348.46461897 -0.84739509 340.20691654 -0.84178162 331.90246582 C-0.83721046 330.46837906 -0.83220963 329.03429362 -0.82681805 327.60020971 C-0.81329056 323.67334285 -0.80583428 319.74648459 -0.79939139 315.81960058 C-0.79136366 311.57974589 -0.7776741 307.33990899 -0.76467896 303.10006714 C-0.74294979 295.75884053 -0.72479233 288.41761209 -0.70907402 281.07637024 C-0.68634291 270.46222096 -0.65820461 259.84809141 -0.62875474 249.2339589 C-0.58111853 232.01242663 -0.53784361 214.79088629 -0.49731445 197.56933594 C-0.45793931 180.842116 -0.41650825 164.11490324 -0.37231445 147.38769531 C-0.36959018 146.35629663 -0.36686591 145.32489795 -0.36405908 144.26224476 C-0.35037927 139.08792109 -0.33665906 133.91359753 -0.32291877 128.73927402 C-0.20901638 85.82619765 -0.10219326 42.91310575 0 0 Z " fill="#0F3F91" transform="translate(1533,1000)"/>
<path d="M0 0 C1.25296875 0.64775391 1.25296875 0.64775391 2.53125 1.30859375 C6.69547896 3.62275111 9.89547465 5.7672658 12.97089195 9.42577839 C17.72625187 14.92116378 22.87763484 20.01296696 28.02041626 25.14067078 C29.13267872 26.25336994 30.24472113 27.3662891 31.35656393 28.47940761 C34.39587963 31.52094884 37.43828683 34.55938082 40.48122835 37.59729397 C43.76866521 40.88039827 47.05319707 44.16640663 50.33808899 47.45205688 C56.02542156 53.13991299 61.71457762 58.82593987 67.40498734 64.51071739 C75.63773178 72.73531908 83.86769865 80.96269558 92.09700005 89.19074211 C105.45691632 102.5484713 118.81906244 115.90396758 132.18261719 129.25805664 C145.14895577 142.21522051 158.11424728 155.17343062 171.078125 168.13305664 C171.87696073 168.93162965 172.67579646 169.73020265 173.49883933 170.55297484 C177.50722174 174.56005198 181.51558339 178.56714987 185.5239346 182.57425821 C213.14191354 210.1836308 240.76210865 237.79078489 268.38456726 265.39567566 C268.97345235 265.98418658 269.56233743 266.5726975 270.16906752 267.17904209 C272.89491485 269.90315244 275.62077408 272.62725088 278.34666026 275.35132235 C278.83148745 275.83583244 279.31631464 276.32034253 279.81583357 276.81953475 C281.09795889 278.10082109 282.38009225 279.3820994 283.66222632 280.66337699 C284.43369163 281.43446258 285.20515695 282.20554818 286 283 C286.89114262 283.88931255 287.78228524 284.77862509 288.70043218 285.69488651 C295.90732165 292.91915623 299.23411996 300.65237191 302.40429688 310.21142578 C302.87267259 311.61770466 303.3753848 313.0125511 303.890625 314.40234375 C307.98324004 327.65087321 302.26016926 344.70364124 296.4375 356.5 C294.0222914 360.66290625 291.28270747 364.08514228 288.01069355 367.60985565 C287.52893477 368.12894287 287.04717599 368.64803009 286.55081846 369.18284723 C281.2858114 374.82260221 275.85083119 380.29163185 270.3914032 385.74230957 C269.26403251 386.87155401 268.13687657 388.00101287 267.00991374 389.13066435 C263.94734624 392.19928555 260.88172799 395.26484223 257.81553924 398.32984447 C254.4961516 401.64902649 251.17963656 404.97107686 247.86271667 408.29272461 C241.37997368 414.78373678 234.8944903 421.27200403 228.40789118 427.75916249 C223.13670712 433.03082301 217.86631617 438.30327515 212.5964756 443.57627869 C197.64233575 458.53921099 182.68611573 473.50005955 167.72720327 488.45822054 C166.92253625 489.26284761 166.11786923 490.06747467 165.28881836 490.89648438 C164.0803391 492.10490231 164.0803391 492.10490231 162.84744612 493.33773273 C149.76633209 506.41843956 136.69022468 519.50413867 123.6163552 532.5920859 C110.17938611 546.04340931 96.73870163 559.49101034 83.29412109 572.93472624 C75.75086643 580.47764885 68.20916101 588.02210562 60.67145348 595.5705719 C54.26082317 601.99029422 47.84675709 608.40655883 41.42817988 614.81833607 C38.15401958 618.08922605 34.88149911 621.36171373 31.61330414 624.63856506 C28.62188314 627.63782804 25.6258866 630.63243978 22.6261749 633.62341017 C21.54188475 634.70616038 20.45928158 635.79060316 19.37854489 636.87690026 C17.90876876 638.35373662 16.43294833 639.82426308 14.95548534 641.29340363 C13.72843987 642.52077515 13.72843987 642.52077515 12.47660559 643.77294207 C9.78237651 646.19569532 7.05557356 648.06254053 4 650 C3.99967395 649.15271516 3.99967395 649.15271516 3.99934131 648.28831345 C3.98580234 614.7517678 3.94620835 581.21536472 3.87314438 547.67889762 C3.86437845 543.645063 3.8558285 539.61122795 3.84741211 535.57739258 C3.84573305 534.77438587 3.84405398 533.97137916 3.84232404 533.14403891 C3.81571133 520.17073183 3.80656308 507.19746895 3.80395857 494.22413737 C3.80089061 480.89549757 3.77884686 467.56698476 3.73947543 454.23840231 C3.71580358 446.02513024 3.70663508 437.81211229 3.71648689 429.5988109 C3.72183501 423.9536704 3.70862097 418.30875594 3.6813371 412.66367979 C3.66616672 409.41487973 3.6614427 406.16668263 3.67340279 402.91785431 C3.75378484 378.66867672 0.51429219 360.82373198 -17 343 C-17.56460937 342.4225 -18.12921875 341.845 -18.7109375 341.25 C-35.48275107 325.54176485 -58.80631788 326.39837782 -80.14991975 326.45119452 C-83.95476303 326.45618742 -87.75950942 326.4379955 -91.5643158 326.42277527 C-98.13877178 326.39957607 -104.7131178 326.39070969 -111.28761292 326.39188385 C-120.79292546 326.39356025 -130.29809236 326.37314587 -139.80336589 326.34752855 C-155.22909229 326.30654665 -170.65479232 326.28315989 -186.08056641 326.27099609 C-201.05552706 326.25914974 -216.03043813 326.23891863 -231.00537109 326.20751953 C-232.39249917 326.20461538 -232.39249917 326.20461538 -233.80765003 326.20165256 C-238.44736634 326.19188727 -243.08708227 326.18195829 -247.72679806 326.17194796 C-286.15117516 326.08925749 -324.57555173 326.03518881 -363 326 C-363.82600046 320.55173437 -363.85214997 316.39694981 -363 311 C-362.34 311 -361.68 311 -361 311 C-360.89300781 310.13375 -360.78601562 309.2675 -360.67578125 308.375 C-359.15974436 300.80357878 -354.73936763 293.09347267 -350 287 C-349.34 287 -348.68 287 -348 287 C-347.64453265 286.15740548 -347.64453265 286.15740548 -347.28188413 285.29778886 C-345.70270498 282.467096 -343.78244151 280.53036395 -341.48985386 278.23537827 C-341.02653897 277.7688569 -340.56322408 277.30233553 -340.08586934 276.82167715 C-338.52644305 275.25392539 -336.95996976 273.69341089 -335.39344788 272.13275146 C-334.26481833 271.00110236 -333.13662376 269.86901929 -332.0088281 268.73653913 C-328.90366282 265.62105906 -325.7922561 262.51187785 -322.6797961 259.40368772 C-319.32564134 256.05199403 -315.97722443 252.69457655 -312.62805176 249.33790588 C-306.06233001 242.7594156 -299.49111884 236.18643514 -292.9178412 229.61549559 C-287.57313716 224.27257329 -282.23019967 218.92789064 -276.88851738 213.58194733 C-276.12873997 212.82157473 -275.36896256 212.06120213 -274.58616159 211.27778794 C-273.04269152 209.73310611 -271.49922263 208.1884231 -269.95575493 206.6437389 C-255.46906982 192.14616891 -240.97586024 177.65513501 -226.48068535 163.16605416 C-213.22832538 149.91885815 -199.9841832 136.66348117 -186.74392254 123.40419313 C-173.14756014 109.78844174 -159.54563352 96.17827196 -145.93769544 82.57408929 C-138.29864241 74.93694746 -130.66179984 67.29762646 -123.03077888 59.65245819 C-116.53053902 53.14028969 -110.025047 46.63342389 -103.51279617 40.13326564 C-100.19226814 36.81861725 -96.87415916 33.50164216 -93.56258202 30.17804909 C-90.5258332 27.13041034 -87.4821382 24.0898869 -84.4329583 21.05468705 C-83.33600845 19.96037569 -82.24153672 18.86357281 -81.1499343 17.76392719 C-58.70923551 -4.83048999 -29.93666954 -15.54809422 0 0 Z " fill="#40A4ED" transform="translate(1563,340)"/>
<path d="M0 0 C27.72 0 55.44 0 84 0 C91.75424258 22.67907506 99.48892019 45.36447974 107.1875 68.0625 C107.58352417 69.23003815 107.97954834 70.39757629 108.38757324 71.60049438 C112.53180327 83.81886022 116.67411356 96.03787611 120.81492615 108.25740051 C122.49409515 113.21217573 124.17384306 118.16675458 125.85366821 123.12130737 C127.01329681 126.54234493 128.17207414 129.96366994 129.33081055 133.38500977 C132.65177953 143.18357 135.98676584 152.97667955 139.37216187 162.75318909 C146.66837338 183.82783917 153.76744079 204.96878066 160.87945557 226.10614014 C162.28519099 230.28312461 163.69208986 234.4597168 165.09897423 238.63631439 C168.47981813 248.67314183 171.85646934 258.71136518 175.22769737 268.7514267 C176.99576629 274.01581939 178.76851139 279.27859335 180.5468092 284.53953934 C181.57140593 287.57313513 182.59231497 290.60796268 183.61227608 293.64311981 C184.07086097 295.00510951 184.53101135 296.36657342 184.99296379 297.72742462 C192 318.37603267 192 318.37603267 192 325 C192.66 325 193.32 325 194 325 C194.18651123 324.15606689 194.37302246 323.31213379 194.56518555 322.44262695 C197.77991791 308.74472425 202.32202364 295.51059864 206.8125 282.1875 C207.23905108 280.91595745 207.66531778 279.64431947 208.09130859 278.37258911 C214.02872358 260.64758718 220.09289699 242.96916293 226.29418945 225.3347168 C231.47352118 210.5936621 236.4964095 195.80152002 241.5 181 C249.79972248 156.45543435 258.27893302 131.97789578 266.86672974 107.53286743 C270.82752106 96.25488879 274.74412182 84.96308393 278.59902954 73.64846802 C279.46911147 71.09471818 280.34031167 68.54135172 281.21166992 65.98803711 C284.24954032 57.08350706 287.2807118 48.17671351 290.30644226 39.26805115 C291.78154521 34.92498081 293.25752587 30.58220888 294.73342896 26.2394104 C295.80119635 23.09577926 296.86730385 19.95158836 297.93334961 16.80737305 C298.5870063 14.88327682 299.24073004 12.95920337 299.89453125 11.03515625 C300.34510391 9.703741 300.34510391 9.703741 300.80477905 8.34542847 C301.08036652 7.53542389 301.35595398 6.72541931 301.63989258 5.89086914 C301.87968338 5.18402481 302.11947418 4.47718048 302.36653137 3.74891663 C303 2 303 2 304 0 C331.06 0 358.12 0 386 0 C377.96495632 22.95726765 377.96495632 22.95726765 374.7578125 31.30859375 C374.20973686 32.74649261 374.20973686 32.74649261 373.65058899 34.21343994 C372.47779567 37.28905 371.30138445 40.36326197 370.125 43.4375 C368.85907846 46.7550415 367.59418034 50.07297196 366.32939148 53.39094543 C365.47153315 55.64136975 364.61338885 57.89168507 363.75495911 60.14189148 C359.97101624 70.06406475 356.21961232 79.99834275 352.47479248 89.93533325 C345.99323687 107.13233619 339.44742441 124.30381481 332.86346436 141.46185303 C327.38933144 155.73026302 321.95539997 170.01319163 316.5625 184.3125 C310.60371651 200.11195812 304.62582391 215.90395681 298.625 231.6875 C298.2313324 232.72302002 297.83766479 233.75854004 297.43206787 234.82543945 C295.4314175 240.08784419 293.43042977 245.35012056 291.42919922 250.61230469 C287.34742435 261.34524376 283.26711233 272.07873877 279.1875 282.8125 C278.78874664 283.86158539 278.38999329 284.91067078 277.97915649 285.99154663 C272.6341418 300.05471754 267.30081364 314.12223853 261.9828186 328.19564819 C258.57585669 337.21096449 255.15660704 346.22148833 251.72265625 355.2265625 C251.36011246 356.17738708 250.99756866 357.12821167 250.6240387 358.10784912 C248.85985982 362.73388209 247.09447933 367.35945204 245.32739258 371.984375 C244.68439074 373.66926442 244.04140494 375.35415995 243.3984375 377.0390625 C243.11360001 377.78338531 242.82876251 378.52770813 242.53529358 379.29458618 C240.29234963 385.17552231 238.15184215 391.08243408 236 397 C206.96 397 177.92 397 148 397 C142.37562663 383.50150391 142.37562663 383.50150391 140.33129883 377.97363281 C140.10550392 377.36520727 139.87970901 376.75678173 139.64707184 376.12991905 C138.91480524 374.15514702 138.18591291 372.17914859 137.45703125 370.203125 C136.93083178 368.78233321 136.40439226 367.36163031 135.87773132 365.94100952 C134.76402456 362.93570268 133.65170166 359.92988911 132.54052734 356.92364502 C129.90608768 349.79675775 127.26387996 342.67274892 124.6223259 335.54849625 C123.73897436 333.16593196 122.85588473 330.78327071 121.97280884 328.40060425 C117.17741971 315.46454923 112.35088454 302.54035268 107.5 289.625 C107.14178162 288.67094269 106.78356323 287.71688538 106.41448975 286.73391724 C104.64055953 282.00965204 102.86580415 277.28569765 101.09033203 272.56201172 C97.53588888 263.10515447 93.98601268 253.64658393 90.4375 244.1875 C90.07381317 243.21814514 89.71012634 242.24879028 89.3354187 241.25006104 C82.82028081 223.88218531 76.3350435 206.5032131 69.85400009 189.12259674 C61.35825169 166.3392161 52.84610929 143.5620845 44.30633545 120.79516602 C42.91037728 117.07355594 41.51491302 113.3517609 40.11958313 109.62991524 C34.51993193 94.6942964 28.91260221 79.76162305 23.28704834 64.83573914 C21.07972104 58.97889956 18.87528197 53.12097414 16.67153168 47.26278782 C14.8731864 42.48308945 13.07097547 37.70487285 11.26580906 32.92774677 C10.15237191 29.97841315 9.04261695 27.02770409 7.93385887 24.07660866 C7.42086277 22.7134973 6.90634609 21.35095705 6.39016151 19.98904991 C5.68170582 18.11924892 4.97927812 16.24716734 4.27709961 14.375 C3.68643959 12.80878906 3.68643959 12.80878906 3.08384705 11.2109375 C1.84429467 7.53871714 0.94001541 3.76006164 0 0 Z " fill="#FEFEFE" transform="translate(974,835)"/>
<path d="M0 0 C3.17317327 -0.01285372 6.34633971 -0.02052985 9.51953125 -0.02734375 C10.40902466 -0.03100952 11.29851807 -0.03467529 12.21496582 -0.03845215 C19.15385247 -0.04960023 26.11689155 0.02699514 33 1 C34.65686592 2.65686592 34.12727411 4.65083996 34.13871691 6.86495772 C34.13723328 7.56848218 34.13574966 8.27200663 34.13422108 8.99685001 C34.13657331 9.74115986 34.13892554 10.4854697 34.14134905 11.25233439 C34.14807378 13.77843108 34.14757978 16.30447674 34.14717102 18.83058167 C34.15046755 20.647329 34.15419266 22.46407561 34.1583125 24.28082126 C34.16836574 29.29857039 34.17205466 34.31630755 34.17470181 39.33406532 C34.17859537 44.73659075 34.18817474 50.13910662 34.19691467 55.54162598 C34.2167121 68.60629082 34.22675213 81.67095647 34.23564246 94.73563257 C34.2400224 100.88658553 34.24539019 107.03753763 34.25063133 113.18848991 C34.26765139 133.63673124 34.28214358 154.08497202 34.28938007 174.53321934 C34.29129003 179.84433048 34.29321034 185.15544161 34.29516602 190.46655273 C34.29540617 191.12639302 34.29564632 191.7862333 34.29589374 192.46606874 C34.30402197 214.49723805 34.32923058 236.52834141 34.36274669 258.55948652 C34.39583888 280.49087723 34.41383103 302.42223947 34.41702431 324.35365528 C34.41918805 336.66816904 34.42791611 348.9826011 34.45348549 361.29709053 C34.47522244 371.79032377 34.48322837 382.28345547 34.47351871 392.77670867 C34.46898192 398.12750623 34.47082392 403.47809446 34.49028015 408.82886314 C34.50797004 413.73648427 34.50686693 418.64374426 34.49138286 423.55136954 C34.48901553 425.31810426 34.49328442 427.08486437 34.50521151 428.85156042 C34.63254513 448.97455901 30.52238985 466.84002525 16.25073242 481.89013672 C6.83367802 491.38211944 -6.63809397 499.37663859 -20.34763771 500.12880117 C-21.16376673 500.13058974 -21.97989576 500.13237831 -22.82075596 500.13422108 C-23.76876121 500.13867892 -24.71676646 500.14313676 -25.69349915 500.14772969 C-27.24339418 500.14745315 -27.24339418 500.14745315 -28.82460022 500.14717102 C-29.92860922 500.15084771 -31.03261822 500.1545244 -32.17008203 500.1583125 C-35.87649493 500.16934264 -39.58287979 500.17319198 -43.28930664 500.17700195 C-45.94362047 500.18326683 -48.59793131 500.18990086 -51.25224304 500.19691467 C-59.21909346 500.21664661 -67.18594509 500.22673814 -75.15281382 500.23564246 C-78.90446804 500.24002807 -82.65612086 500.24539393 -86.40777397 500.25063133 C-98.87661095 500.26763534 -111.34544707 500.28213207 -123.81429386 500.28938007 C-127.04750126 500.29128994 -130.28070865 500.29321028 -133.51391602 500.29516602 C-134.71929987 500.29589163 -134.71929987 500.29589163 -135.94903492 500.2966319 C-148.98257595 500.30494205 -162.01602549 500.33029921 -175.04952652 500.36274669 C-188.4290528 500.39578456 -201.8085325 500.4138256 -215.1880998 500.41702431 C-222.70112663 500.41919174 -230.21401979 500.427975 -237.72700691 500.45348549 C-244.12118386 500.47514729 -250.51519463 500.48326509 -256.90940411 500.47351871 C-260.17278816 500.46896161 -263.43575591 500.47310562 -266.69910812 500.49028015 C-270.23382701 500.50784735 -273.76766558 500.50096738 -277.30238342 500.48774719 C-278.3378775 500.49871644 -279.37337157 500.50968568 -280.44024426 500.52098733 C-287.36454015 500.45813902 -287.36454015 500.45813902 -290.54140377 498.16775799 C-292.50137864 495.25485372 -294.35355692 492.31527315 -296.0625 489.25 C-296.41248047 488.62963867 -296.76246094 488.00927734 -297.12304688 487.37011719 C-303 476.77278646 -303 476.77278646 -303 472 C-303.66 471.67 -304.32 471.34 -305 471 C-305.71744929 469.01765014 -306.37550903 467.01356785 -307 465 C-307.7922597 462.99189621 -308.60500629 460.99176065 -309.4375 459 C-310.05431641 457.515 -310.05431641 457.515 -310.68359375 456 C-311.56982265 453.98034482 -312.52396478 451.98930652 -313.5390625 450.03125 C-315.05708727 446.88155155 -316.01988977 443.87113459 -316.9375 440.5 C-317.27394531 439.283125 -317.61039063 438.06625 -317.95703125 436.8125 C-318.47330078 434.9253125 -318.47330078 434.9253125 -319 433 C-319.70469536 430.4989721 -320.4129101 427.99893259 -321.125 425.5 C-321.43695312 424.3965625 -321.74890625 423.293125 -322.0703125 422.15625 C-322.69851799 420.02351875 -323.37048213 417.90326589 -324.08203125 415.796875 C-325.04097661 412.87515212 -325.51768477 410.03169575 -326 407 C-326.33 406.34 -326.66 405.68 -327 405 C-327.0396713 403.33380554 -327.04384447 401.66608987 -327 400 C-326.41637209 399.99826375 -325.83274419 399.9965275 -325.23143059 399.99473864 C-290.67718741 399.89181622 -256.12296437 399.7837267 -221.56875873 399.66888306 C-217.42417587 399.6551127 -213.27959286 399.64138572 -209.13500977 399.62768555 C-207.89728872 399.62359309 -207.89728872 399.62359309 -206.6345632 399.61941796 C-193.25600333 399.57528605 -179.87743496 399.53467207 -166.49886019 399.49534739 C-152.78162177 399.45494935 -139.0643992 399.41079586 -125.34718412 399.36312145 C-116.87598746 399.33379908 -108.40479204 399.30744184 -99.93357479 399.28482103 C-94.13258255 399.26905056 -88.33160972 399.24964797 -82.530639 399.22733159 C-79.1786953 399.21454569 -75.82678174 399.20395281 -72.47481918 399.19658089 C-68.84927304 399.18835677 -65.22380135 399.1740908 -61.59828186 399.15821838 C-59.99179853 399.15675122 -59.99179853 399.15675122 -58.35286099 399.15525442 C-57.38945276 399.14977998 -56.42604453 399.14430554 -55.43344212 399.1386652 C-54.59539935 399.13600716 -53.75735658 399.13334911 -52.89391857 399.13061053 C-50.98858681 399.20751433 -50.98858681 399.20751433 -50 398 C-48.824375 397.814375 -47.64875 397.62875 -46.4375 397.4375 C-32.04940195 394.31165122 -19.01990367 385.54930651 -11.0625 373.25 C-10.02651172 371.50892879 -9.0048812 369.75920848 -8 368 C-7.47535156 367.15566406 -6.95070313 366.31132813 -6.41015625 365.44140625 C-5.11383339 363.19707997 -4.19089721 361.13967457 -3.375 358.6875 C-3.13523437 357.99011719 -2.89546875 357.29273438 -2.6484375 356.57421875 C-0.60565516 348.46461897 -0.84739509 340.20691654 -0.84178162 331.90246582 C-0.83721046 330.46837906 -0.83220963 329.03429362 -0.82681805 327.60020971 C-0.81329056 323.67334285 -0.80583428 319.74648459 -0.79939139 315.81960058 C-0.79136366 311.57974589 -0.7776741 307.33990899 -0.76467896 303.10006714 C-0.74294979 295.75884053 -0.72479233 288.41761209 -0.70907402 281.07637024 C-0.68634291 270.46222096 -0.65820461 259.84809141 -0.62875474 249.2339589 C-0.58111853 232.01242663 -0.53784361 214.79088629 -0.49731445 197.56933594 C-0.45793931 180.842116 -0.41650825 164.11490324 -0.37231445 147.38769531 C-0.36959018 146.35629663 -0.36686591 145.32489795 -0.36405908 144.26224476 C-0.35037927 139.08792109 -0.33665906 133.91359753 -0.32291877 128.73927402 C-0.20901638 85.82619765 -0.10219326 42.91310575 0 0 Z " fill="#092554" transform="translate(1533,1000)"/>
<path d="M0 0 C42.76158499 -0.04578541 85.52316715 -0.08102326 128.28477179 -0.10213066 C133.33405363 -0.10463205 138.38333542 -0.1072207 143.43261719 -0.10986328 C144.43783126 -0.1103879 145.44304534 -0.11091252 146.47872044 -0.11145304 C162.75145265 -0.12015382 179.02417071 -0.135922 195.29689454 -0.15430559 C211.99626519 -0.17301372 228.69562845 -0.18411866 245.39500916 -0.18817699 C255.69802317 -0.19092015 266.0009972 -0.19958189 276.3039989 -0.21583293 C283.37073899 -0.22641107 290.43745844 -0.22959874 297.50420587 -0.22700275 C301.58030847 -0.22572276 305.65634125 -0.22767444 309.73243141 -0.23841095 C313.46837874 -0.24817941 317.20420962 -0.24861168 320.94016244 -0.24179779 C322.92306448 -0.24055935 324.90596527 -0.24915283 326.88884723 -0.25816262 C337.20013288 -0.22376822 345.95963229 0.91484394 355.125 5.75 C356.16346069 6.28778076 356.16346069 6.28778076 357.22290039 6.83642578 C369.10470847 13.11154508 377.87931851 21.52645202 384.375 33.375 C384.69662109 33.95048584 385.01824219 34.52597168 385.34960938 35.11889648 C390.14507989 44.35626027 391.4438766 54.35073687 391.54244995 64.62550354 C391.5640635 65.73151616 391.58567705 66.83752877 391.60794556 67.97705692 C391.6756075 71.64940996 391.72264575 75.32170602 391.76904297 78.99438477 C391.80137081 80.96653292 391.83371714 82.93868105 391.86736046 84.9108072 C392.28909007 109.72821238 392.4866106 134.55067682 392.6453228 159.37098789 C392.66634341 162.60076199 392.68772523 165.83053344 392.70947266 169.06030273 C392.71485853 169.86287217 392.72024441 170.6654416 392.7257935 171.49233132 C392.815795 184.46320843 393.00995663 197.43041487 393.24553202 210.399377 C393.48630126 223.76672475 393.62256079 237.13218419 393.66240036 250.5016579 C393.68744584 257.98855097 393.75771414 265.46887445 393.94640732 272.95358467 C395.21971564 325.0919976 395.21971564 325.0919976 381.44127083 339.65047359 C376.07729598 344.81170394 370.3069005 349.05375598 364 353 C361.99289778 354.3229436 359.99696574 355.66176166 358 357 C357.99967395 356.15271516 357.99967395 356.15271516 357.99934131 355.28831345 C357.98580234 321.7517678 357.94620835 288.21536472 357.87314438 254.67889762 C357.86437845 250.645063 357.8558285 246.61122795 357.84741211 242.57739258 C357.84573305 241.77438587 357.84405398 240.97137916 357.84232404 240.14403891 C357.81571133 227.17073183 357.80656308 214.19746895 357.80395857 201.22413737 C357.80089061 187.89549757 357.77884686 174.56698476 357.73947543 161.23840231 C357.71580358 153.02513024 357.70663508 144.81211229 357.71648689 136.5988109 C357.72183501 130.9536704 357.70862097 125.30875594 357.6813371 119.66367979 C357.66616672 116.41487973 357.6614427 113.16668263 357.67340279 109.91785431 C357.75378484 85.66867672 354.51429219 67.82373198 337 50 C336.43539063 49.4225 335.87078125 48.845 335.2890625 48.25 C318.51724893 32.54176485 295.19368212 33.39837782 273.85008025 33.45119452 C270.04523697 33.45618742 266.24049058 33.4379955 262.4356842 33.42277527 C255.86122822 33.39957607 249.2868822 33.39070969 242.71238708 33.39188385 C233.20707454 33.39356025 223.70190764 33.37314587 214.19663411 33.34752855 C198.77090771 33.30654665 183.34520768 33.28315989 167.91943359 33.27099609 C152.94447294 33.25914974 137.96956187 33.23891863 122.99462891 33.20751953 C122.06987686 33.20558343 121.14512481 33.20364733 120.19234997 33.20165256 C115.55263366 33.19188727 110.91291773 33.18195829 106.27320194 33.17194796 C67.84882484 33.08925749 29.42444827 33.03518881 -9 33 C-9.82600046 27.55173437 -9.85214997 23.39694981 -9 18 C-8.34 18 -7.68 18 -7 18 C-6.84724609 16.71222656 -6.84724609 16.71222656 -6.69140625 15.3984375 C-5.94202588 11.71504245 -4.67376769 8.94976792 -2.9375 5.625 C-2.38964844 4.56539062 -1.84179688 3.50578125 -1.27734375 2.4140625 C-0.85582031 1.61742187 -0.43429687 0.82078125 0 0 Z " fill="#3B95D7" transform="translate(1209,633)"/>
<path d="M0 0 C0.33 0 0.66 0 1 0 C1.09159814 56.16321596 1.16206038 112.32642447 1.20426132 168.48970047 C1.20926402 175.12350486 1.21444132 181.75730911 1.21972656 188.39111328 C1.2202496 189.05123645 1.22077263 189.71135962 1.22131152 190.39148652 C1.23886809 212.42946649 1.27068576 234.46739696 1.30861118 256.50535101 C1.34604551 278.44122629 1.36824113 300.37707902 1.37635398 322.31298494 C1.38183656 335.84358206 1.39913964 349.37405725 1.43166587 362.90461683 C1.45284448 372.1888232 1.45919245 381.47296672 1.45400551 390.75719547 C1.45144897 396.11001554 1.455309 401.46262286 1.4768219 406.81540489 C1.49640828 411.72490975 1.49719217 416.63406047 1.48359558 421.54358226 C1.48191724 423.31102257 1.48688844 425.07848576 1.49953273 426.84588164 C1.63503853 446.97204708 -2.47535164 464.83764355 -16.74926758 479.89013672 C-26.16632198 489.38211944 -39.63809397 497.37663859 -53.34763771 498.12880117 C-54.16376673 498.13058974 -54.97989576 498.13237831 -55.82075596 498.13422108 C-56.76876121 498.13867892 -57.71676646 498.14313676 -58.69349915 498.14772969 C-60.24339418 498.14745315 -60.24339418 498.14745315 -61.82460022 498.14717102 C-62.92860922 498.15084771 -64.03261822 498.1545244 -65.17008203 498.1583125 C-68.87649493 498.16934264 -72.58287979 498.17319198 -76.28930664 498.17700195 C-78.94362047 498.18326683 -81.59793131 498.18990086 -84.25224304 498.19691467 C-92.21909346 498.21664661 -100.18594509 498.22673814 -108.15281382 498.23564246 C-111.90446804 498.24002807 -115.65612086 498.24539393 -119.40777397 498.25063133 C-131.87661095 498.26763534 -144.34544707 498.28213207 -156.81429386 498.28938007 C-160.04750126 498.29128994 -163.28070865 498.29321028 -166.51391602 498.29516602 C-167.71929987 498.29589163 -167.71929987 498.29589163 -168.94903492 498.2966319 C-181.98257595 498.30494205 -195.01602549 498.33029921 -208.04952652 498.36274669 C-221.4290528 498.39578456 -234.8085325 498.4138256 -248.1880998 498.41702431 C-255.70112663 498.41919174 -263.21401979 498.427975 -270.72700691 498.45348549 C-277.12118386 498.47514729 -283.51519463 498.48326509 -289.90940411 498.47351871 C-293.17278816 498.46896161 -296.43575591 498.47310562 -299.69910812 498.49028015 C-303.23382701 498.50784735 -306.76766558 498.50096738 -310.30238342 498.48774719 C-311.3378775 498.49871644 -312.37337157 498.50968568 -313.44024426 498.52098733 C-320.36454015 498.45813902 -320.36454015 498.45813902 -323.54140377 496.16775799 C-325.50137864 493.25485372 -327.35355692 490.31527315 -329.0625 487.25 C-329.41248047 486.62963867 -329.76246094 486.00927734 -330.12304688 485.37011719 C-336 474.77278646 -336 474.77278646 -336 470 C-336.66 469.67 -337.32 469.34 -338 469 C-338.71744929 467.01765014 -339.37550903 465.01356785 -340 463 C-342.0161668 457.88971583 -344.04876201 452.79271774 -346.625 447.9375 C-349.07062502 442.71275563 -351 436.7974815 -351 431 C-350.36976575 430.99902319 -349.73953149 430.99804638 -349.09019923 430.99703997 C-311.71278969 430.93873041 -274.33544057 430.86490526 -236.95810287 430.77101372 C-232.46718604 430.75974596 -227.97626891 430.74860744 -223.48535156 430.73754883 C-222.1442965 430.7342433 -222.1442965 430.7342433 -220.77614942 430.730871 C-206.31217903 430.69552721 -191.84820868 430.67064661 -177.38421115 430.64965298 C-162.53575578 430.62786767 -147.6873563 430.59479134 -132.83894849 430.55129844 C-123.68140969 430.52482874 -114.52394049 430.50709891 -105.36636534 430.50065396 C-99.08122515 430.49538573 -92.79617243 430.47912073 -86.51107916 430.45433434 C-82.88837326 430.44036836 -79.26582378 430.43113008 -75.64308929 430.43499184 C-71.70601448 430.43906119 -67.76923831 430.41991119 -63.83221436 430.39872742 C-62.13371877 430.40599878 -62.13371877 430.40599878 -60.40091014 430.41341704 C-43.99377335 430.2682649 -30.11338144 424.71354689 -18.21484375 413.31640625 C-4.97970921 399.47436959 -0.53529029 385.13568805 -0.60127258 366.29525757 C-0.59582673 364.71094841 -0.58907251 363.1266433 -0.58113068 361.54234469 C-0.56316528 357.2094892 -0.56365506 352.87680563 -0.56726015 348.54392171 C-0.56788542 343.86372585 -0.55125066 339.18358696 -0.53674316 334.50341797 C-0.51397698 326.40155996 -0.50207547 318.29974488 -0.49761391 310.1978569 C-0.4911475 298.48398827 -0.46820144 286.77019719 -0.44127061 275.05635984 C-0.39801995 256.0501167 -0.36804336 237.04387682 -0.34643555 218.03759766 C-0.32542071 199.5779459 -0.29814118 181.11832088 -0.26245117 162.65869141 C-0.26025235 161.52028633 -0.25805352 160.38188125 -0.25578807 159.20897906 C-0.24471829 153.49776998 -0.2335255 147.78656115 -0.22227156 142.07535243 C-0.12911082 94.71692527 -0.05750154 47.35848296 0 0 Z " fill="#0A2D68" transform="translate(1566,1002)"/>
<path d="M0 0 C11.19173506 0.47870253 21.98749783 1.99428655 33 4 C33.06868532 55.62810088 33.12153855 107.25619713 33.15319599 158.88433472 C33.15694805 164.9812395 33.16083102 171.07814419 33.16479492 177.17504883 C33.16558185 178.388819 33.16636878 179.60258918 33.16717956 180.85314027 C33.18022902 200.49937909 33.20388035 220.14559153 33.23145839 239.79181471 C33.25952534 259.9546871 33.276179 280.11754569 33.28226548 300.28043681 C33.28637924 312.71930049 33.29936647 325.15808963 33.3237494 337.59693036 C33.3396225 346.12982421 33.34439678 354.66267959 33.34050413 363.19558712 C33.33858505 368.11662125 33.34150115 373.03752523 33.35761642 377.95853615 C33.37228216 382.46999956 33.37290929 386.98124607 33.36269668 391.49271975 C33.36143563 393.11878585 33.3651844 394.74486584 33.37464955 396.37090489 C33.47857858 415.3388293 29.59113875 431.88565345 16.27075195 445.93139648 C10.19336799 452.0295756 4.18299546 456.3636697 -4 459 C-3.78806336 458.06243724 -3.57612672 457.12487449 -3.35776776 456.15890074 C-1.06705903 445.44403414 -0.56800944 435.18642732 -0.60127258 424.25793457 C-0.59582117 422.41683495 -0.58906469 420.57573882 -0.58113068 418.73464823 C-0.56323582 413.71985911 -0.5636463 408.70521906 -0.56726015 403.69040561 C-0.56788726 398.26593598 -0.55123351 392.84151497 -0.53674316 387.41706848 C-0.51401186 378.03355035 -0.50208151 368.6500692 -0.49761391 359.26652527 C-0.4911388 345.6997232 -0.46817751 332.13298783 -0.44127061 318.56621271 C-0.39805378 296.55180095 -0.3680579 274.53739201 -0.34643555 252.52294922 C-0.32541055 231.14565591 -0.2981564 209.76838713 -0.26245117 188.39111328 C-0.26025235 187.07207782 -0.25805352 185.75304235 -0.25578807 184.39403611 C-0.24471803 177.77642252 -0.2335253 171.15880915 -0.22227156 164.54119587 C-0.12915875 109.69415097 -0.0575273 54.84709297 0 0 Z " fill="#0E3983" transform="translate(1567,1002)"/>
<path d="M0 0 C4.47994839 -0.07512813 8.95954625 -0.12905469 13.43994141 -0.16479492 C14.95856121 -0.17972112 16.47713917 -0.20006959 17.99560547 -0.22631836 C35.96770328 -0.52881902 51.28905332 2.7731282 64.6875 15.65625 C65.450625 16.4296875 66.21375 17.203125 67 18 C68.0828125 19.06734375 68.0828125 19.06734375 69.1875 20.15625 C85.53686236 37.2487652 85.58040936 58.3095438 85.45410156 80.47607422 C85.45073654 83.25643344 85.45343345 86.03677928 85.45587158 88.81713867 C85.45795848 94.77998975 85.44551928 100.74266434 85.42292023 106.70547104 C85.39026825 115.32642019 85.3799798 123.9472849 85.37496826 132.56828918 C85.36623619 146.55875795 85.33967759 160.54913289 85.30175781 174.53955078 C85.26498346 188.12157729 85.23669833 201.70357822 85.21972656 215.28564453 C85.21815022 216.54362647 85.21815022 216.54362647 85.21654204 217.82702218 C85.21132149 222.03474123 85.20626676 226.24246046 85.20129442 230.45017982 C85.15989746 265.30018947 85.08839739 300.15007974 85 335 C68.17 334.01 68.17 334.01 51 333 C50.99413376 329.49150925 50.98826752 325.98301849 50.98222351 322.36820984 C50.92701562 290.17420367 50.85703947 257.98025738 50.77101372 225.7863184 C50.75974593 221.56449577 50.74860741 217.3426728 50.73754883 213.12084961 C50.73534514 212.28038166 50.73314146 211.43991371 50.730871 210.57397703 C50.69552518 196.97584619 50.67064573 183.37771541 50.64965298 169.7795557 C50.62786928 155.82042271 50.59479449 141.86134919 50.55129844 127.9022668 C50.52482595 119.29288834 50.50709818 110.68358394 50.50065396 102.07416681 C50.49538658 96.16560821 50.47912444 90.2571427 50.45433434 84.34863403 C50.44036543 80.9427528 50.43113117 77.53703804 50.43499184 74.1311264 C50.4366478 70.43009395 50.41991647 66.72957248 50.39872742 63.02861023 C50.40357499 61.96340407 50.40842257 60.8981979 50.41341704 59.80071276 C50.26580475 44.12531062 44.25355512 29.4380003 33.3046875 18.17578125 C23.75172076 9.15713299 13.0617709 3.21385948 0 1 C0 0.67 0 0.34 0 0 Z " fill="#255F8A" transform="translate(1482,667)"/>
<path d="M0 0 C0.80640376 22.6090803 -0.01020791 40.45640917 -15.375 58.25 C-26.07828989 69.64784614 -40.63322233 77.82677845 -56.53898144 78.36914349 C-58.52498948 78.38155931 -60.51114346 78.37793373 -62.49711609 78.36076355 C-64.15280215 78.36460846 -64.15280215 78.36460846 -65.84193641 78.36853105 C-69.51155722 78.37344156 -73.18075939 78.3570209 -76.8503418 78.34057617 C-79.49233419 78.33972931 -82.13430155 78.34007435 -84.77629089 78.34190369 C-90.44941668 78.34347093 -96.12243835 78.33411946 -101.79553795 78.31719017 C-109.99770387 78.29272984 -118.19981984 78.28498774 -126.40201829 78.2812262 C-139.71196971 78.2746727 -153.02186574 78.25474156 -166.33178711 78.22631836 C-179.25528691 78.19874919 -192.17877162 78.17752962 -205.10229492 78.16479492 C-205.89991978 78.16400675 -206.69754463 78.16321858 -207.51933994 78.16240653 C-211.52109396 78.1584912 -215.52284809 78.15470013 -219.52460229 78.15097082 C-252.68310851 78.11990925 -285.84154682 78.0671036 -319 78 C-319.26554687 77.05898437 -319.53109375 76.11796875 -319.8046875 75.1484375 C-320.15789062 73.90320312 -320.51109375 72.65796875 -320.875 71.375 C-321.22304687 70.14523437 -321.57109375 68.91546875 -321.9296875 67.6484375 C-322.60890038 65.33316439 -323.32724925 63.02873354 -324.09765625 60.7421875 C-325.05227494 57.84113848 -325.52095583 55.01113477 -326 52 C-326.33 51.34 -326.66 50.68 -327 50 C-327.0396713 48.33380554 -327.04384447 46.66608987 -327 45 C-326.41637209 44.99826375 -325.83274419 44.9965275 -325.23143059 44.99473864 C-290.67718741 44.89181622 -256.12296437 44.7837267 -221.56875873 44.66888306 C-217.42417587 44.6551127 -213.27959286 44.64138572 -209.13500977 44.62768555 C-207.89728872 44.62359309 -207.89728872 44.62359309 -206.6345632 44.61941796 C-193.25600333 44.57528605 -179.87743496 44.53467207 -166.49886019 44.49534739 C-152.78162177 44.45494935 -139.0643992 44.41079586 -125.34718412 44.36312145 C-116.87598746 44.33379908 -108.40479204 44.30744184 -99.93357479 44.28482103 C-94.13258255 44.26905056 -88.33160972 44.24964797 -82.530639 44.22733159 C-79.1786953 44.21454569 -75.82678174 44.20395281 -72.47481918 44.19658089 C-68.84927304 44.18835677 -65.22380135 44.1740908 -61.59828186 44.15821838 C-59.99179853 44.15675122 -59.99179853 44.15675122 -58.35286099 44.15525442 C-57.38945276 44.14977998 -56.42604453 44.14430554 -55.43344212 44.1386652 C-54.59539935 44.13600716 -53.75735658 44.13334911 -52.89391857 44.13061053 C-50.98858681 44.20751433 -50.98858681 44.20751433 -50 43 C-48.824375 42.814375 -47.64875 42.62875 -46.4375 42.4375 C-32.04940195 39.31165122 -19.01990367 30.54930651 -11.0625 18.25 C-10.02651172 16.50892879 -9.0048812 14.75920848 -8 13 C-7.46375 12.1440625 -6.9275 11.288125 -6.375 10.40625 C-4.80362205 7.88039353 -4.80362205 7.88039353 -3.9375 4.25 C-3.628125 3.1775 -3.31875 2.105 -3 1 C-1 0 -1 0 0 0 Z " fill="#071E43" transform="translate(1533,1355)"/>
<path d="M0 0 C-3.42255992 11.8312858 -13.02468357 21.94729705 -23.265625 28.515625 C-31.71479071 33.10231496 -41.10763576 37.11293449 -50.82075596 37.13422108 C-51.76876121 37.13867892 -52.71676646 37.14313676 -53.69349915 37.14772969 C-55.24339418 37.14745315 -55.24339418 37.14745315 -56.82460022 37.14717102 C-57.92860922 37.15084771 -59.03261822 37.1545244 -60.17008203 37.1583125 C-63.87649493 37.16934264 -67.58287979 37.17319198 -71.28930664 37.17700195 C-73.94362047 37.18326683 -76.59793131 37.18990086 -79.25224304 37.19691467 C-87.21909346 37.21664661 -95.18594509 37.22673814 -103.15281382 37.23564246 C-106.90446804 37.24002807 -110.65612086 37.24539393 -114.40777397 37.25063133 C-126.87661095 37.26763534 -139.34544707 37.28213207 -151.81429386 37.28938007 C-155.04750126 37.29128994 -158.28070865 37.29321028 -161.51391602 37.29516602 C-162.71929987 37.29589163 -162.71929987 37.29589163 -163.94903492 37.2966319 C-176.98257595 37.30494205 -190.01602549 37.33029921 -203.04952652 37.36274669 C-216.4290528 37.39578456 -229.8085325 37.4138256 -243.1880998 37.41702431 C-250.70112663 37.41919174 -258.21401979 37.427975 -265.72700691 37.45348549 C-272.12118386 37.47514729 -278.51519463 37.48326509 -284.90940411 37.47351871 C-288.17278816 37.46896161 -291.43575591 37.47310562 -294.69910812 37.49028015 C-298.23382701 37.50784735 -301.76766558 37.50096738 -305.30238342 37.48774719 C-306.3378775 37.49871644 -307.37337157 37.50968568 -308.44024426 37.52098733 C-315.36454015 37.45813902 -315.36454015 37.45813902 -318.54140377 35.16775799 C-320.50137864 32.25485372 -322.35355692 29.31527315 -324.0625 26.25 C-324.41248047 25.62963867 -324.76246094 25.00927734 -325.12304688 24.37011719 C-331 13.77278646 -331 13.77278646 -331 9 C-331.66 8.67 -332.32 8.34 -333 8 C-332.67 6.68 -332.34 5.36 -332 4 C-331.00443493 3.99853479 -331.00443493 3.99853479 -329.98875743 3.99703997 C-290.62388078 3.93872735 -251.25906045 3.86489988 -211.89425187 3.77101372 C-207.16428341 3.75974599 -202.43431466 3.74860747 -197.7043457 3.73754883 C-196.76272147 3.73534514 -195.82109724 3.73314146 -194.85093894 3.730871 C-179.618127 3.69552954 -164.38531511 3.67064763 -149.15247742 3.64965298 C-133.5141403 3.62786581 -117.87585624 3.59478772 -102.23756427 3.55129844 C-92.59328391 3.52483194 -82.94906962 3.50709976 -73.30475476 3.50065396 C-66.68508194 3.49538475 -60.06549215 3.47911647 -53.44586388 3.45433434 C-49.63063593 3.44037173 -45.81555643 3.43112881 -42.00030136 3.43499184 C-37.85334125 3.43906315 -33.70679876 3.41990572 -29.55989075 3.39872742 C-27.77238166 3.40599878 -27.77238166 3.40599878 -25.94876128 3.41341704 C-18.8722854 3.35401991 -12.51047098 2.43637931 -5.66000384 0.64223224 C-3 0 -3 0 0 0 Z " fill="#0C3274" transform="translate(1561,1463)"/>
<path d="M0 0 C0 15.51 0 31.02 0 47 C-7.8330975 46.34724188 -15.49770718 45.59646223 -23.25 44.4375 C-24.67119141 44.22963867 -24.67119141 44.22963867 -26.12109375 44.01757812 C-28.41456696 43.68166538 -30.70749668 43.34245799 -33 43 C-34.06324596 38.69976077 -34.13090827 35.30030244 -33 31 C-29.59804628 26.26304978 -24.70885477 22.70630863 -20.27294922 18.98583984 C-16.18217054 15.41179111 -12.42422177 11.50365084 -8.625 7.625 C-7.18211848 6.15646169 -5.73700606 4.69011 -4.2890625 3.2265625 C-3.67756348 2.60346191 -3.06606445 1.98036133 -2.43603516 1.33837891 C-1 0 -1 0 0 0 Z " fill="#266FBD" transform="translate(1600,959)"/>
<path d="M0 0 C0 3.3 0 6.6 0 10 C-7.74136601 10.10920422 -15.31395526 9.97159933 -23 9 C-23 8.67 -23 8.34 -23 8 C-21.62328125 7.63648438 -21.62328125 7.63648438 -20.21875 7.265625 C-14.43948894 5.68725538 -5.39932816 0 0 0 Z " fill="#184779" transform="translate(1566,991)"/>
<path d="" fill="#017DE5" transform="translate(0,0)"/>
<path d="" fill="#017DE5" transform="translate(0,0)"/>
<path d="" fill="#017DE5" transform="translate(0,0)"/>
</svg>
